<svg width="708" height="219" viewBox="0 0 708 219" fill="none" xmlns="http://www.w3.org/2000/svg">
<path d="M126.123 1.24445C125.423 0.0444512 123.923 -0.355558 122.823 0.344442C122.423 0.544442 122.123 0.844451 121.923 1.24445L0.323054 215.144C-0.376946 216.344 0.123048 217.844 1.22305 218.444C1.62305 218.644 2.02305 218.744 2.42305 218.744H247.523C248.823 218.744 249.923 217.644 249.923 216.344C249.923 215.944 249.823 215.444 249.623 215.144L126.123 1.24445ZM99.723 139.944L143.323 128.044L131.523 171.344L99.723 139.944Z" fill="white"/>
<path d="M2.42305 218.845H51.723L97.023 45.1445L0.323054 215.245C-0.376946 216.445 0.123048 217.945 1.22305 218.545C1.62305 218.745 2.02305 218.845 2.42305 218.845Z" fill="white"/>
<path d="M225.523 173.344L51.7231 218.844H247.523C248.823 218.844 249.923 217.744 249.923 216.444C249.923 216.044 249.823 215.544 249.623 215.244L225.523 173.344Z" fill="white"/>
<path d="M198.823 146.745L225.523 173.345L126.223 1.34454C125.523 0.144538 124.023 -0.255456 122.923 0.444544C122.523 0.644544 122.223 0.944538 122.023 1.34454L97.123 45.2445L198.823 146.645V146.745Z" fill="white"/>
<path d="M51.7231 218.845L87.5231 209.445L87.3232 82.2446L51.7231 218.845Z" fill="white"/>
<path d="M87.3232 82.2445L198.823 146.745L97.0232 45.1445L87.3232 82.2445Z" fill="white"/>
<path d="M87.5232 209.445L225.523 173.345L198.823 146.745L87.5232 209.445Z" fill="white"/>
<path d="M87.5231 209.444L111.423 195.944L87.4231 109.244L87.5231 209.444Z" fill="white"/>
<path d="M198.823 146.744L175.323 133.144L111.423 195.944L198.823 146.744Z" fill="white"/>
<path d="M87.423 109.244L175.323 133.144L87.323 82.2444L87.423 109.244Z" fill="white"/>
<path d="M143.323 128.044H156.823L87.4231 109.244L92.5231 127.944L143.123 128.044H143.323Z" fill="white"/>
<path d="M99.5232 139.744L92.5232 127.944L111.423 195.944L124.723 182.844L99.7232 139.944L99.5232 139.744Z" fill="white"/>
<path d="M156.823 128.044L124.723 182.844L175.323 133.144L156.823 128.044Z" fill="white"/>
<path d="M143.323 128.044L92.5229 127.944L99.7229 139.944L143.323 128.044Z" fill="white"/>
<path d="M131.523 171.344L99.7229 139.944L124.723 182.844L131.523 171.344Z" fill="white"/>
<path d="M156.823 128.044H143.323L131.523 171.344L156.823 128.044Z" fill="white"/>
<path d="M2.42305 218.845H51.723L97.023 45.1445L0.323054 215.245C-0.376946 216.445 0.123048 217.945 1.22305 218.545C1.62305 218.745 2.02305 218.845 2.42305 218.845Z" fill="url(#paint0_linear_3255_253)"/>
<path d="M225.523 173.344L51.7231 218.844H247.523C248.823 218.844 249.923 217.744 249.923 216.444C249.923 216.044 249.823 215.544 249.623 215.244L225.523 173.344Z" fill="url(#paint1_linear_3255_253)"/>
<path d="M198.823 146.745L225.523 173.345L126.223 1.34454C125.523 0.144538 124.023 -0.255456 122.923 0.444544C122.523 0.644544 122.223 0.944538 122.023 1.34454L97.123 45.2445L198.823 146.645V146.745Z" fill="url(#paint2_linear_3255_253)"/>
<path d="M51.7231 218.845L87.5231 209.445L87.3232 82.2446L51.7231 218.845Z" fill="url(#paint3_linear_3255_253)"/>
<path d="M87.3232 82.2445L198.823 146.745L97.0232 45.1445L87.3232 82.2445Z" fill="url(#paint4_linear_3255_253)"/>
<path d="M87.5232 209.445L225.523 173.345L198.823 146.745L87.5232 209.445Z" fill="url(#paint5_linear_3255_253)"/>
<path d="M87.5231 209.445L111.423 195.945L87.4231 109.245L87.5231 209.445Z" fill="url(#paint6_linear_3255_253)"/>
<path d="M198.823 146.745L175.323 133.145L111.423 195.945L198.823 146.745Z" fill="url(#paint7_linear_3255_253)"/>
<path d="M87.423 109.245L175.323 133.145L87.323 82.2446L87.423 109.245Z" fill="url(#paint8_linear_3255_253)"/>
<path d="M143.323 128.045H156.823L87.4231 109.245L92.5231 127.945L143.123 128.045H143.323Z" fill="url(#paint9_linear_3255_253)"/>
<path d="M99.5232 139.745L92.5232 127.945L111.423 195.945L124.723 182.845L99.7232 139.945L99.5232 139.745Z" fill="url(#paint10_linear_3255_253)"/>
<path d="M156.823 128.045L124.723 182.845L175.323 133.145L156.823 128.045Z" fill="url(#paint11_linear_3255_253)"/>
<path d="M143.323 128.045L92.5229 127.945L99.7229 139.945L143.323 128.045Z" fill="url(#paint12_linear_3255_253)"/>
<path d="M131.523 171.345L99.7229 139.945L124.723 182.845L131.523 171.345Z" fill="url(#paint13_linear_3255_253)"/>
<path d="M156.823 128.045H143.323L131.523 171.345L156.823 128.045Z" fill="url(#paint14_linear_3255_253)"/>
<path d="M366.423 42.9445C364.923 41.9445 363.123 41.4445 361.323 41.5445C359.623 41.5445 357.923 42.0445 356.423 42.8445C354.923 43.7445 353.723 45.1445 353.023 46.8445L294.223 177.545H302.623C307.223 177.545 311.323 174.845 313.223 170.645L325.623 142.545H397.623L409.923 170.545C411.723 174.745 415.923 177.445 420.523 177.445H428.723L369.923 46.7445C369.123 45.2445 367.923 43.8445 366.423 42.9445ZM391.823 129.745H331.223L331.423 129.345L361.423 61.1445L391.623 129.345L391.823 129.745Z" fill="white"/>
<path d="M534.723 52.9446C526.923 46.1446 516.023 42.6446 501.923 42.6446H456.923C454.823 42.5446 452.723 43.2446 451.123 44.7446C449.623 46.1446 448.823 48.1446 448.923 50.2446V177.545H452.923C459.323 177.545 464.523 172.345 464.523 165.945V121.645H501.923C515.823 121.645 526.723 118.145 534.623 111.245C542.523 104.245 546.423 94.5446 546.423 81.9446C546.323 69.4446 542.423 59.7446 534.723 52.9446ZM500.423 108.845H464.523V55.6446H500.423C520.823 55.6446 531.023 64.4446 531.023 82.0446C531.023 99.8446 520.723 108.845 500.423 108.845Z" fill="white"/>
<path d="M577.323 42.6445H573.323V166.045C573.323 172.445 578.523 177.645 584.923 177.645H588.923V54.2445C588.923 47.8445 583.723 42.6445 577.323 42.6445Z" fill="white"/>
<path d="M700.823 120.245C696.623 114.645 690.423 110.745 682.323 108.445C688.923 106.145 694.523 101.745 698.423 95.9446C702.323 89.9446 704.423 82.8446 704.223 75.7446C704.223 65.3446 700.623 57.1446 693.523 50.9446C686.323 44.7446 676.723 41.7446 664.523 41.7446C656.723 41.7446 648.923 43.1446 641.623 45.9446C638.523 47.0446 635.523 48.4446 632.623 50.1446C627.123 53.3446 625.223 60.3446 628.423 65.8446C628.523 66.0446 628.723 66.3446 628.923 66.5446L630.123 68.3446C635.123 64.1446 640.823 60.6446 646.823 58.1446C652.323 55.9446 658.223 54.8446 664.123 54.8446C672.023 54.8446 678.023 56.7446 682.323 60.6446C686.623 64.5446 688.823 70.0446 688.823 77.2446C688.823 85.4446 686.123 91.7446 680.823 96.1446C675.523 100.545 667.923 102.745 658.023 102.745H651.023C647.523 102.545 644.523 105.245 644.423 108.745C644.423 108.945 644.423 109.045 644.423 109.245C644.423 110.945 645.023 112.645 646.223 113.945C647.423 115.345 649.223 116.045 651.023 115.945H661.123C681.623 115.945 691.923 124.145 691.923 140.445C691.923 148.545 689.523 154.745 684.623 159.045C679.723 163.345 672.623 165.545 663.223 165.545C657.123 165.545 650.923 164.545 645.223 162.345C639.023 159.845 633.223 156.345 628.123 152.145L626.923 153.945C623.323 159.245 624.723 166.445 630.023 170.045C630.323 170.245 630.623 170.445 630.923 170.545C633.723 172.145 636.723 173.445 639.723 174.545C647.323 177.345 655.323 178.745 663.423 178.745C677.023 178.745 687.723 175.345 695.523 168.645C703.323 161.945 707.323 152.745 707.323 141.145C707.123 132.745 705.023 125.745 700.823 120.245Z" fill="white"/>
<defs>
<linearGradient id="paint0_linear_3255_253" x1="57.7018" y1="218.206" x2="40.1432" y2="51.0897" gradientUnits="userSpaceOnUse">
<stop stop-color="#C3C4C3"/>
<stop offset="0.09" stop-color="#D8D8D8"/>
<stop offset="0.21" stop-color="#E9EAE9"/>
<stop offset="0.36" stop-color="#F6F6F6"/>
<stop offset="0.55" stop-color="#FDFDFD"/>
<stop offset="1" stop-color="white"/>
</linearGradient>
<linearGradient id="paint1_linear_3255_253" x1="221.106" y1="167.215" x2="85.6963" y2="265.602" gradientUnits="userSpaceOnUse">
<stop stop-color="#C3C4C3"/>
<stop offset="0.09" stop-color="#D8D8D8"/>
<stop offset="0.21" stop-color="#E9EAE9"/>
<stop offset="0.36" stop-color="#F6F6F6"/>
<stop offset="0.55" stop-color="#FDFDFD"/>
<stop offset="1" stop-color="white"/>
</linearGradient>
<linearGradient id="paint2_linear_3255_253" x1="94.501" y1="50.8192" x2="249.356" y2="119.763" gradientUnits="userSpaceOnUse">
<stop stop-color="#C3C4C3"/>
<stop offset="0.09" stop-color="#D8D8D8"/>
<stop offset="0.21" stop-color="#E9EAE9"/>
<stop offset="0.36" stop-color="#F6F6F6"/>
<stop offset="0.55" stop-color="#FDFDFD"/>
<stop offset="1" stop-color="white"/>
</linearGradient>
<linearGradient id="paint3_linear_3255_253" x1="76.4324" y1="216.238" x2="62.6239" y2="84.8617" gradientUnits="userSpaceOnUse">
<stop stop-color="#B7B8B8"/>
<stop offset="0.11" stop-color="#C9CACA"/>
<stop offset="0.3" stop-color="#E1E1E1"/>
<stop offset="0.51" stop-color="#F2F2F2"/>
<stop offset="0.73" stop-color="#FCFCFC"/>
<stop offset="1" stop-color="white"/>
</linearGradient>
<linearGradient id="paint4_linear_3255_253" x1="86.5641" y1="68.5849" x2="209.292" y2="123.224" gradientUnits="userSpaceOnUse">
<stop stop-color="#B7B8B8"/>
<stop offset="0.11" stop-color="#C9CACA"/>
<stop offset="0.3" stop-color="#E1E1E1"/>
<stop offset="0.51" stop-color="#F2F2F2"/>
<stop offset="0.73" stop-color="#FCFCFC"/>
<stop offset="1" stop-color="white"/>
</linearGradient>
<linearGradient id="paint5_linear_3255_253" x1="210.276" y1="152.322" x2="102.77" y2="230.427" gradientUnits="userSpaceOnUse">
<stop stop-color="#B7B8B8"/>
<stop offset="0.11" stop-color="#C9CACA"/>
<stop offset="0.3" stop-color="#E1E1E1"/>
<stop offset="0.51" stop-color="#F2F2F2"/>
<stop offset="0.73" stop-color="#FCFCFC"/>
<stop offset="1" stop-color="white"/>
</linearGradient>
<linearGradient id="paint6_linear_3255_253" x1="100.734" y1="205.669" x2="74.1717" y2="113.03" gradientUnits="userSpaceOnUse">
<stop stop-color="#B7B8B8"/>
<stop offset="0.21" stop-color="#CECFCF"/>
<stop offset="0.52" stop-color="#E9E9E9"/>
<stop offset="0.79" stop-color="#F9F9F9"/>
<stop offset="1" stop-color="white"/>
</linearGradient>
<linearGradient id="paint7_linear_3255_253" x1="188.542" y1="136.745" x2="121.714" y2="205.934" gradientUnits="userSpaceOnUse">
<stop stop-color="#B7B8B8"/>
<stop offset="0.21" stop-color="#CECFCF"/>
<stop offset="0.52" stop-color="#E9E9E9"/>
<stop offset="0.79" stop-color="#F9F9F9"/>
<stop offset="1" stop-color="white"/>
</linearGradient>
<linearGradient id="paint8_linear_3255_253" x1="83.9397" y1="95.875" x2="178.756" y2="119.514" gradientUnits="userSpaceOnUse">
<stop stop-color="#B7B8B8"/>
<stop offset="0.21" stop-color="#CECFCF"/>
<stop offset="0.52" stop-color="#E9E9E9"/>
<stop offset="0.79" stop-color="#F9F9F9"/>
<stop offset="1" stop-color="white"/>
</linearGradient>
<linearGradient id="paint9_linear_3255_253" x1="86.6572" y1="118.334" x2="157.124" y2="123.884" gradientUnits="userSpaceOnUse">
<stop stop-color="#ABACAC"/>
<stop offset="0.19" stop-color="#BDBEBE"/>
<stop offset="0.73" stop-color="#EDEDED"/>
<stop offset="1" stop-color="white"/>
</linearGradient>
<linearGradient id="paint10_linear_3255_253" x1="119.396" y1="192.092" x2="88.9671" y2="129.693" gradientUnits="userSpaceOnUse">
<stop stop-color="#ABACAC"/>
<stop offset="0.19" stop-color="#BDBEBE"/>
<stop offset="0.73" stop-color="#EDEDED"/>
<stop offset="1" stop-color="white"/>
</linearGradient>
<linearGradient id="paint11_linear_3255_253" x1="167.814" y1="128.032" x2="128.934" y2="185.662" gradientUnits="userSpaceOnUse">
<stop stop-color="#ABACAC"/>
<stop offset="0.19" stop-color="#BDBEBE"/>
<stop offset="0.73" stop-color="#EDEDED"/>
<stop offset="1" stop-color="white"/>
</linearGradient>
<linearGradient id="paint12_linear_3255_253" x1="95.6813" y1="136.315" x2="140.155" y2="119.694" gradientUnits="userSpaceOnUse">
<stop stop-color="#9FA0A0"/>
<stop offset="0.17" stop-color="#A5A6A6"/>
<stop offset="0.4" stop-color="#B5B6B6"/>
<stop offset="0.66" stop-color="#D0D1D1"/>
<stop offset="0.94" stop-color="#F6F6F6"/>
<stop offset="1" stop-color="white"/>
</linearGradient>
<linearGradient id="paint13_linear_3255_253" x1="130.148" y1="176.45" x2="94.3281" y2="146.389" gradientUnits="userSpaceOnUse">
<stop stop-color="#9FA0A0"/>
<stop offset="0.17" stop-color="#A5A6A6"/>
<stop offset="0.4" stop-color="#B5B6B6"/>
<stop offset="0.66" stop-color="#D0D1D1"/>
<stop offset="0.94" stop-color="#F6F6F6"/>
<stop offset="1" stop-color="white"/>
</linearGradient>
<linearGradient id="paint14_linear_3255_253" x1="148.223" y1="126.574" x2="140.063" y2="172.865" gradientUnits="userSpaceOnUse">
<stop stop-color="#9FA0A0"/>
<stop offset="0.17" stop-color="#A5A6A6"/>
<stop offset="0.4" stop-color="#B5B6B6"/>
<stop offset="0.66" stop-color="#D0D1D1"/>
<stop offset="0.94" stop-color="#F6F6F6"/>
<stop offset="1" stop-color="white"/>
</linearGradient>
</defs>
</svg>
