<svg width="32" height="32" viewBox="0 0 32 32" fill="none" xmlns="http://www.w3.org/2000/svg">
<rect x="4" y="7" width="24" height="14" fill="#FF6F43"/>
<path d="M9.75311 18.4844C9.84999 18.5813 10.0094 18.5813 10.1062 18.4844L13.2875 15.3032L15.9781 17.9969C16.075 18.0938 16.2344 18.0938 16.3312 17.9969L23.4031 10.9188C23.5 10.8219 23.5 10.6625 23.4031 10.5657L22.2531 9.41567C22.1562 9.3188 21.9969 9.3188 21.9 9.41567L16.1562 15.1657L13.4656 12.4719C13.3687 12.375 13.2094 12.375 13.1125 12.4719L8.60311 16.9813C8.50624 17.0782 8.50624 17.2375 8.60311 17.3344L9.75311 18.4844Z" fill="#FFF9F3"/>
<path d="M28.25 5H17.125V3C17.125 2.8625 17.0125 2.75 16.875 2.75H15.125C14.9875 2.75 14.875 2.8625 14.875 3V5H3.75C3.19687 5 2.75 5.44687 2.75 6V22.25C2.75 22.8031 3.19687 23.25 3.75 23.25H14.8875V24.25L9.7375 27.6281C9.62188 27.7031 9.59062 27.8562 9.66562 27.9719L10.6125 29.4469V29.45C10.6875 29.5656 10.8438 29.5969 10.9594 29.5219L16 26.2156L21.0406 29.5219C21.1562 29.5969 21.3125 29.5656 21.3875 29.45V29.4469L22.3344 27.9719C22.4094 27.8562 22.375 27.7031 22.2625 27.6281L17.125 24.2594V23.25H28.25C28.8031 23.25 29.25 22.8031 29.25 22.25V6C29.25 5.44687 28.8031 5 28.25 5ZM27 21H5V7.25H27V21Z" fill="#FFF9F3"/>
</svg>
