<svg width="27" height="27" viewBox="0 0 27 27" fill="none" xmlns="http://www.w3.org/2000/svg">
<g clip-path="url(#clip0_1796_423)">
<path d="M6.23216 20.2247C7.06241 20.9402 7.97703 21.551 8.97772 22.059L7.47753 25.0813C7.39991 25.1741 7.31891 25.2433 7.23453 25.2889C7.15016 25.3344 7.06072 25.3192 6.96959 25.2433C6.89197 25.2433 6.83797 25.1893 6.80759 25.0813L5.81534 23.3972C5.63141 23.0749 5.39178 22.8555 5.09984 22.739C4.80791 22.6243 4.48391 22.5652 4.13122 22.5652L2.12478 22.7272C2.04716 22.7272 1.97459 22.6969 1.90541 22.6344C1.83622 22.572 1.80078 22.496 1.80078 22.4032V22.2412L3.96922 17.8807C4.64759 18.7279 5.40191 19.5092 6.23216 20.2247ZM20.122 17.663C18.3687 19.4248 16.1614 20.336 13.5002 20.3968C10.839 20.336 8.63178 19.4248 6.87847 17.663C5.12516 15.9013 4.21053 13.6991 4.13291 11.0531C4.21053 8.39192 5.12516 6.18129 6.87847 4.41954C8.63178 2.65948 10.839 1.74823 13.5002 1.68579C16.1614 1.74823 18.3687 2.65948 20.122 4.41954C21.8753 6.18129 22.7832 8.39192 22.8439 11.0531C22.7832 13.6991 21.8753 15.9013 20.122 17.663ZM18.3214 9.95792C18.3366 9.87354 18.345 9.79254 18.345 9.71492C18.4227 9.45335 18.4024 9.24917 18.2877 9.10404C18.1729 8.95723 18.0227 8.87792 17.8371 8.86104L16.1766 8.69904C15.8374 8.69904 15.5691 8.62142 15.3683 8.46785C15.1675 8.31429 14.992 8.11348 14.8384 7.86879L14.1702 6.3686C14.0925 6.27579 14.0352 6.19479 13.9963 6.1256C13.9575 6.05642 13.9002 6.02098 13.8225 6.02098C13.6538 5.94335 13.4682 5.93998 13.269 6.00917C13.0682 6.07835 12.9231 6.19817 12.8303 6.36692L12.162 7.8671C12.0085 8.11348 11.8279 8.32104 11.6203 8.48979C11.4128 8.65854 11.1478 8.78173 10.8238 8.85935L9.16334 9.04498C9.08572 9.02979 9.02834 9.03317 8.98953 9.05679C8.95072 9.08042 8.89334 9.12935 8.81572 9.20698C8.47653 9.54616 8.47653 9.87523 8.81572 10.1992L9.99191 11.3754C10.4847 11.7146 10.6534 12.2141 10.4998 12.8756L10.1539 14.5597V14.882C10.3227 15.0508 10.4914 15.1706 10.6618 15.2398C10.8306 15.309 10.9993 15.3056 11.1698 15.228L12.67 14.3741C12.9163 14.2054 13.1897 14.121 13.4884 14.121C13.7871 14.121 14.0689 14.2054 14.3305 14.3741L15.8307 15.39H16.3386C16.5073 15.2972 16.6339 15.179 16.72 15.0322C16.8043 14.8854 16.8465 14.7285 16.8465 14.5597L16.5006 12.8756C16.3318 12.2141 16.5006 11.7146 17.0085 11.3754L18.1847 10.1992C18.2607 10.1233 18.3062 10.0423 18.3214 9.95792ZM25.198 22.0573C25.198 22.1501 25.1625 22.2311 25.0933 22.3003C25.0242 22.3695 24.9432 22.4049 24.8503 22.4049L22.8439 22.2429C22.5047 22.2429 22.1858 22.3155 21.8871 22.4623C21.5884 22.6091 21.3522 22.8116 21.1834 23.0732L20.1912 24.7337C20.176 24.8113 20.1456 24.8602 20.0983 24.8839C20.0511 24.9075 20.0207 24.9193 20.0055 24.9193C19.9279 24.9193 19.8469 24.9075 19.7625 24.8839C19.6782 24.8602 19.5972 24.8113 19.5195 24.7337L17.9974 21.735C19.0133 21.3199 19.9347 20.7849 20.7666 20.1319C21.5968 19.4788 22.3512 18.7279 23.0278 17.8824L25.1963 22.2429V22.0573H25.198Z" fill="#6D6F76"/>
<g clip-path="url(#clip1_1796_423)">
<mask id="mask0_1796_423" style="mask-type:alpha" maskUnits="userSpaceOnUse" x="1" y="1" width="25" height="25">
<path d="M6.23216 20.2247C7.06241 20.9402 7.97703 21.551 8.97772 22.059L7.47753 25.0813C7.39991 25.1741 7.31891 25.2433 7.23453 25.2889C7.15016 25.3344 7.06072 25.3192 6.96959 25.2433C6.89197 25.2433 6.83797 25.1893 6.80759 25.0813L5.81534 23.3972C5.63141 23.0749 5.39178 22.8555 5.09984 22.739C4.80791 22.6243 4.48391 22.5652 4.13122 22.5652L2.12478 22.7272C2.04716 22.7272 1.97459 22.6969 1.90541 22.6344C1.83622 22.572 1.80078 22.496 1.80078 22.4032V22.2412L3.96922 17.8807C4.64759 18.7279 5.40191 19.5092 6.23216 20.2247ZM20.122 17.663C18.3687 19.4248 16.1614 20.336 13.5002 20.3968C10.839 20.336 8.63178 19.4248 6.87847 17.663C5.12516 15.9013 4.21053 13.6991 4.13291 11.0531C4.21053 8.39192 5.12516 6.18129 6.87847 4.41954C8.63178 2.65948 10.839 1.74823 13.5002 1.68579C16.1614 1.74823 18.3687 2.65948 20.122 4.41954C21.8753 6.18129 22.7832 8.39192 22.8439 11.0531C22.7832 13.6991 21.8753 15.9013 20.122 17.663ZM18.3214 9.95792C18.3366 9.87354 18.345 9.79254 18.345 9.71492C18.4227 9.45335 18.4024 9.24917 18.2877 9.10404C18.1729 8.95723 18.0227 8.87792 17.8371 8.86104L16.1766 8.69904C15.8374 8.69904 15.5691 8.62142 15.3683 8.46785C15.1675 8.31429 14.992 8.11348 14.8384 7.86879L14.1702 6.3686C14.0925 6.27579 14.0352 6.19479 13.9963 6.1256C13.9575 6.05642 13.9002 6.02098 13.8225 6.02098C13.6538 5.94335 13.4682 5.93998 13.269 6.00917C13.0682 6.07835 12.9231 6.19817 12.8303 6.36692L12.162 7.8671C12.0085 8.11348 11.8279 8.32104 11.6203 8.48979C11.4128 8.65854 11.1478 8.78173 10.8238 8.85935L9.16334 9.04498C9.08572 9.02979 9.02834 9.03317 8.98953 9.05679C8.95072 9.08042 8.89334 9.12935 8.81572 9.20698C8.47653 9.54617 8.47653 9.87523 8.81572 10.1992L9.99191 11.3754C10.4847 11.7146 10.6534 12.2141 10.4998 12.8756L10.1539 14.5597V14.882C10.3227 15.0508 10.4914 15.1706 10.6618 15.2398C10.8306 15.309 10.9993 15.3056 11.1698 15.228L12.67 14.3741C12.9163 14.2054 13.1897 14.121 13.4884 14.121C13.7871 14.121 14.0689 14.2054 14.3305 14.3741L15.8307 15.39H16.3386C16.5073 15.2972 16.6339 15.179 16.72 15.0322C16.8043 14.8854 16.8465 14.7285 16.8465 14.5597L16.5006 12.8756C16.3318 12.2141 16.5006 11.7146 17.0085 11.3754L18.1847 10.1992C18.2607 10.1233 18.3062 10.0423 18.3214 9.95792ZM25.198 22.0573C25.198 22.1501 25.1625 22.2311 25.0933 22.3003C25.0242 22.3695 24.9432 22.4049 24.8503 22.4049L22.8439 22.2429C22.5047 22.2429 22.1858 22.3155 21.8871 22.4623C21.5884 22.6091 21.3522 22.8116 21.1834 23.0732L20.1912 24.7337C20.176 24.8113 20.1456 24.8602 20.0983 24.8839C20.0511 24.9075 20.0207 24.9193 20.0055 24.9193C19.9279 24.9193 19.8469 24.9075 19.7625 24.8839C19.6782 24.8602 19.5972 24.8113 19.5195 24.7337L17.9974 21.735C19.0133 21.3199 19.9347 20.7849 20.7666 20.1319C21.5968 19.4788 22.3512 18.7279 23.0278 17.8824L25.1963 22.2429V22.0573H25.198Z" fill="#6D6F76"/>
</mask>
<g mask="url(#mask0_1796_423)">
<g filter="url(#filter0_d_1796_423)">
<circle cx="7.5" cy="9.5" r="5.5" fill="#FF6F43"/>
</g>
</g>
</g>
</g>
<defs>
<filter id="filter0_d_1796_423" x="-2" y="4" width="19" height="19" filterUnits="userSpaceOnUse" color-interpolation-filters="sRGB">
<feFlood flood-opacity="0" result="BackgroundImageFix"/>
<feColorMatrix in="SourceAlpha" type="matrix" values="0 0 0 0 0 0 0 0 0 0 0 0 0 0 0 0 0 0 127 0" result="hardAlpha"/>
<feOffset dy="4"/>
<feGaussianBlur stdDeviation="2"/>
<feComposite in2="hardAlpha" operator="out"/>
<feColorMatrix type="matrix" values="0 0 0 0 0 0 0 0 0 0 0 0 0 0 0 0 0 0 0.25 0"/>
<feBlend mode="normal" in2="BackgroundImageFix" result="effect1_dropShadow_1796_423"/>
<feBlend mode="normal" in="SourceGraphic" in2="effect1_dropShadow_1796_423" result="shape"/>
</filter>
<clipPath id="clip0_1796_423">
<rect width="27" height="27" fill="white"/>
</clipPath>
<clipPath id="clip1_1796_423">
<rect width="27" height="27" fill="white"/>
</clipPath>
</defs>
</svg>
