<svg width="60" height="60" viewBox="0 0 60 60" fill="none" xmlns="http://www.w3.org/2000/svg">
<rect x="0.5" y="0.5" width="59" height="59" rx="15.5" stroke="#6D6F76"/>
<path d="M23.5432 16.8444C24.5839 16.3773 25.6665 17.2118 25.6665 18.3525C25.6665 19.0906 25.1948 19.7357 24.535 20.0664C21.2538 21.7109 18.9998 25.0856 18.9998 29.0001C18.9998 31.9501 20.2998 34.5668 22.3332 36.4001V34.0001C22.3332 33.0796 23.0794 32.3334 23.9998 32.3334C24.9203 32.3334 25.6665 33.0796 25.6665 34.0001V40.3334C25.6665 41.438 24.7711 42.3334 23.6665 42.3334H17.3332C16.4127 42.3334 15.6665 41.5872 15.6665 40.6668C15.6665 39.7463 16.4127 39.0001 17.3332 39.0001H20.2165C18.7863 37.7562 17.64 36.2197 16.855 34.4945C16.07 32.7692 15.6647 30.8955 15.6665 29.0001C15.6665 23.5771 18.9006 18.9278 23.5432 16.8444Z" fill="#FF6F43"/>
<path fill-rule="evenodd" clip-rule="evenodd" d="M28 37.5C28 32.808 31.808 29 36.5 29C41.192 29 45 32.808 45 37.5C45 42.192 41.192 46 36.5 46C31.808 46 28 42.192 28 37.5ZM40.08 41.2799C40.4213 40.7999 40.592 40.2666 40.592 39.6799L40.576 39.4239C40.4906 38.2292 39.9893 37.3545 39.072 36.7999C38.8906 36.7039 38.5386 36.6079 38.016 36.5119L38.48 34.3039C38.7893 34.4319 39.0186 34.5492 39.168 34.6559C39.232 34.7199 39.3226 34.7519 39.44 34.7519C39.5893 34.7519 39.6906 34.6505 39.744 34.4479L40.144 32.9759C40.176 32.9119 40.192 32.8479 40.192 32.7839C40.192 32.6345 40.1066 32.5172 39.936 32.4319C39.5413 32.2719 39.2053 32.1599 38.928 32.0959L39.04 31.5839C39.0613 31.5199 39.0506 31.4612 39.008 31.4079C38.976 31.3545 38.912 31.3225 38.816 31.3119L37.44 31.0719C37.3546 31.0505 37.28 31.0559 37.216 31.0879C37.1626 31.1092 37.136 31.1572 37.136 31.2319L37.008 31.8399C36.7626 31.8399 36.576 31.8452 36.448 31.8559C35.7866 31.8879 35.1893 32.0479 34.656 32.3359C34.1333 32.6132 33.7173 32.9919 33.408 33.4719C33.1093 33.9412 32.96 34.4692 32.96 35.0559C32.96 35.8345 33.216 36.4745 33.728 36.9759C34.2506 37.4772 34.928 37.8452 35.76 38.0799L35.28 40.4799C34.6933 40.3199 34.2666 40.1385 34 39.9359C33.8933 39.8825 33.808 39.8559 33.744 39.8559C33.584 39.8559 33.472 39.9572 33.408 40.1599L32.976 41.6319C32.9653 41.6639 32.96 41.7119 32.96 41.7759C32.96 41.9679 33.0453 42.1065 33.216 42.1919C33.984 42.4692 34.5226 42.6505 34.832 42.7359L34.704 43.3759C34.6826 43.4399 34.688 43.4879 34.72 43.5199C34.7626 43.5625 34.8266 43.5839 34.912 43.5839L36.24 43.7759C36.336 43.7759 36.4106 43.7599 36.464 43.7279C36.528 43.6959 36.56 43.6479 36.56 43.5839L36.688 42.9599H36.864C37.5253 42.9065 38.1386 42.7305 38.704 42.4319C39.28 42.1439 39.7386 41.7599 40.08 41.2799ZM36.144 36.2079C35.7813 36.0372 35.6 35.6852 35.6 35.1519C35.6 34.5332 35.9253 34.1705 36.576 34.0639L36.144 36.2079ZM38.224 39.5839C38.224 40.1812 37.872 40.5332 37.168 40.6399L37.616 38.4799C38.0213 38.6612 38.224 39.0292 38.224 39.5839Z" fill="#6D6F76"/>
<path d="M37.783 19.0001H40.6663C41.5868 19.0001 42.333 18.2539 42.333 17.3334C42.333 16.4129 41.5868 15.6667 40.6663 15.6667H34.333C33.2284 15.6667 32.333 16.5622 32.333 17.6667V24.0001C32.333 24.9206 33.0792 25.6667 33.9997 25.6667C34.9201 25.6667 35.6663 24.9206 35.6663 24.0001V21.6001C36.9553 22.7707 37.9536 24.2526 38.5057 25.9395C38.7638 26.728 39.457 27.3334 40.2867 27.3334C41.3107 27.3334 42.1101 26.4298 41.8358 25.4433C41.1452 22.96 39.7431 20.7162 37.783 19.0001Z" fill="#6D6F76"/>
</svg>
