<svg width="15" height="15" viewBox="0 0 15 15" fill="none" xmlns="http://www.w3.org/2000/svg">
<path fill-rule="evenodd" clip-rule="evenodd" d="M13.3839 3.38388C13.872 2.89573 13.872 2.10427 13.3839 1.61612C12.8957 1.12796 12.1043 1.12796 11.6161 1.61612L7.5 5.73223L3.38388 1.61612C2.89573 1.12796 2.10427 1.12796 1.61612 1.61612C1.12796 2.10427 1.12796 2.89573 1.61612 3.38388L5.73223 7.5L1.61612 11.6161C1.12796 12.1043 1.12796 12.8957 1.61612 13.3839C2.10427 13.872 2.89573 13.872 3.38388 13.3839L7.5 9.26777L11.6161 13.3839C12.1043 13.872 12.8957 13.872 13.3839 13.3839C13.872 12.8957 13.872 12.1043 13.3839 11.6161L9.26777 7.5L13.3839 3.38388Z" fill="white"/>
</svg>
