<svg width="1em" height="1em" viewBox="0 0 15 14" fill="none" xmlns="http://www.w3.org/2000/svg" class="_WarningIcon_nuhlc_5"><path id="Subtract" fill-rule="evenodd" clip-rule="evenodd" d="M6.41009 1.01161C6.79398 0.339798 7.76268 0.339798 8.14657 1.01161L14.4234 11.996C14.8043 12.6627 14.323 13.4922 13.5552 13.4922H1.00151C0.233688 13.4922 -0.24768 12.6627 0.133267 11.996L6.41009 1.01161ZM6.27833 5.49219C6.27833 4.9399 6.72605 4.49219 7.27833 4.49219C7.83062 4.49219 8.27833 4.9399 8.27833 5.49219V7.49219C8.27833 8.04447 7.83062 8.49219 7.27833 8.49219C6.72605 8.49219 6.27833 8.04447 6.27833 7.49219V5.49219ZM6.27833 10.4922C6.27833 9.9399 6.72605 9.49219 7.27833 9.49219C7.83062 9.49219 8.27833 9.9399 8.27833 10.4922C8.27833 11.0445 7.83062 11.4922 7.27833 11.4922C6.72605 11.4922 6.27833 11.0445 6.27833 10.4922Z" fill="#FFAB00"></path></svg>