<svg width="128" height="97" viewBox="0 0 128 97" fill="none" xmlns="http://www.w3.org/2000/svg">
<path d="M2.26075 46.0315L31.7545 55.5139L43.1705 87.1392C43.901 89.1646 46.7763 89.9134 48.6848 88.5694L65.125 77.0243C66.8483 75.8147 69.303 75.7544 71.104 76.8807L100.757 95.4253C102.798 96.7036 105.691 95.74 106.203 93.6149L127.925 3.609C128.484 1.28772 125.836 -0.648941 123.27 0.206007L2.22625 40.4291C-0.760756 41.4214 -0.734756 45.0643 2.26075 46.0315ZM41.3308 50.466L98.9726 19.8847C100.009 19.3366 101.074 20.5432 100.185 21.2541L52.6135 59.3454C50.9415 60.6862 49.8628 62.4805 49.5573 64.4282L47.9368 74.7728C47.7223 76.1541 45.4698 76.2911 45.0273 74.9544L38.795 56.0906C38.0813 53.9388 39.1215 51.6407 41.3308 50.466Z" fill="#FF6F43"/>
</svg>
