<svg width="31" height="31" viewBox="0 0 31 31" fill="none" xmlns="http://www.w3.org/2000/svg">
<path d="M15.5 0C6.95276 0 0 6.95276 0 15.5C0 18.6061 0.915174 21.6036 2.6478 24.1672C2.96117 24.6295 3.58791 24.7515 4.05157 24.4395C4.51387 24.1268 4.63585 23.498 4.32315 23.0357C2.81763 20.8071 2.02174 18.2017 2.02174 15.5C2.02174 8.06809 8.06809 2.02174 15.5 2.02174C22.9319 2.02174 28.9783 8.06809 28.9783 15.5C28.9783 22.9319 22.9319 28.9783 15.5 28.9783C12.7343 28.9783 10.0784 28.148 7.81807 26.5764C7.35913 26.257 6.72835 26.3702 6.41093 26.8292C6.09217 27.2874 6.20539 27.9175 6.66365 28.2356C9.26428 30.0444 12.3198 31 15.5 31C24.0472 31 31 24.0472 31 15.5C31 6.95276 24.0472 0 15.5 0ZM15.5001 20.7654C14.3835 20.7654 13.4784 21.6705 13.4784 22.7872C13.4784 23.9038 14.3835 24.8089 15.5001 24.8089C16.6168 24.8089 17.5219 23.9038 17.5219 22.7872C17.5219 21.6705 16.6168 20.7654 15.5001 20.7654ZM15.5001 6.5282C14.0115 6.5282 12.8045 7.73517 12.8045 9.22385C12.8045 9.33909 12.8247 9.44961 12.8389 9.5608H12.8186L13.8416 17.8162H13.845C13.9852 18.6061 14.6705 19.2065 15.5001 19.2065C16.3297 19.2065 17.0158 18.6061 17.1553 17.8162H17.1586L18.1749 9.5608H18.1621C18.1756 9.44961 18.1958 9.33909 18.1958 9.22385C18.1958 7.73517 16.9888 6.5282 15.5001 6.5282Z" fill="#FF6F43"/>
</svg>
