<svg width="16" height="16" viewBox="0 0 16 16" fill="none" xmlns="http://www.w3.org/2000/svg">
<g id="mdi:information-outline">
<path id="Vector" d="M7.33333 6.00004H8.66666V4.66671H7.33333M7.99999 13.3334C5.05999 13.3334 2.66666 10.94 2.66666 8.00004C2.66666 5.06004 5.05999 2.66671 7.99999 2.66671C10.94 2.66671 13.3333 5.06004 13.3333 8.00004C13.3333 10.94 10.94 13.3334 7.99999 13.3334ZM7.99999 1.33337C7.12452 1.33337 6.25761 1.50581 5.44877 1.84084C4.63993 2.17588 3.90501 2.66694 3.28595 3.286C2.03571 4.53624 1.33333 6.23193 1.33333 8.00004C1.33333 9.76815 2.03571 11.4638 3.28595 12.7141C3.90501 13.3331 4.63993 13.8242 5.44877 14.1592C6.25761 14.4943 7.12452 14.6667 7.99999 14.6667C9.7681 14.6667 11.4638 13.9643 12.714 12.7141C13.9643 11.4638 14.6667 9.76815 14.6667 8.00004C14.6667 7.12456 14.4942 6.25765 14.1592 5.44882C13.8242 4.63998 13.3331 3.90505 12.714 3.286C12.095 2.66694 11.3601 2.17588 10.5512 1.84084C9.74238 1.50581 8.87547 1.33337 7.99999 1.33337ZM7.33333 11.3334H8.66666V7.33337H7.33333V11.3334Z" fill="#6D6F76"/>
</g>
</svg>
