<svg width="12" height="12" viewBox="0 0 12 12" fill="none" xmlns="http://www.w3.org/2000/svg">
<path d="M2.33258 2.02925C2.37384 1.94539 2.43778 1.87478 2.51714 1.82542C2.59651 1.77606 2.68812 1.74993 2.78158 1.75H9.21908C9.31245 1.75002 9.40395 1.7762 9.48322 1.82555C9.56249 1.8749 9.62635 1.94547 9.66758 2.02925L10.9491 4.6335C10.9935 4.72396 11.0096 4.82574 10.9952 4.92549C10.9808 5.02525 10.9366 5.11832 10.8683 5.1925L6.36833 10.0883C6.3215 10.1392 6.26461 10.1798 6.20127 10.2076C6.13792 10.2354 6.0695 10.2498 6.00033 10.2498C5.93115 10.2498 5.86273 10.2354 5.79939 10.2076C5.73604 10.1798 5.67916 10.1392 5.63233 10.0883L1.13233 5.1925C1.06413 5.11829 1.01996 5.02521 1.00559 4.92545C0.991229 4.8257 1.00734 4.72393 1.05183 4.6335L2.33258 2.02925ZM3.09258 2.75L2.10008 4.76775L6.00008 9.01125L9.90033 4.7675L8.90758 2.75H3.09258Z" fill="#FF6F43"/>
<path d="M4.78394 4.54376L6.0002 5.88176L7.21669 4.54376L7.95669 5.21626L6.37019 6.96126C6.32333 7.01282 6.26621 7.05402 6.20249 7.08221C6.13878 7.1104 6.06987 7.12496 6.0002 7.12496C5.93052 7.12496 5.86162 7.1104 5.7979 7.08221C5.73418 7.05402 5.67706 7.01282 5.6302 6.96126L4.04395 5.21626L4.78394 4.54376Z" fill="white"/>
</svg>
