<svg width="120" height="69" viewBox="0 0 120 69" fill="none" xmlns="http://www.w3.org/2000/svg">
<path d="M33.8442 0C52.5359 0 67.6872 15.2571 67.6872 34.0764C67.6872 52.8958 52.5347 68.1517 33.8442 68.1517C15.1536 68.1517 0 52.8958 0 34.0764C0 15.2571 15.1525 0 33.8442 0ZM87.8909 1.99611C97.2368 1.99611 104.813 16.3575 104.813 34.0764H104.814C104.814 51.7908 97.2379 66.1568 87.8921 66.1568C78.5462 66.1568 70.97 51.7908 70.97 34.0764C70.97 16.3621 78.5451 1.99611 87.8909 1.99611ZM114.048 5.33752C117.335 5.33752 120 18.2042 120 34.0764C120 49.9441 117.336 62.8154 114.048 62.8154C110.761 62.8154 108.098 49.9476 108.098 34.0764C108.098 18.2053 110.762 5.33752 114.048 5.33752Z" fill="#FF6F43"/>
</svg>
