<svg width="32" height="32" viewBox="0 0 32 32" fill="none" xmlns="http://www.w3.org/2000/svg">
<rect x="7" y="5" width="18" height="22" rx="6" fill="#FF6F43"/>
<path d="M16 29.3334C21.3013 29.3334 26.6667 27.5014 26.6667 24.0001V8.00008C26.6667 4.49875 21.3013 2.66675 16 2.66675C10.6987 2.66675 5.33334 4.49875 5.33334 8.00008V24.0001C5.33334 27.5014 10.6987 29.3334 16 29.3334ZM16 26.6667C11.0373 26.6667 8 24.9401 8 24.0001V22.3094C10.0547 23.4267 13.036 24.0001 16 24.0001C18.964 24.0001 21.9453 23.4267 24 22.3094V24.0001C24 24.9401 20.9627 26.6667 16 26.6667ZM16 5.33341C20.9627 5.33341 24 7.06008 24 8.00008C24 8.94008 20.9627 10.6667 16 10.6667C11.0373 10.6667 8 8.94008 8 8.00008C8 7.06008 11.0373 5.33341 16 5.33341ZM8 11.6427C10.0547 12.7601 13.036 13.3334 16 13.3334C18.964 13.3334 21.9453 12.7601 24 11.6427V13.3334C24 14.2734 20.9627 16.0001 16 16.0001C11.0373 16.0001 8 14.2734 8 13.3334V11.6427ZM8 16.9761C10.0547 18.0934 13.036 18.6667 16 18.6667C18.964 18.6667 21.9453 18.0934 24 16.9761V18.6667C24 19.6067 20.9627 21.3334 16 21.3334C11.0373 21.3334 8 19.6067 8 18.6667V16.9761Z" fill="#FFF9F3"/>
</svg>
