<svg width="9" height="13" viewBox="0 0 9 13" fill="none" xmlns="http://www.w3.org/2000/svg">
<circle cx="3.9375" cy="8.4375" r="2.8125" fill="#FFFEFD"/>
<path d="M9 7.44047V8.02755C8.99121 8.05612 8.98047 8.08465 8.9746 8.11386C8.91434 8.42414 8.88041 8.74252 8.7895 9.04366C8.51992 9.93226 8.01474 10.6728 7.30653 11.2774C6.76031 11.7441 6.14562 12.0803 5.44291 12.2458C5.21185 12.3003 4.97492 12.3325 4.74056 12.375H4.15129C4.12259 12.3662 4.09323 12.3529 4.06395 12.3509C3.4417 12.3124 2.85211 12.151 2.29904 11.8696C1.25347 11.3394 0.499283 10.5498 0.154826 9.41393C0.0814594 9.17119 0.0508749 8.91672 0 8.66754V8.10737C0.0221771 7.96974 0.0413753 7.8309 0.0674913 7.69333C0.17894 7.09228 0.447183 6.56005 0.802414 6.0687C1.13749 5.60624 1.49338 5.15842 1.81114 4.68424C2.15467 4.16991 2.32088 3.599 2.22347 2.97303C2.20427 2.84937 2.1863 2.72573 2.16742 2.60271C2.18009 2.59948 2.19282 2.59691 2.20556 2.5933C2.97243 3.39358 3.09726 4.37596 2.98774 5.43753C3.01581 5.40767 3.03927 5.38687 3.05718 5.36286C3.70806 4.48631 3.98766 3.51795 3.77549 2.43332C3.64064 1.74338 3.34888 1.12315 2.86621 0.607526C2.6566 0.384248 2.40304 0.201558 2.16933 0H2.41054C2.4304 0.00810782 2.44901 0.0220823 2.46917 0.0240103C2.89353 0.0603142 3.29216 0.190797 3.6719 0.374196C4.5404 0.792819 5.24442 1.41168 5.83337 2.16658C6.69903 3.27739 7.26191 4.50966 7.37337 5.92849C7.41611 6.47012 7.36063 6.9965 7.21564 7.51578C7.16087 7.71245 7.08362 7.9026 7.0129 8.10736C7.2938 7.98826 7.50733 7.80623 7.67225 7.5703C8.16411 6.8651 8.3016 6.07872 8.19016 5.20937C8.22637 5.25121 8.24492 5.26776 8.25758 5.28849C8.55386 5.75454 8.77548 6.25169 8.8912 6.79203C8.93716 7.0059 8.96385 7.22469 9 7.44047ZM4.36669 6.40653C4.35563 6.41432 4.34354 6.42243 4.33217 6.43022C4.31684 6.64445 4.3054 6.85895 4.28458 7.07311C4.25393 7.39993 4.17539 7.71503 4.02185 8.00812C3.83411 8.36705 3.5203 8.5903 3.17248 8.76785C2.79739 8.96057 2.56111 9.23582 2.53046 9.67035C2.49853 10.1172 2.63345 10.4926 2.99522 10.7673C3.33418 11.0242 3.73016 11.1081 4.14992 11.0941C4.82006 11.0723 5.31934 10.7552 5.5195 10.0874C5.66322 9.60804 5.63975 9.12545 5.54362 8.64292C5.41224 7.98149 5.17168 7.36493 4.76007 6.82459C4.64442 6.67361 4.49838 6.54543 4.36669 6.40653Z" fill="#FF6F43"/>
</svg>
