<svg width="1024" height="1024" viewBox="0 0 1024 1024" fill="none" xmlns="http://www.w3.org/2000/svg">
<g clip-path="url(#clip0_2285_1334)">
<path d="M1048.32 -135.396H-115.125V1075.88H1048.32V-135.396Z" fill="url(#paint0_linear_2285_1334)"/>
<path d="M-115.125 630.801L163.029 670.448L26.8263 459.061L-115.125 596.01V630.801Z" fill="#FF7CD9"/>
<path d="M-115.125 630.804V643.45L117.628 770.341L163.029 670.451L-115.125 630.804Z" fill="#FF4141"/>
<path d="M117.629 770.34L301.301 723.89L163.03 670.449L117.629 770.34Z" fill="#F4E66A"/>
<path d="M-33.7529 1075.88L142.397 1004.94L-115.125 667.489V1075.88H-33.7529Z" fill="#EE10CA"/>
<path d="M101.452 1075.88L142.394 1004.94L-33.7559 1075.88H101.452Z" fill="#7E40E5"/>
<path d="M-115.125 667.495L142.397 1004.95L117.628 770.347L-115.125 643.456V667.495Z" fill="#DF7DB8"/>
<path d="M414.801 742.461L652.147 791.232L563.388 180.336L414.801 742.461Z" fill="url(#paint1_linear_2285_1334)"/>
<path d="M26.8262 459.065L163.028 670.452L78.4057 391.725L26.8262 459.065Z" fill="#F4E66A"/>
<path d="M-115.125 434.809V596.01L26.8263 459.061L-115.125 434.809Z" fill="#F4E66A"/>
<path d="M563.389 180.336L652.148 791.232L885.331 596.12L563.389 180.336Z" fill="#FF4141"/>
<path d="M563.389 180.336L689.275 -68.2168L885.331 596.12L563.389 180.336Z" fill="#FF4141"/>
<path d="M652.146 791.232L885.329 596.12L792.459 781.948L652.146 791.232Z" fill="#F4E66A"/>
<path d="M885.331 596.119L1046.3 925.966L792.461 781.947L885.331 596.119Z" fill="#FF4141"/>
<path d="M652.146 791.228L792.459 781.943L829.613 900.403L652.146 791.228Z" fill="#5873FF"/>
<path d="M858.358 1075.88L829.614 900.409L791.762 1075.88H858.358Z" fill="#893CE3"/>
<path d="M792.461 781.943L1046.3 925.963L829.614 900.403L792.461 781.943Z" fill="#FF4141"/>
<path d="M1007.24 1075.88L829.613 900.409L858.358 1075.88H1007.24Z" fill="#F4E66A"/>
<path d="M90.8691 -135.396L563.386 180.337L689.273 -68.2158L352.662 -135.396H90.8691Z" fill="#F4E66A"/>
<path d="M-42.8867 -135.396L-115.125 -83.05V434.812L26.8263 459.065L-32.329 -135.396H-42.8867Z" fill="#4EB474"/>
<path d="M-19.8359 -135.396L563.389 180.337L90.8721 -135.396H-19.8359Z" fill="#FF4141"/>
<path d="M-32.3281 -135.396L26.8272 459.065L78.4068 391.724L-31.5491 -135.396H-32.3281Z" fill="#FF4141"/>
<path d="M302.103 1075.88L390.03 1039.79L142.394 1004.94L101.453 1075.88H302.103Z" fill="#8FB3FF"/>
<path d="M414.798 742.465L652.145 791.236L390.029 1039.79L414.798 742.465Z" fill="url(#paint2_linear_2285_1334)"/>
<path d="M652.145 791.229L829.611 900.405L390.029 1039.78L652.145 791.229Z" fill="#EE10CA"/>
<path d="M791.759 1075.88L829.611 900.409L390.029 1039.79L417.028 1075.88H791.759Z" fill="#FF4141"/>
<path d="M117.629 770.344L142.398 1004.94L295.122 849.317L117.629 770.344Z" fill="#F4E66A"/>
<path d="M117.629 770.343L301.301 723.893L295.122 849.316L117.629 770.343Z" fill="#8FB3FF"/>
<path d="M142.395 1004.94L390.03 1039.78L295.118 849.311L142.395 1004.94Z" fill="#FF7CD9"/>
<path d="M301.302 723.893L414.804 742.462L295.123 849.316L301.302 723.893Z" fill="#4EB474"/>
<path d="M390.035 1039.79L414.804 742.465L295.123 849.319L390.035 1039.79Z" fill="url(#paint3_linear_2285_1334)"/>
<path d="M1017.34 1075.88L1035.99 1000.3L829.613 900.409L1007.24 1075.88H1017.34Z" fill="#4EB474"/>
<path d="M829.613 900.409L1046.3 925.969L1035.99 1000.3L829.613 900.409Z" fill="#EE10CA"/>
<path d="M1035.75 1075.89L1035.99 1000.3L1017.34 1075.89H1035.75Z" fill="url(#paint4_linear_2285_1334)"/>
<path d="M1048.32 -50.6346L689.273 -68.2168L885.33 596.12L1048.32 142.477V-50.6346Z" fill="#0ED3FF"/>
<path d="M1048.32 142.474L885.332 596.117L1046.3 925.964L1048.32 898.216V142.474Z" fill="#4EB474"/>
<path d="M-31.5508 -135.396L78.4051 391.724L231.129 366.164L-29.321 -135.396H-31.5508Z" fill="#4EB474"/>
<path d="M-29.3223 -135.396L231.128 366.164L563.386 180.337L-19.8391 -135.396H-29.3223Z" fill="#FF7CD9"/>
<path d="M78.4043 391.719L163.027 670.447L231.128 366.159L78.4043 391.719Z" fill="#F4E66A"/>
<path d="M163.025 670.447L301.296 723.887L231.127 366.159L163.025 670.447Z" fill="#0ED3FF"/>
<path d="M301.301 723.887L414.802 742.456L231.131 366.159L301.301 723.887Z" fill="url(#paint5_linear_2285_1334)"/>
<path d="M414.802 742.461L563.389 180.336L231.131 366.163L414.802 742.461Z" fill="url(#paint6_linear_2285_1334)"/>
<path d="M639.497 742.036C691.28 770.3 794.862 903.087 798.066 1005.2C801.27 1107.31 761.717 1119.57 719.305 1113.07C711.865 1109.34 701.984 1110.14 698.676 1095.05" fill="white"/>
<path d="M639.497 742.036C691.28 770.3 794.862 903.087 798.066 1005.2C801.27 1107.31 761.717 1119.57 719.305 1113.07C711.865 1109.34 701.984 1110.14 698.676 1095.05" stroke="#4D64F1" stroke-width="14.1892" stroke-linecap="round"/>
<mask id="mask0_2285_1334" style="mask-type:luminance" maskUnits="userSpaceOnUse" x="627" y="740" width="165" height="369">
<path d="M627.427 740.167C678.268 766.409 783.062 895.092 790.293 997.012C797.524 1098.93 760.052 1112.69 719.093 1107.84C711.802 1104.39 702.355 1105.58 698.568 1090.64" fill="white"/>
</mask>
<g mask="url(#mask0_2285_1334)">
<path d="M770.487 960.926C770.487 960.926 768.181 959.305 764.169 957.343C750.022 950.444 714.616 939.323 683.073 979.63C642.563 1031.4 659.779 1273.87 773.885 1188.73C887.977 1103.63 868.126 976.76 868.126 976.76L876.988 833.566L844.786 872.848" fill="white"/>
</g>
<path d="M494.087 1282.67C374.183 1282.67 276.982 1149.08 276.982 984.295C276.982 819.508 374.183 685.923 494.087 685.923C613.99 685.923 711.191 819.508 711.191 984.295C711.191 1149.08 613.99 1282.67 494.087 1282.67Z" fill="white"/>
<path d="M363.572 710.033C315.382 734.684 166.543 892.315 165.436 999.588C163.609 1176.43 286.009 1116.32 277.341 1085.7C277.341 1085.7 293.539 1047.28 291.054 1036.28C288.569 1025.28 271.368 944.547 296.339 913.16" fill="white"/>
<mask id="mask1_2285_1334" style="mask-type:luminance" maskUnits="userSpaceOnUse" x="165" y="710" width="199" height="411">
<path d="M363.578 710.031C315.388 734.682 166.549 892.313 165.441 999.586C163.615 1176.43 286.015 1116.31 277.347 1085.7C277.347 1085.7 293.545 1047.28 291.06 1036.28C288.575 1025.28 271.374 944.545 296.345 913.158" fill="white"/>
</mask>
<g mask="url(#mask1_2285_1334)">
<path d="M120.78 985.802C120.78 985.802 121.888 985.624 123.879 985.341C139.059 983.171 205.469 975.142 221.683 997.964C240.037 1023.78 293.542 981.268 293.542 981.268C293.542 981.268 391.39 1162.72 236.968 1164.99C82.5452 1167.27 77.9642 1045.79 77.9642 1045.79" fill="white"/>
</g>
<path d="M363.572 710.033C315.382 734.684 166.543 892.315 165.436 999.588C163.609 1176.43 286.009 1116.32 277.341 1085.7" stroke="#4D64F1" stroke-width="14.8245" stroke-linecap="round"/>
<path d="M625.087 757.853C645.088 788.867 725.677 952 702.06 1069.76C686.311 1215.62 668.301 1209.32 675.801 1230.61C678.062 1239.02 681.37 1238.64 694.125 1248.89C704.32 1257.1 704.305 1295.52 702.06 1310.24H520.525" fill="white"/>
<path d="M625.087 757.853C645.088 788.867 725.677 952 702.06 1069.76C686.311 1215.62 668.301 1209.32 675.801 1230.61C678.062 1239.02 681.37 1238.64 694.125 1248.89C704.32 1257.1 704.305 1295.52 702.06 1310.24H520.525" stroke="#FF4141" stroke-width="14.8245" stroke-linecap="round"/>
<path d="M378.356 757.852C357.846 780.168 307.253 878.161 287.042 944.13L378.356 757.852ZM495.09 1128.92L488.817 1242.87C461.031 1239.19 447.423 1240.36 482.933 1247.62C544.897 1260.27 527.711 1295.63 519.207 1311.71H287.042C287.042 1239.93 282.476 1173.68 282.476 1079.01" fill="white"/>
<path d="M378.356 757.852C357.846 780.168 307.253 878.161 287.042 944.13M495.09 1128.93L488.817 1242.87C461.031 1239.19 447.423 1240.36 482.933 1247.62C544.897 1260.27 527.711 1295.63 519.207 1311.71H287.042C287.042 1239.93 282.476 1173.68 282.476 1079.01" stroke="#FF4141" stroke-width="14.8245" stroke-linecap="round" stroke-linejoin="round"/>
<path d="M759.578 1040.71C752.856 1051.03 735.43 1068.77 719.606 1057.17C715.28 1050.12 710.669 1033.12 726.732 1021.41" fill="white"/>
<path d="M759.578 1040.71C752.856 1051.03 735.43 1068.77 719.606 1057.17C715.28 1050.12 710.669 1033.12 726.732 1021.41" stroke="#FF4141" stroke-width="14.1892" stroke-linecap="round" stroke-linejoin="round"/>
<path d="M287.237 943.757C285.95 953.243 280.44 974.088 280.68 981.061C281.623 1007.91 312.478 1028.03 289.123 1071.58C282.701 1081.76 268.644 1099.38 257.73 1070.89L258.943 1041.99" stroke="#FF4141" stroke-width="14.8245" stroke-linecap="round"/>
<path d="M808.386 364.961C808.346 364.761 808.252 364.658 808.311 364.462C809.881 357.899 853.902 173.735 798.642 89.1494C798.316 88.6882 797.827 88.5165 797.32 88.6907C787.247 93.0199 683.312 138.785 652.67 191.527C652.342 192.105 651.637 192.27 651.053 191.995C644.402 188.561 604.34 171.116 480.046 175.55C349.785 180.842 316.706 200.332 310.811 204.759C310.242 205.178 309.351 205.086 308.933 204.472C274.424 154.301 167.648 116.667 157.269 113.106C156.73 112.932 156.27 113.158 155.998 113.641C107.103 202.175 164.493 382.509 166.517 388.895C166.556 389.095 166.551 389.194 166.492 389.389C125.527 555.073 163.343 633.981 163.754 634.743C163.754 634.743 163.754 634.743 163.751 634.793C217.821 728.337 354.915 761.012 439.392 772.381C487.021 778.791 535.377 776.566 582.171 765.649C661.356 747.148 783.077 704.155 828.883 609.63C828.993 609.437 829.05 609.291 829.109 609.095C831.149 604.09 859.98 522.583 808.386 364.961Z" fill="white"/>
<path d="M805.666 365.17C805.576 364.967 805.532 364.866 805.591 364.671C807.159 358.11 848.958 182.91 799.759 95.8468C798.341 93.3034 790.344 90.8442 786.88 92.413C759.979 104.705 676.739 145.571 649.91 191.788C649.583 192.366 648.877 192.531 648.293 192.256C641.64 188.82 601.562 171.369 477.239 175.77C346.947 181.027 313.865 200.503 307.97 204.928C307.401 205.346 306.509 205.255 306.091 204.64C279.183 165.53 208.322 134.04 173.487 120.354C166.794 117.709 158.472 119.84 155.294 121.67C152.166 123.502 146.033 128.708 144.116 134.262C112.245 227.234 161.667 382.547 163.691 388.981C163.731 389.181 163.726 389.28 163.664 389.525C122.735 555.159 160.583 634.057 160.993 634.819C160.993 634.819 160.993 634.82 160.991 634.869C215.1 728.405 352.237 761.108 436.736 772.546C484.379 778.966 532.746 776.755 579.549 765.853C658.646 747.421 780.031 704.602 826.006 610.417C826.227 609.982 826.505 609.401 826.628 608.912C829.787 600.395 856.053 519.092 805.666 365.17Z" stroke="#4D64F1" stroke-width="14.187" stroke-miterlimit="10" stroke-linecap="round" stroke-linejoin="round"/>
<path d="M489.748 183C525.706 221.055 571.502 377.167 558.483 537" stroke="#4EB474" stroke-width="14" stroke-miterlimit="10" stroke-linecap="round" stroke-linejoin="round"/>
<path d="M222.934 692.665C327.554 668.86 587.538 629.893 790.514 664.474" stroke="#FF4141" stroke-width="14" stroke-miterlimit="10" stroke-linecap="round" stroke-linejoin="round"/>
<path d="M756.628 307C782.94 464.87 788.578 547.564 741.593 652.811M220.998 850.148C239.792 857.666 280.011 877.211 290.536 895.254M681.452 895.254C688.97 885.23 709.267 862.176 730.317 850.148" stroke="#FF4141" stroke-width="14" stroke-miterlimit="10" stroke-linecap="round" stroke-linejoin="round"/>
<path d="M258.642 160.794L232.33 190.865M143.998 226.573L179.707 226.573M715.337 142L747.287 177.709M785.566 204.02L809.998 204.02" stroke="#FF4141" stroke-width="14" stroke-miterlimit="10" stroke-linecap="round" stroke-linejoin="round"/>
<path d="M226.691 318.664C331.625 289.847 585.47 246.683 761.382 304.569" stroke="#FF4141" stroke-width="14" stroke-miterlimit="10" stroke-linecap="round" stroke-linejoin="round"/>
<path d="M332.998 832L431.498 874L496.998 946M665.998 841.375L617.498 874L548.998 964.5" stroke="#FF4141" stroke-width="14" stroke-miterlimit="10" stroke-linecap="round" stroke-linejoin="round"/>
<path d="M303.748 933.229L519.88 1032.84L581.9 1032.84L696.544 950.144" stroke="#FF4141" stroke-width="14" stroke-miterlimit="10" stroke-linecap="round" stroke-linejoin="round"/>
<path d="M444.703 660.715C448.462 685.148 444.703 743.409 431.547 771.6M655.196 651.318C655.823 673.245 654.068 724.239 642.04 752.806" stroke="#FF4141" stroke-width="14" stroke-miterlimit="10" stroke-linecap="round" stroke-linejoin="round"/>
<circle cx="256.76" cy="349.673" r="15.0352" stroke="#FF4141" stroke-width="14" stroke-miterlimit="10" stroke-linecap="round" stroke-linejoin="round"/>
<circle cx="737.889" cy="334.638" r="15.0352" stroke="#FF4141" stroke-width="14" stroke-miterlimit="10" stroke-linecap="round" stroke-linejoin="round"/>
<circle cx="409.934" cy="696.423" r="15.0352" stroke="#FF4141" stroke-width="14" stroke-miterlimit="10" stroke-linecap="round" stroke-linejoin="round"/>
<circle cx="686.207" cy="687.026" r="15.0352" stroke="#FF4141" stroke-width="14" stroke-miterlimit="10" stroke-linecap="round" stroke-linejoin="round"/>
<circle cx="246.426" cy="891.881" r="15.0352" stroke="#FF4141" stroke-width="14" stroke-miterlimit="10" stroke-linecap="round" stroke-linejoin="round"/>
<circle cx="738.83" cy="897.52" r="15.0352" stroke="#FF4141" stroke-width="14" stroke-miterlimit="10" stroke-linecap="round" stroke-linejoin="round"/>
<path d="M156 503C225.19 484.099 407.727 449.322 546.61 446.298C685.494 443.274 786.26 463.939 824 476.539" stroke="#FF4141" stroke-width="14.187" stroke-miterlimit="10" stroke-linecap="round" stroke-linejoin="round"/>
<path d="M276.774 979.254C253.594 974.242 198.966 967.225 165.889 979.254M701.519 979.254C717.807 974.242 757.525 964.593 786.092 966.097" stroke="#FF4141" stroke-width="14.187" stroke-miterlimit="10" stroke-linecap="round" stroke-linejoin="round"/>
<path d="M210.993 312.064C204.728 388.494 210.995 590.216 259.859 676.669" stroke="#FF4141" stroke-width="14.187" stroke-miterlimit="10" stroke-linecap="round" stroke-linejoin="round"/>
<path d="M783.722 123.466C783.521 122.515 782.394 122.165 781.762 122.878C773.778 132.403 735.394 178.22 710.586 205.022C701.177 215.222 700.887 232.141 709.972 242.572L758.591 298.538C759.249 299.312 762.068 299.643 762.849 298.937C772.63 290.289 808.509 248.86 783.722 123.466Z" fill="#59B87D"/>
<path d="M217.871 311.179C218.74 311.716 221.47 310.854 221.961 309.986L264.787 236.049C268.761 229.156 266.733 219.85 260.191 215.283C232.297 195.694 176.654 150.58 165.985 141.906C165.268 141.328 164.193 141.921 164.196 142.862C163.641 270.689 206.703 304.561 217.871 311.179Z" fill="#59B87D"/>
<path d="M563 638V574" stroke="#4EB474" stroke-width="14" stroke-linecap="round"/>
<path d="M515.895 858.086C515.821 857.843 515.483 857.755 515.344 857.99C512.99 861.725 499.111 883.73 494.969 888.367C494.855 888.501 494.863 888.695 494.995 888.812L515.195 907.333C515.416 907.535 516.181 907.522 516.36 907.301C518.708 904.581 526.962 891.935 515.895 858.086Z" fill="#FFEBD8"/>
<path d="M584.797 919.234L532.209 952.338L530.865 895.583L529.332 830.232L584.797 919.234Z" fill="#F4E66A"/>
<path d="M529.33 830.232L530.866 895.603L532.207 952.339L478.107 921.298L529.33 830.232Z" fill="#E98870"/>
<path d="M530.868 895.603L584.798 919.235L532.209 952.339L478.109 921.298L530.868 895.603Z" fill="#905FA2"/>
<path d="M585.041 929.541L533.504 1007.03L532.45 962.626L585.041 929.541Z" fill="#0EA9CC"/>
<path d="M532.45 962.628L533.504 1007.04L478.312 931.593L532.45 962.628Z" fill="#6375B9"/>
<path fill-rule="evenodd" clip-rule="evenodd" d="M530.868 895.603L584.798 919.235L532.209 952.339L530.868 895.603Z" fill="#4EB474"/>
<path d="M221 561C323.667 595.667 594.5 646.7 770.5 563.5" stroke="#FF4141" stroke-width="14.187" stroke-miterlimit="10" stroke-linecap="round" stroke-linejoin="round"/>
<path d="M340.675 544C335.341 564 325.575 613.2 327.175 626L373.175 560C367.508 576.667 363.675 599 363.675 626L401.675 577C398.675 587.333 393.075 609.8 394.675 617" stroke="#FF4141" stroke-width="14.187" stroke-miterlimit="10" stroke-linecap="round" stroke-linejoin="round"/>
<path d="M723 534C729 557 738.999 597 734 612L696.501 544C704 563.5 708.8 603.5 704 615.5L674 569C676 578.667 685.3 602.7 680.5 615.5" stroke="#FF4141" stroke-width="14.187" stroke-miterlimit="10" stroke-linecap="round" stroke-linejoin="round"/>
<path d="M562.24 512.864C564.093 510.425 566.046 508.21 568.135 506.221C569.949 504.586 572.013 503.11 574.332 501.719C576.648 500.364 579.078 499.711 581.657 499.798C585.301 499.973 588.328 500.705 590.809 502.033C593.291 503.362 595.272 505.106 596.794 507.194C598.314 509.319 599.376 511.752 600.019 514.458C600.661 517.201 600.93 519.999 600.863 522.89C600.797 525.782 600.402 528.585 599.644 531.26C598.887 533.935 597.954 536.419 596.769 538.781C595.586 541.106 594.299 543.279 592.838 545.261C591.413 547.245 589.958 549.081 588.478 550.695C586.218 553.152 583.892 555.459 581.426 557.612C578.959 559.766 576.618 561.632 574.366 563.173C572.112 564.751 570.06 565.971 568.206 566.908C566.353 567.845 564.891 568.325 563.818 568.383C562.669 568.475 561.136 568.145 559.294 567.323C557.45 566.539 555.439 565.416 553.219 564.027C550.999 562.638 548.682 560.951 546.193 559.036C543.705 557.084 541.296 555.026 538.856 552.857C537.3 551.463 535.571 549.841 533.779 547.996C531.95 546.149 530.241 544.125 528.616 541.885C526.991 539.645 525.558 537.231 524.358 534.608C523.157 531.985 522.446 529.166 522.187 526.149C521.965 523.133 522.175 520.322 522.822 517.641C523.468 514.997 524.544 512.593 525.978 510.427C527.41 508.297 529.234 506.442 531.372 504.969C533.549 503.462 536 502.37 538.763 501.696C540.145 501.36 541.553 501.244 542.946 501.421C544.341 501.561 545.728 501.884 547.109 502.317C548.453 502.748 549.79 503.325 551.01 504.043C552.266 504.763 553.449 505.48 554.591 506.267C557.27 508.082 559.819 510.293 562.24 512.864Z" fill="white" stroke="#FF4141" stroke-width="14" stroke-miterlimit="10" stroke-linecap="round" stroke-linejoin="round"/>
<path d="M645.476 468.205C634.266 468.393 624.565 462.454 617.866 453.793C611.167 445.133 607.126 433.41 606.908 420.689C606.689 407.971 610.318 396.12 616.711 387.24C623.106 378.357 632.596 372.098 643.807 371.911C655.019 371.723 664.72 377.667 671.418 386.329C678.115 394.989 682.156 406.712 682.375 419.426C682.594 432.139 678.964 443.989 672.572 452.87C666.178 461.753 656.688 468.018 645.476 468.205Z" fill="#F4E66A" stroke="#FF4141" stroke-width="14.187" stroke-miterlimit="10" stroke-linecap="round" stroke-linejoin="round"/>
<path d="M414.305 462.438C421.261 471.476 431.324 477.664 442.941 477.468C454.558 477.272 464.404 470.747 471.046 461.478C477.687 452.209 481.467 439.829 481.234 426.535L414.305 462.438ZM414.305 462.438C407.348 453.4 403.143 441.154 402.917 427.859M414.305 462.438L402.917 427.859M402.917 427.859C402.683 414.566 406.463 402.186 413.105 392.917M402.917 427.859L413.105 392.917M413.105 392.917C419.747 383.648 429.592 377.123 441.21 376.927M413.105 392.917L441.21 376.927M441.21 376.927C452.827 376.73 462.889 382.918 469.845 391.956M441.21 376.927L469.845 391.956M469.845 391.956C476.802 400.994 481.007 413.238 481.234 426.531L469.845 391.956Z" fill="#F4E66A" stroke="#FF4141" stroke-width="14.187" stroke-miterlimit="10" stroke-linecap="round" stroke-linejoin="round"/>
</g>
<defs>
<linearGradient id="paint0_linear_2285_1334" x1="-115.125" y1="470.245" x2="1048.31" y2="470.245" gradientUnits="userSpaceOnUse">
<stop stop-color="#101010"/>
<stop offset="1" stop-color="#484848"/>
</linearGradient>
<linearGradient id="paint1_linear_2285_1334" x1="382.897" y1="220.131" x2="819.108" y2="412.163" gradientUnits="userSpaceOnUse">
<stop stop-color="#101010"/>
<stop offset="1" stop-color="#484848"/>
</linearGradient>
<linearGradient id="paint2_linear_2285_1334" x1="368.89" y1="763.202" x2="636.631" y2="1030.68" gradientUnits="userSpaceOnUse">
<stop stop-color="#0A0A0A"/>
<stop offset="1" stop-color="#0A0A0A"/>
</linearGradient>
<linearGradient id="paint3_linear_2285_1334" x1="314.439" y1="707.127" x2="524.38" y2="802.901" gradientUnits="userSpaceOnUse">
<stop stop-color="#070707"/>
<stop offset="1" stop-color="#070707"/>
</linearGradient>
<linearGradient id="paint4_linear_2285_1334" x1="1020.49" y1="871.899" x2="1061.71" y2="873.43" gradientUnits="userSpaceOnUse">
<stop stop-color="#070707"/>
<stop offset="1" stop-color="#060606"/>
</linearGradient>
<linearGradient id="paint5_linear_2285_1334" x1="199.221" y1="423.851" x2="499.259" y2="589.845" gradientUnits="userSpaceOnUse">
<stop stop-color="#0A0A0A"/>
<stop offset="1" stop-color="#5C5C5C"/>
</linearGradient>
<linearGradient id="paint6_linear_2285_1334" x1="269.345" y1="133.273" x2="761.492" y2="462.993" gradientUnits="userSpaceOnUse">
<stop stop-color="#2A2A2A"/>
<stop offset="1" stop-color="#AAAAAA"/>
</linearGradient>
<clipPath id="clip0_2285_1334">
<rect width="1024" height="1024" fill="white"/>
</clipPath>
</defs>
</svg>
