<svg width="1024" height="1024" viewBox="0 0 1024 1024" fill="none" xmlns="http://www.w3.org/2000/svg">
<g clip-path="url(#clip0_2285_1458)">
<path d="M1048.32 -135.396H-115.125V1075.88H1048.32V-135.396Z" fill="url(#paint0_linear_2285_1458)"/>
<path d="M-115.125 630.801L163.029 670.448L26.8263 459.061L-115.125 596.01V630.801Z" fill="url(#paint1_linear_2285_1458)"/>
<path d="M-115.125 630.805V643.451L117.628 770.342L163.029 670.451L-115.125 630.805Z" fill="url(#paint2_linear_2285_1458)"/>
<path d="M117.629 770.34L301.301 723.89L163.03 670.449L117.629 770.34Z" fill="url(#paint3_linear_2285_1458)"/>
<path d="M-33.7529 1075.88L142.397 1004.94L-115.125 667.488V1075.88H-33.7529Z" fill="url(#paint4_linear_2285_1458)"/>
<path d="M101.454 1075.88L142.396 1004.94L-33.7539 1075.88H101.454Z" fill="url(#paint5_linear_2285_1458)"/>
<path d="M-115.125 667.496L142.397 1004.95L117.628 770.348L-115.125 643.457V667.496Z" fill="url(#paint6_linear_2285_1458)"/>
<path d="M414.801 742.461L652.147 791.232L563.388 180.336L414.801 742.461Z" fill="url(#paint7_linear_2285_1458)"/>
<path d="M26.8242 459.065L163.027 670.452L78.4038 391.725L26.8242 459.065Z" fill="url(#paint8_linear_2285_1458)"/>
<path d="M-115.125 434.809V596.01L26.8263 459.061L-115.125 434.809Z" fill="url(#paint9_linear_2285_1458)"/>
<path d="M563.391 180.336L652.15 791.232L885.333 596.12L563.391 180.336Z" fill="url(#paint10_linear_2285_1458)"/>
<path d="M563.391 180.336L689.277 -68.2168L885.333 596.12L563.391 180.336Z" fill="url(#paint11_linear_2285_1458)"/>
<path d="M652.145 791.231L885.327 596.119L792.457 781.947L652.145 791.231Z" fill="url(#paint12_linear_2285_1458)"/>
<path d="M885.331 596.119L1046.3 925.966L792.461 781.947L885.331 596.119Z" fill="url(#paint13_linear_2285_1458)"/>
<path d="M652.145 791.228L792.457 781.943L829.611 900.403L652.145 791.228Z" fill="url(#paint14_linear_2285_1458)"/>
<path d="M858.358 1075.89L829.614 900.41L791.762 1075.89H858.358Z" fill="url(#paint15_linear_2285_1458)"/>
<path d="M792.461 781.943L1046.3 925.963L829.614 900.403L792.461 781.943Z" fill="url(#paint16_linear_2285_1458)"/>
<path d="M1007.24 1075.89L829.613 900.41L858.358 1075.89H1007.24Z" fill="url(#paint17_linear_2285_1458)"/>
<path d="M90.8711 -135.396L563.388 180.337L689.275 -68.2158L352.664 -135.396H90.8711Z" fill="url(#paint18_linear_2285_1458)"/>
<path d="M-42.8867 -135.396L-115.125 -83.05V434.812L26.8263 459.065L-32.329 -135.396H-42.8867Z" fill="url(#paint19_linear_2285_1458)"/>
<path d="M-19.8359 -135.396L563.389 180.337L90.8721 -135.396H-19.8359Z" fill="url(#paint20_linear_2285_1458)"/>
<path d="M-32.3281 -135.396L26.8272 459.065L78.4068 391.724L-31.5491 -135.396H-32.3281Z" fill="url(#paint21_linear_2285_1458)"/>
<path d="M302.103 1075.88L390.03 1039.79L142.394 1004.94L101.453 1075.88H302.103Z" fill="url(#paint22_linear_2285_1458)"/>
<path d="M414.8 742.465L652.147 791.236L390.031 1039.79L414.8 742.465Z" fill="url(#paint23_linear_2285_1458)"/>
<path d="M652.147 791.229L829.613 900.404L390.031 1039.78L652.147 791.229Z" fill="url(#paint24_linear_2285_1458)"/>
<path d="M791.761 1075.89L829.613 900.41L390.031 1039.79L417.03 1075.89H791.761Z" fill="url(#paint25_linear_2285_1458)"/>
<path d="M117.629 770.344L142.398 1004.94L295.122 849.317L117.629 770.344Z" fill="url(#paint26_linear_2285_1458)"/>
<path d="M117.629 770.343L301.301 723.893L295.122 849.316L117.629 770.343Z" fill="url(#paint27_linear_2285_1458)"/>
<path d="M142.395 1004.94L390.03 1039.78L295.118 849.311L142.395 1004.94Z" fill="url(#paint28_linear_2285_1458)"/>
<path d="M301.304 723.893L414.806 742.462L295.125 849.316L301.304 723.893Z" fill="url(#paint29_linear_2285_1458)"/>
<path d="M390.037 1039.79L414.806 742.465L295.125 849.319L390.037 1039.79Z" fill="url(#paint30_linear_2285_1458)"/>
<path d="M1017.34 1075.89L1035.99 1000.3L829.613 900.41L1007.24 1075.89H1017.34Z" fill="url(#paint31_linear_2285_1458)"/>
<path d="M829.613 900.41L1046.3 925.97L1035.99 1000.3L829.613 900.41Z" fill="url(#paint32_linear_2285_1458)"/>
<path d="M1035.75 1075.89L1035.99 1000.3L1017.34 1075.89H1035.75Z" fill="url(#paint33_linear_2285_1458)"/>
<path d="M1048.32 -50.6346L689.273 -68.2168L885.33 596.12L1048.32 142.477V-50.6346Z" fill="url(#paint34_linear_2285_1458)"/>
<path d="M1048.32 142.473L885.332 596.116L1046.3 925.963L1048.32 898.216V142.473Z" fill="url(#paint35_linear_2285_1458)"/>
<path d="M-31.5508 -135.396L78.4051 391.724L231.129 366.164L-29.321 -135.396H-31.5508Z" fill="url(#paint36_linear_2285_1458)"/>
<path d="M-29.3203 -135.396L231.13 366.164L563.388 180.337L-19.8372 -135.396H-29.3203Z" fill="url(#paint37_linear_2285_1458)"/>
<path d="M78.4023 391.72L163.025 670.448L231.126 366.16L78.4023 391.72Z" fill="url(#paint38_linear_2285_1458)"/>
<path d="M163.027 670.448L301.298 723.888L231.128 366.16L163.027 670.448Z" fill="url(#paint39_linear_2285_1458)"/>
<path d="M301.303 723.888L414.804 742.457L231.133 366.16L301.303 723.888Z" fill="url(#paint40_linear_2285_1458)"/>
<path d="M414.804 742.461L563.391 180.336L231.133 366.163L414.804 742.461Z" fill="url(#paint41_linear_2285_1458)"/>
<path d="M655.69 751.633C707.473 779.897 811.055 912.683 814.259 1014.8C817.463 1116.91 777.91 1129.16 735.499 1122.66C728.058 1118.93 718.177 1119.74 714.869 1104.64" fill="white"/>
<path d="M655.69 751.633C707.473 779.897 811.055 912.683 814.259 1014.8C817.463 1116.91 777.91 1129.16 735.499 1122.66C728.058 1118.93 718.177 1119.74 714.869 1104.64" stroke="black" stroke-width="14.1892" stroke-linecap="round"/>
<mask id="mask0_2285_1458" style="mask-type:luminance" maskUnits="userSpaceOnUse" x="643" y="749" width="165" height="370">
<path d="M643.62 749.764C694.461 776.006 799.256 904.689 806.486 1006.61C813.717 1108.53 776.246 1122.28 735.286 1117.44C727.995 1113.99 718.549 1115.18 714.761 1100.23" fill="white"/>
</mask>
<g mask="url(#mask0_2285_1458)">
<path d="M786.678 970.522C786.678 970.522 784.373 968.901 780.361 966.938C766.213 960.04 730.808 948.918 699.265 989.226C658.754 1041 675.97 1283.46 790.077 1198.33C904.168 1113.22 884.317 986.356 884.317 986.356L893.18 843.162L860.978 882.443" fill="white"/>
</g>
<path d="M510.5 1292C390.378 1292 293 1155.89 293 987.998C293 820.104 390.378 683.998 510.5 683.998C630.622 683.998 728 820.104 728 987.998C728 1155.89 630.622 1292 510.5 1292Z" fill="white"/>
<path d="M379.766 719.629C331.575 744.28 182.737 901.911 181.629 1009.18C179.802 1186.02 302.203 1125.91 293.535 1095.3C293.535 1095.3 309.733 1056.88 307.248 1045.88C304.763 1034.88 287.561 954.142 312.532 922.756" fill="white"/>
<mask id="mask1_2285_1458" style="mask-type:luminance" maskUnits="userSpaceOnUse" x="181" y="719" width="199" height="412">
<path d="M379.77 719.627C331.579 744.278 182.741 901.909 181.633 1009.18C179.806 1186.02 302.207 1125.91 293.539 1095.3C293.539 1095.3 309.737 1056.88 307.252 1045.88C304.766 1034.87 287.565 954.14 312.536 922.754" fill="white"/>
</mask>
<g mask="url(#mask1_2285_1458)">
<path d="M136.974 995.398C136.974 995.398 138.081 995.22 140.073 994.937C155.253 992.766 221.663 984.738 237.876 1007.56C256.23 1033.37 309.735 990.863 309.735 990.863C309.735 990.863 407.584 1172.31 253.161 1174.59C98.7386 1176.86 94.1576 1055.39 94.1576 1055.39" fill="white"/>
</g>
<path d="M379.766 719.629C331.575 744.28 182.737 901.911 181.629 1009.18C179.802 1186.02 302.203 1125.91 293.535 1095.3" stroke="black" stroke-width="14.8245" stroke-linecap="round"/>
<path d="M641.28 767.447C661.281 798.462 741.87 961.595 718.253 1079.36C702.504 1225.21 684.494 1218.91 691.995 1240.2C694.255 1248.62 697.564 1248.23 710.319 1258.49C720.514 1266.7 720.499 1305.12 718.253 1319.84H536.719" fill="white"/>
<path d="M641.28 767.447C661.281 798.462 741.87 961.595 718.253 1079.36C702.504 1225.21 684.494 1218.91 691.995 1240.2C694.255 1248.62 697.564 1248.23 710.319 1258.49C720.514 1266.7 720.499 1305.12 718.253 1319.84H536.719" stroke="black" stroke-width="14.8245" stroke-linecap="round"/>
<path d="M394.548 767.447C374.038 789.764 323.444 887.757 303.234 953.726L394.548 767.447ZM511.281 1138.52L505.008 1252.47C477.223 1248.78 463.614 1249.96 499.125 1257.21C561.088 1269.86 543.902 1305.22 535.399 1321.31H303.234C303.234 1249.53 298.668 1183.27 298.668 1088.61" fill="white"/>
<path d="M394.548 767.447C374.038 789.764 323.444 887.757 303.234 953.726M511.281 1138.52L505.008 1252.47C477.223 1248.78 463.614 1249.96 499.125 1257.21C561.088 1269.86 543.902 1305.22 535.399 1321.31H303.234C303.234 1249.53 298.668 1183.27 298.668 1088.61" stroke="black" stroke-width="14.8245" stroke-linecap="round" stroke-linejoin="round"/>
<path d="M775.77 1050.31C769.048 1060.63 751.622 1078.37 735.798 1066.77C731.471 1059.72 726.86 1042.71 742.924 1031.01" fill="white"/>
<path d="M775.77 1050.31C769.048 1060.63 751.622 1078.37 735.798 1066.77C731.471 1059.72 726.86 1042.71 742.924 1031.01" stroke="black" stroke-width="14.1892" stroke-linecap="round" stroke-linejoin="round"/>
<path d="M303.431 953.352C302.143 962.837 296.634 983.682 296.873 990.655C297.817 1017.51 328.671 1037.62 305.317 1081.17C298.894 1091.36 284.837 1108.98 273.923 1080.49L275.136 1051.58" stroke="black" stroke-width="14.8245" stroke-linecap="round"/>
<path d="M824.579 374.556C824.54 374.356 824.445 374.253 824.505 374.057C826.074 367.494 870.095 183.33 814.835 98.7441C814.509 98.283 814.02 98.1113 813.513 98.2855C803.441 102.615 699.506 148.379 668.863 201.121C668.536 201.7 667.831 201.865 667.247 201.59C660.596 198.155 620.533 180.711 496.239 185.145C365.978 190.437 332.899 209.927 327.004 214.354C326.436 214.773 325.544 214.681 325.126 214.067C290.617 163.896 183.841 126.262 173.462 122.701C172.923 122.527 172.464 122.753 172.191 123.235C123.296 211.77 180.686 392.103 182.71 398.49C182.75 398.69 182.745 398.788 182.685 398.984C141.721 564.668 179.537 643.576 179.947 644.338C179.947 644.338 179.947 644.338 179.945 644.388C234.014 737.932 371.108 770.607 455.585 781.976C503.214 788.385 551.57 786.161 598.365 775.244C677.549 756.743 799.271 713.749 845.077 619.224C845.186 619.031 845.243 618.885 845.302 618.69C847.343 613.685 876.173 532.178 824.579 374.556Z" fill="white"/>
<path d="M801.31 137.84C801.109 136.889 799.982 136.539 799.35 137.252C791.366 146.777 752.982 192.594 728.174 219.396C718.765 229.596 718.474 246.515 727.56 256.946L776.179 312.912C776.837 313.686 779.656 314.017 780.437 313.311C790.218 304.663 826.097 263.234 801.31 137.84Z" fill="black" stroke="black" stroke-width="14.187" stroke-miterlimit="10" stroke-linecap="round" stroke-linejoin="round"/>
<path d="M235.459 325.551C236.328 326.088 239.058 325.226 239.549 324.358L282.374 250.421C286.349 243.528 284.321 234.222 277.779 229.655C249.885 210.066 194.242 164.952 183.573 156.278C182.855 155.7 181.781 156.293 181.784 157.234C181.229 285.061 224.291 318.934 235.459 325.551Z" fill="black" stroke="black" stroke-width="14.187" stroke-miterlimit="10" stroke-linecap="round" stroke-linejoin="round"/>
<path d="M821.859 374.763C821.77 374.561 821.725 374.46 821.784 374.265C823.353 367.703 865.151 192.504 815.953 105.441C814.534 102.897 806.537 100.438 803.074 102.007C776.173 114.299 692.933 155.165 666.103 201.381C665.776 201.96 665.071 202.125 664.487 201.849C657.833 198.414 617.755 180.963 493.432 185.364C363.14 190.62 330.058 210.097 324.163 214.521C323.595 214.94 322.703 214.848 322.285 214.234C295.376 175.124 224.515 143.634 189.68 129.948C182.988 127.303 174.665 129.434 171.488 131.264C168.359 133.096 162.226 138.302 160.309 143.856C128.438 236.828 177.86 392.14 179.884 398.575C179.924 398.775 179.919 398.874 179.857 399.119C138.928 564.752 176.776 643.651 177.187 644.413C177.187 644.413 177.187 644.413 177.184 644.463C231.293 737.999 368.431 770.702 452.929 782.139C500.572 788.56 548.939 786.348 595.742 775.446C674.839 757.015 796.224 714.195 842.2 620.011C842.42 619.576 842.698 618.995 842.822 618.505C845.98 609.989 872.247 528.686 821.859 374.763Z" stroke="black" stroke-width="14.187" stroke-miterlimit="10" stroke-linecap="round" stroke-linejoin="round"/>
<path d="M167.047 512.397C235.958 493.603 417.759 459.022 556.084 456.015C694.408 453.008 805.412 477.967 843 490.496" stroke="black" stroke-width="14.187" stroke-miterlimit="10" stroke-linecap="round" stroke-linejoin="round"/>
<path d="M227.187 321.66C220.922 398.089 227.188 599.812 276.052 686.265" stroke="black" stroke-width="14.187" stroke-miterlimit="10" stroke-linecap="round" stroke-linejoin="round"/>
<path d="M292.967 988.849C269.788 983.838 215.16 976.821 182.082 988.849M717.712 988.849C734.001 983.837 773.719 974.189 802.286 975.692" stroke="black" stroke-width="14.187" stroke-miterlimit="10" stroke-linecap="round" stroke-linejoin="round"/>
<path d="M494 185.998C529.958 224.054 575.754 380.165 562.735 539.998" stroke="black" stroke-width="14.187" stroke-miterlimit="10" stroke-linecap="round" stroke-linejoin="round"/>
<path d="M227 695.998C333.541 672.13 598.298 633.061 805 667.733" stroke="black" stroke-width="14.187" stroke-miterlimit="10" stroke-linecap="round" stroke-linejoin="round"/>
<path d="M775.97 314.145C802.282 472.015 807.92 554.708 760.935 659.955M240.34 857.293C259.134 864.81 308.475 888.958 319 907M700.794 902.398C708.312 892.375 728.609 869.321 749.659 857.293" stroke="black" stroke-width="14.187" stroke-miterlimit="10" stroke-linecap="round" stroke-linejoin="round"/>
<path d="M262.894 163.792L236.582 193.863M148.25 229.571H183.959M719.589 144.998L751.539 180.707M806.042 207.018H830.474" stroke="black" stroke-width="14.187" stroke-miterlimit="10" stroke-linecap="round" stroke-linejoin="round"/>
<path d="M230.945 321.661C335.879 292.844 589.724 249.68 765.636 307.566" stroke="black" stroke-width="14.187" stroke-miterlimit="10" stroke-linecap="round" stroke-linejoin="round"/>
<path d="M362.504 834.74L463.992 870.449L486.545 924.952M670.726 844.137L614.344 870.449L597.43 924.952" stroke="black" stroke-width="14.187" stroke-miterlimit="10" stroke-linecap="round" stroke-linejoin="round"/>
<path d="M308 936.227L524.132 1035.84H586.152L700.796 953.141" stroke="black" stroke-width="14.187" stroke-miterlimit="10" stroke-linecap="round" stroke-linejoin="round"/>
<path d="M448.957 663.713C452.715 688.146 448.957 746.407 435.801 774.598M659.45 654.316C660.076 676.243 658.322 727.237 646.294 755.804" stroke="black" stroke-width="14.187" stroke-miterlimit="10" stroke-linecap="round" stroke-linejoin="round"/>
<circle cx="261.012" cy="352.67" r="15.0352" fill="black" stroke="black" stroke-width="14.187" stroke-miterlimit="10" stroke-linecap="round" stroke-linejoin="round"/>
<circle cx="742.137" cy="337.635" r="15.0352" fill="black" stroke="black" stroke-width="14.187" stroke-miterlimit="10" stroke-linecap="round" stroke-linejoin="round"/>
<circle cx="414.184" cy="699.42" r="15.0352" fill="black" stroke="black" stroke-width="14.187" stroke-miterlimit="10" stroke-linecap="round" stroke-linejoin="round"/>
<circle cx="690.457" cy="690.023" r="15.0352" fill="black" stroke="black" stroke-width="14.187" stroke-miterlimit="10" stroke-linecap="round" stroke-linejoin="round"/>
<circle cx="250.676" cy="894.879" r="15.0352" fill="black" stroke="black" stroke-width="14.187" stroke-miterlimit="10" stroke-linecap="round" stroke-linejoin="round"/>
<circle cx="743.078" cy="900.516" r="15.0352" fill="black" stroke="black" stroke-width="14.187" stroke-miterlimit="10" stroke-linecap="round" stroke-linejoin="round"/>
<path d="M656.587 479.346C645.377 479.533 635.676 473.595 628.977 464.934C622.279 456.274 618.238 444.551 618.019 431.83C617.8 419.112 621.429 407.26 627.823 398.38C634.218 389.498 643.708 383.239 654.918 383.051C666.13 382.864 675.831 388.808 682.529 397.469C689.226 406.13 693.268 417.853 693.486 430.567C693.705 443.279 690.076 455.13 683.683 464.011C677.289 472.894 667.8 479.158 656.587 479.346Z" fill="#A8A8A8" stroke="black" stroke-width="14.187" stroke-miterlimit="10" stroke-linecap="round" stroke-linejoin="round"/>
<path d="M425.416 473.579C432.372 482.617 442.435 488.805 454.052 488.609C465.67 488.412 475.515 481.888 482.157 472.618C488.798 463.35 492.578 450.969 492.345 437.676L425.416 473.579ZM425.416 473.579C418.459 464.54 414.254 452.295 414.028 439M425.416 473.579L414.028 439M414.028 439C413.795 425.706 417.575 413.326 424.216 404.057M414.028 439L424.216 404.057M424.216 404.057C430.858 394.788 440.703 388.263 452.321 388.067M424.216 404.057L452.321 388.067M452.321 388.067C463.938 387.871 474.001 394.059 480.957 403.097M452.321 388.067L480.957 403.097M480.957 403.097C487.913 412.134 492.118 424.379 492.345 437.672L480.957 403.097Z" fill="#A8A8A8" stroke="black" stroke-width="14.187" stroke-miterlimit="10" stroke-linecap="round" stroke-linejoin="round"/>
<path d="M246 575.998C316.417 553.825 602.796 515.656 785 549.293" stroke="black" stroke-width="14.19" stroke-linecap="round"/>
<path d="M246 576.604L347.5 662.498L410.5 555.998L489.5 648.498L562 549.998L633.5 644.998L694 544.998L765 644.998" stroke="black" stroke-width="14.19" stroke-linecap="round" stroke-linejoin="round"/>
<path d="M569.388 514.323C571.241 511.884 573.194 509.669 575.283 507.68C577.097 506.045 579.162 504.569 581.48 503.177C583.797 501.823 586.227 501.17 588.805 501.257C592.45 501.432 595.477 502.164 597.958 503.492C600.439 504.821 602.421 506.565 603.942 508.653C605.462 510.778 606.525 513.211 607.168 515.917C607.809 518.66 608.079 521.458 608.012 524.349C607.945 527.241 607.55 530.044 606.793 532.719C606.035 535.394 605.103 537.878 603.918 540.24C602.734 542.565 601.448 544.738 599.986 546.72C598.561 548.704 597.107 550.54 595.626 552.154C593.366 554.611 591.04 556.918 588.574 559.071C586.108 561.225 583.766 563.091 581.514 564.632C579.26 566.21 577.208 567.43 575.355 568.367C573.501 569.304 572.039 569.784 570.966 569.842C569.818 569.934 568.284 569.604 566.442 568.782C564.599 567.998 562.587 566.875 560.367 565.486C558.147 564.097 555.831 562.41 553.341 560.495C550.853 558.543 548.445 556.485 546.004 554.316C544.449 552.922 542.72 551.3 540.928 549.455C539.099 547.608 537.389 545.584 535.764 543.344C534.139 541.104 532.707 538.69 531.506 536.067C530.306 533.444 529.594 530.625 529.335 527.608C529.113 524.592 529.324 521.781 529.971 519.1C530.616 516.456 531.692 514.052 533.126 511.886C534.558 509.756 536.383 507.901 538.52 506.428C540.697 504.921 543.149 503.829 545.912 503.155C547.293 502.819 548.701 502.703 550.095 502.88C551.49 503.02 552.876 503.343 554.257 503.776C555.602 504.207 556.939 504.784 558.158 505.502C559.415 506.222 560.597 506.939 561.74 507.726C564.419 509.541 566.968 511.752 569.388 514.323Z" fill="#A8A8A8" stroke="black" stroke-width="14" stroke-miterlimit="10" stroke-linecap="round" stroke-linejoin="round"/>
<path d="M474.262 933.273C474.442 932.645 474.497 932.232 474.67 931.882C478.696 923.756 482.734 915.634 486.775 907.516C489.831 901.373 492.905 895.245 495.939 889.091C498.704 883.482 501.429 877.854 504.154 872.226C505.191 870.079 507.243 868.976 508.982 867.581C514.086 863.49 519.26 859.484 524.419 855.463C529.928 851.172 535.425 846.863 540.985 842.637C543.945 840.388 543.997 840.468 547.229 842.499C556.944 848.594 566.66 854.693 576.39 860.762C577.75 861.61 578.43 862.822 579.074 864.243C581.273 869.085 583.656 873.844 585.947 878.643C588.819 884.654 591.665 890.68 594.529 896.695C598.504 905.054 602.483 913.41 606.458 921.766C608.804 926.696 611.143 931.626 613.485 936.556C613.982 937.601 613.824 938.426 612.864 939.204C603.406 946.873 593.97 954.572 584.527 962.263C576.606 968.713 568.682 975.158 560.776 981.622C555.911 985.599 551.083 989.624 546.221 993.605C544.078 995.361 543.828 995.343 541.893 993.623C534.973 987.473 528.052 981.319 521.132 975.169C513.836 968.687 506.544 962.197 499.241 955.719C491.258 948.641 483.256 941.578 475.277 934.493C474.861 934.132 474.56 933.635 474.262 933.273ZM604.035 936.272C603.892 935.366 603.928 934.756 603.7 934.267C600.887 928.234 598.045 922.215 595.195 916.2C592.327 910.141 589.458 904.079 586.564 898.031C582.303 889.128 577.993 880.246 573.775 871.32C573.201 870.108 572.664 870.002 571.576 870.583C563.192 875.056 554.775 879.468 546.42 883.993C545.718 884.373 545.082 885.384 544.942 886.191C544.449 889.062 544.217 891.976 543.831 894.865C542.838 902.235 541.801 909.601 540.809 916.974C540.345 920.418 539.981 923.877 539.514 927.321C539.143 930.056 538.687 932.784 538.26 935.512C538.106 936.491 538.632 936.863 539.485 936.721C541.026 936.462 542.552 936.1 544.081 935.779C547.049 935.158 550.024 934.57 552.984 933.912C557.856 932.831 562.714 931.681 567.59 930.611C570.594 929.95 573.65 929.504 576.625 928.741C579.048 928.12 581.203 927.649 583.77 928.767C588.922 931.013 594.287 932.769 599.567 934.716C600.931 935.216 602.307 935.669 604.035 936.272ZM529.924 937.63C530.06 937.196 530.159 936.976 530.196 936.746C530.623 933.96 531.064 931.177 531.454 928.391C532.16 923.365 532.855 918.34 533.513 913.311C533.995 909.623 534.384 905.927 534.87 902.238C535.524 897.257 536.197 892.276 536.933 887.305C537.12 886.031 536.602 885.414 535.48 885.096C531.068 883.843 526.651 882.587 522.239 881.342C518.848 880.385 515.439 879.486 512.071 878.46C510.427 877.96 509.916 878.106 509.225 879.563C507.405 883.398 505.57 887.229 503.68 891.03C500.984 896.457 498.208 901.844 495.512 907.271C491.769 914.812 488.062 922.372 484.381 929.946C484.117 930.49 484.183 931.195 484.058 932.09C484.804 931.732 485.19 931.604 485.518 931.385C492.604 926.594 499.693 921.802 506.757 916.978C507.68 916.346 508.386 916.383 509.166 917.153C511.744 919.702 514.377 922.197 516.929 924.768C520.823 928.69 524.662 932.667 528.538 936.604C528.898 936.965 529.369 937.225 529.924 937.63ZM539.963 878.285C540.555 878.088 541.158 877.963 541.684 877.693C543.732 876.634 545.751 875.52 547.788 874.436C553.602 871.342 559.43 868.267 565.233 865.148C566.829 864.29 566.81 863.976 565.207 862.965C558.662 858.834 552.09 854.74 545.56 850.588C544.622 849.993 543.912 850.077 543.111 850.716C541.301 852.158 539.477 853.579 537.657 855.007C531.049 860.189 524.438 865.368 517.841 870.561C517.554 870.784 517.392 871.163 517.171 871.47C517.491 871.664 517.785 871.938 518.131 872.04C523.684 873.68 529.24 875.305 534.8 876.912C536.499 877.401 538.216 877.821 539.963 878.285ZM536.506 937.353C535.035 937.714 533.583 938.24 532.09 938.397C530.615 938.55 530.358 939.065 530.648 940.439C531.652 945.153 532.561 949.886 533.45 954.623C533.951 957.285 534.285 959.981 534.796 962.639C535.826 968.011 536.911 973.372 538.021 978.726C538.143 979.318 538.459 979.968 538.885 980.384C540.18 981.648 541.526 982.879 542.963 983.974C543.449 984.343 544.423 984.584 544.909 984.347C545.861 983.883 546.832 983.193 546.556 981.794C545.92 978.599 545.317 975.396 544.699 972.197C543.408 965.539 542.118 958.878 540.82 952.22C539.933 947.681 538.992 943.152 538.172 938.602C537.966 937.506 537.495 937.243 536.506 937.353Z" fill="black"/>
<path d="M604.035 936.273C602.307 935.67 600.932 935.217 599.575 934.717C594.294 932.77 588.929 931.01 583.777 928.768C581.211 927.65 579.056 928.121 576.633 928.742C573.658 929.505 570.602 929.955 567.598 930.612C562.722 931.682 557.864 932.832 552.992 933.913C550.031 934.571 547.057 935.162 544.089 935.78C542.556 936.101 541.033 936.463 539.493 936.722C538.639 936.864 538.117 936.492 538.268 935.513C538.695 932.785 539.151 930.057 539.522 927.321C539.989 923.878 540.353 920.419 540.816 916.975C541.806 909.602 542.846 902.239 543.839 894.866C544.229 891.977 544.46 889.063 544.95 886.192C545.089 885.385 545.725 884.377 546.428 883.994C554.782 879.469 563.2 875.057 571.584 870.584C572.672 870.003 573.209 870.109 573.783 871.321C578.001 880.247 582.31 889.129 586.572 898.032C589.466 904.08 592.334 910.139 595.203 916.201C598.052 922.216 600.895 928.234 603.708 934.268C603.929 934.757 603.896 935.367 604.035 936.273Z" fill="white"/>
<path d="M529.925 937.633C529.369 937.228 528.899 936.969 528.538 936.603C524.663 932.666 520.82 928.689 516.929 924.767C514.377 922.196 511.744 919.702 509.167 917.153C508.387 916.382 507.681 916.346 506.758 916.977C499.694 921.802 492.604 926.593 485.518 931.385C485.191 931.604 484.805 931.735 484.059 932.089C484.184 931.195 484.117 930.49 484.382 929.946C488.063 922.375 491.77 914.815 495.513 907.27C498.205 901.843 500.981 896.457 503.68 891.03C505.57 887.228 507.405 883.397 509.226 879.562C509.917 878.105 510.428 877.959 512.072 878.459C515.44 879.482 518.849 880.38 522.239 881.341C526.656 882.59 531.068 883.843 535.481 885.095C536.603 885.413 537.121 886.03 536.934 887.305C536.198 892.275 535.525 897.256 534.871 902.238C534.385 905.926 533.999 909.622 533.514 913.311C532.855 918.34 532.157 923.365 531.454 928.39C531.061 931.18 530.623 933.963 530.197 936.746C530.16 936.979 530.061 937.199 529.925 937.633Z" fill="white"/>
<path d="M539.959 878.279C538.209 877.815 536.496 877.395 534.797 876.902C529.233 875.295 523.68 873.666 518.128 872.03C517.782 871.928 517.488 871.654 517.168 871.46C517.389 871.154 517.55 870.777 517.837 870.551C524.434 865.358 531.046 860.179 537.654 854.997C539.474 853.569 541.298 852.149 543.107 850.706C543.909 850.067 544.619 849.983 545.556 850.578C552.087 854.734 558.658 858.828 565.204 862.955C566.803 863.966 566.825 864.277 565.229 865.139C559.43 868.261 553.602 871.333 547.785 874.426C545.747 875.511 543.729 876.624 541.68 877.683C541.155 877.957 540.551 878.082 539.959 878.279Z" fill="white"/>
<path d="M536.506 937.351C537.499 937.241 537.969 937.504 538.168 938.6C538.988 943.15 539.929 947.679 540.816 952.218C542.114 958.876 543.404 965.534 544.695 972.195C545.317 975.394 545.916 978.597 546.552 981.792C546.832 983.188 545.861 983.881 544.905 984.345C544.419 984.583 543.445 984.345 542.959 983.973C541.522 982.877 540.179 981.646 538.881 980.383C538.455 979.966 538.139 979.316 538.017 978.725C536.907 973.371 535.826 968.01 534.792 962.638C534.281 959.979 533.947 957.284 533.446 954.621C532.557 949.885 531.648 945.152 530.644 940.437C530.354 939.064 530.611 938.549 532.086 938.395C533.579 938.238 535.035 937.716 536.506 937.351Z" fill="#FEF0D4"/>
</g>
<defs>
<linearGradient id="paint0_linear_2285_1458" x1="-115.125" y1="470.244" x2="1048.31" y2="470.244" gradientUnits="userSpaceOnUse">
<stop stop-color="#101010"/>
<stop offset="1" stop-color="#484848"/>
</linearGradient>
<linearGradient id="paint1_linear_2285_1458" x1="-174.603" y1="466.327" x2="5.52926" y2="765.369" gradientUnits="userSpaceOnUse">
<stop stop-color="#090909"/>
<stop offset="1" stop-color="#121212"/>
</linearGradient>
<linearGradient id="paint2_linear_2285_1458" x1="-118.671" y1="614.081" x2="-22.6944" y2="847.885" gradientUnits="userSpaceOnUse">
<stop stop-color="#505050"/>
<stop offset="1" stop-color="#303030"/>
</linearGradient>
<linearGradient id="paint3_linear_2285_1458" x1="82.5252" y1="686.183" x2="155.071" y2="837.392" gradientUnits="userSpaceOnUse">
<stop stop-color="#020202"/>
<stop offset="1" stop-color="#020202"/>
</linearGradient>
<linearGradient id="paint4_linear_2285_1458" x1="-308.188" y1="649.814" x2="202.932" y2="1094.63" gradientUnits="userSpaceOnUse">
<stop stop-color="#060606"/>
<stop offset="1" stop-color="#1E1E1E"/>
</linearGradient>
<linearGradient id="paint5_linear_2285_1458" x1="-175.456" y1="954.273" x2="-61.6637" y2="1257.87" gradientUnits="userSpaceOnUse">
<stop stop-color="#060606"/>
<stop offset="1" stop-color="#212121"/>
</linearGradient>
<linearGradient id="paint6_linear_2285_1458" x1="-121.827" y1="596.504" x2="231.557" y2="902.044" gradientUnits="userSpaceOnUse">
<stop stop-color="#131313"/>
<stop offset="1" stop-color="#202020"/>
</linearGradient>
<linearGradient id="paint7_linear_2285_1458" x1="382.897" y1="220.131" x2="819.108" y2="412.163" gradientUnits="userSpaceOnUse">
<stop stop-color="#101010"/>
<stop offset="1" stop-color="#484848"/>
</linearGradient>
<linearGradient id="paint8_linear_2285_1458" x1="31.6574" y1="387.588" x2="252.098" y2="509.637" gradientUnits="userSpaceOnUse">
<stop stop-color="#1E1E1E"/>
<stop offset="1" stop-color="#1D1D1D"/>
</linearGradient>
<linearGradient id="paint9_linear_2285_1458" x1="-676.965" y1="302.372" x2="-493.581" y2="817.975" gradientUnits="userSpaceOnUse">
<stop stop-color="#1C1C1C"/>
<stop offset="1" stop-color="#414141"/>
</linearGradient>
<linearGradient id="paint10_linear_2285_1458" x1="512.732" y1="265.039" x2="1012.96" y2="563.801" gradientUnits="userSpaceOnUse">
<stop stop-color="#767676"/>
<stop offset="1" stop-color="#2F2F2F"/>
</linearGradient>
<linearGradient id="paint11_linear_2285_1458" x1="559.292" y1="-65.9818" x2="1089.38" y2="225.151" gradientUnits="userSpaceOnUse">
<stop stop-color="#5B5B5B"/>
<stop offset="1" stop-color="#3B3B3B"/>
</linearGradient>
<linearGradient id="paint12_linear_2285_1458" x1="617.719" y1="582.19" x2="819.944" y2="856.11" gradientUnits="userSpaceOnUse">
<stop stop-color="#080808"/>
<stop offset="1" stop-color="#191919"/>
</linearGradient>
<linearGradient id="paint13_linear_2285_1458" x1="771.324" y1="611.57" x2="1083.2" y2="883.578" gradientUnits="userSpaceOnUse">
<stop stop-color="#3A3A3A"/>
<stop offset="1" stop-color="#111111"/>
</linearGradient>
<linearGradient id="paint14_linear_2285_1458" x1="681.786" y1="765.072" x2="779.057" y2="930.229" gradientUnits="userSpaceOnUse">
<stop stop-color="#0E0E0E"/>
<stop offset="1" stop-color="#050505"/>
</linearGradient>
<linearGradient id="paint15_linear_2285_1458" x1="735.59" y1="805.049" x2="1117.34" y2="961.671" gradientUnits="userSpaceOnUse">
<stop stop-color="#010101"/>
<stop offset="1" stop-color="#040404"/>
</linearGradient>
<linearGradient id="paint16_linear_2285_1458" x1="742.61" y1="806.894" x2="851.094" y2="1023.65" gradientUnits="userSpaceOnUse">
<stop stop-color="#050505"/>
<stop offset="1" stop-color="#050505"/>
</linearGradient>
<linearGradient id="paint17_linear_2285_1458" x1="844.558" y1="864.647" x2="1172.11" y2="1001.43" gradientUnits="userSpaceOnUse">
<stop stop-color="#151515"/>
<stop offset="1" stop-color="#0B0B0B"/>
</linearGradient>
<linearGradient id="paint18_linear_2285_1458" x1="28.6868" y1="-233.802" x2="318.929" y2="364.533" gradientUnits="userSpaceOnUse">
<stop stop-color="#979797"/>
<stop offset="1" stop-color="#4B4B4B"/>
</linearGradient>
<linearGradient id="paint19_linear_2285_1458" x1="-613.211" y1="-247.941" x2="-50.6487" y2="515.339" gradientUnits="userSpaceOnUse">
<stop stop-color="#464646"/>
<stop offset="1" stop-color="#212121"/>
</linearGradient>
<linearGradient id="paint20_linear_2285_1458" x1="-59.3948" y1="-190.19" x2="256.497" y2="356.971" gradientUnits="userSpaceOnUse">
<stop stop-color="#424242"/>
<stop offset="1" stop-color="#676767"/>
</linearGradient>
<linearGradient id="paint21_linear_2285_1458" x1="-49.6519" y1="-63.3704" x2="177.163" y2="-15.7603" gradientUnits="userSpaceOnUse">
<stop stop-color="#202020"/>
<stop offset="1" stop-color="#222222"/>
</linearGradient>
<linearGradient id="paint22_linear_2285_1458" x1="82.1027" y1="984.246" x2="203.655" y2="1254.39" gradientUnits="userSpaceOnUse">
<stop stop-color="#282828"/>
<stop offset="1" stop-color="#2B2B2B"/>
</linearGradient>
<linearGradient id="paint23_linear_2285_1458" x1="368.892" y1="763.202" x2="636.633" y2="1030.68" gradientUnits="userSpaceOnUse">
<stop stop-color="#0A0A0A"/>
<stop offset="1" stop-color="#0A0A0A"/>
</linearGradient>
<linearGradient id="paint24_linear_2285_1458" x1="322.01" y1="816.176" x2="509.388" y2="1191.8" gradientUnits="userSpaceOnUse">
<stop stop-color="#060606"/>
<stop offset="1" stop-color="#010101"/>
</linearGradient>
<linearGradient id="paint25_linear_2285_1458" x1="474.562" y1="819.701" x2="972.994" y2="1259.62" gradientUnits="userSpaceOnUse">
<stop stop-color="#0B0B0B"/>
<stop offset="1" stop-color="#080808"/>
</linearGradient>
<linearGradient id="paint26_linear_2285_1458" x1="100.989" y1="789.729" x2="312.443" y2="971.045" gradientUnits="userSpaceOnUse">
<stop stop-color="#010101"/>
<stop offset="1" stop-color="#1B1B1B"/>
</linearGradient>
<linearGradient id="paint27_linear_2285_1458" x1="147.056" y1="709.48" x2="250.037" y2="880.399" gradientUnits="userSpaceOnUse">
<stop stop-color="#010101"/>
<stop offset="1" stop-color="#030303"/>
</linearGradient>
<linearGradient id="paint28_linear_2285_1458" x1="115.929" y1="857.308" x2="287.184" y2="1109.63" gradientUnits="userSpaceOnUse">
<stop stop-color="#333333"/>
<stop offset="1" stop-color="#0C0C0C"/>
</linearGradient>
<linearGradient id="paint29_linear_2285_1458" x1="286.052" y1="732.157" x2="398.386" y2="853.645" gradientUnits="userSpaceOnUse">
<stop stop-color="#010101"/>
<stop offset="1" stop-color="#040404"/>
</linearGradient>
<linearGradient id="paint30_linear_2285_1458" x1="314.441" y1="707.127" x2="524.382" y2="802.901" gradientUnits="userSpaceOnUse">
<stop stop-color="#070707"/>
<stop offset="1" stop-color="#070707"/>
</linearGradient>
<linearGradient id="paint31_linear_2285_1458" x1="837.882" y1="893.918" x2="1005.92" y2="1108.09" gradientUnits="userSpaceOnUse">
<stop stop-color="#272727"/>
<stop offset="1" stop-color="#1B1B1B"/>
</linearGradient>
<linearGradient id="paint32_linear_2285_1458" x1="858.303" y1="888.771" x2="924.035" y2="1050.37" gradientUnits="userSpaceOnUse">
<stop stop-color="#060606"/>
<stop offset="1" stop-color="#050505"/>
</linearGradient>
<linearGradient id="paint33_linear_2285_1458" x1="1020.49" y1="871.9" x2="1061.71" y2="873.431" gradientUnits="userSpaceOnUse">
<stop stop-color="#070707"/>
<stop offset="1" stop-color="#060606"/>
</linearGradient>
<linearGradient id="paint34_linear_2285_1458" x1="703.881" y1="-88.1866" x2="1312.84" y2="355.657" gradientUnits="userSpaceOnUse">
<stop stop-color="#303030"/>
<stop offset="1" stop-color="#303030"/>
</linearGradient>
<linearGradient id="paint35_linear_2285_1458" x1="877.028" y1="35.6487" x2="1326.97" y2="156.78" gradientUnits="userSpaceOnUse">
<stop stop-color="#686868"/>
<stop offset="1" stop-color="#474747"/>
</linearGradient>
<linearGradient id="paint36_linear_2285_1458" x1="-80.1739" y1="-58.7603" x2="347.9" y2="181.117" gradientUnits="userSpaceOnUse">
<stop stop-color="#090909"/>
<stop offset="1" stop-color="#737373"/>
</linearGradient>
<linearGradient id="paint37_linear_2285_1458" x1="-93.8673" y1="-96.4504" x2="359.514" y2="505.977" gradientUnits="userSpaceOnUse">
<stop stop-color="#696969"/>
<stop offset="1" stop-color="#D2D2D2"/>
</linearGradient>
<linearGradient id="paint38_linear_2285_1458" x1="94.7775" y1="338.448" x2="344.731" y2="480.635" gradientUnits="userSpaceOnUse">
<stop stop-color="#2B2B2B"/>
<stop offset="1" stop-color="#565656"/>
</linearGradient>
<linearGradient id="paint39_linear_2285_1458" x1="143.724" y1="396.475" x2="396.276" y2="507.11" gradientUnits="userSpaceOnUse">
<stop stop-color="#010101"/>
<stop offset="1" stop-color="#555555"/>
</linearGradient>
<linearGradient id="paint40_linear_2285_1458" x1="199.223" y1="423.852" x2="499.261" y2="589.846" gradientUnits="userSpaceOnUse">
<stop stop-color="#0A0A0A"/>
<stop offset="1" stop-color="#5C5C5C"/>
</linearGradient>
<linearGradient id="paint41_linear_2285_1458" x1="269.347" y1="133.273" x2="761.494" y2="462.993" gradientUnits="userSpaceOnUse">
<stop stop-color="#2A2A2A"/>
<stop offset="1" stop-color="#AAAAAA"/>
</linearGradient>
<clipPath id="clip0_2285_1458">
<rect width="1024" height="1024" fill="white"/>
</clipPath>
</defs>
</svg>
