<svg width="1024" height="1024" viewBox="0 0 1024 1024" fill="none" xmlns="http://www.w3.org/2000/svg">
<g clip-path="url(#clip0_2285_1576)">
<path d="M1048.32 -135.396H-115.125V1075.88H1048.32V-135.396Z" fill="url(#paint0_linear_2285_1576)"/>
<path d="M-115.125 630.801L163.029 670.448L26.8263 459.061L-115.125 596.01V630.801Z" fill="#027476"/>
<path d="M-115.125 630.805V643.451L117.628 770.342L163.029 670.451L-115.125 630.805Z" fill="#88C5C6"/>
<path d="M117.629 770.34L301.301 723.89L163.03 670.449L117.629 770.34Z" fill="#21AE8B"/>
<path d="M-33.7529 1075.88L142.397 1004.94L-115.125 667.488V1075.88H-33.7529Z" fill="#21AE8B"/>
<path d="M101.454 1075.88L142.396 1004.94L-33.7539 1075.88H101.454Z" fill="#027476"/>
<path d="M-115.125 667.496L142.397 1004.95L117.628 770.348L-115.125 643.457V667.496Z" fill="#027476"/>
<path d="M414.801 742.461L652.147 791.232L563.388 180.336L414.801 742.461Z" fill="url(#paint1_linear_2285_1576)"/>
<path d="M26.8242 459.065L163.027 670.452L78.4038 391.725L26.8242 459.065Z" fill="#21AE8B"/>
<path d="M-115.125 434.809V596.01L26.8263 459.061L-115.125 434.809Z" fill="#88C5C6"/>
<path d="M563.391 180.336L652.15 791.232L885.333 596.12L563.391 180.336Z" fill="#88C5C6"/>
<path d="M563.391 180.336L689.277 -68.2168L885.333 596.12L563.391 180.336Z" fill="#88C5C6"/>
<path d="M652.145 791.231L885.327 596.119L792.457 781.947L652.145 791.231Z" fill="#88C5C6"/>
<path d="M885.331 596.119L1046.3 925.966L792.461 781.947L885.331 596.119Z" fill="#21AE8B"/>
<path d="M652.145 791.228L792.457 781.943L829.611 900.403L652.145 791.228Z" fill="#06908F"/>
<path d="M858.358 1075.89L829.614 900.41L791.762 1075.89H858.358Z" fill="#06908F"/>
<path d="M792.461 781.943L1046.3 925.963L829.614 900.403L792.461 781.943Z" fill="#88C5C6"/>
<path d="M1007.24 1075.89L829.613 900.41L858.358 1075.89H1007.24Z" fill="#88C5C6"/>
<path d="M90.8711 -135.396L563.388 180.337L689.275 -68.2158L352.664 -135.396H90.8711Z" fill="#88C5C6"/>
<path d="M-42.8867 -135.396L-115.125 -83.05V434.812L26.8263 459.065L-32.329 -135.396H-42.8867Z" fill="#027476"/>
<path d="M-19.8359 -135.396L563.389 180.337L90.8721 -135.396H-19.8359Z" fill="#88C5C6"/>
<path d="M-32.3281 -135.396L26.8272 459.065L78.4068 391.724L-31.5491 -135.396H-32.3281Z" fill="#88C5C6"/>
<path d="M302.103 1075.88L390.03 1039.79L142.394 1004.94L101.453 1075.88H302.103Z" fill="#88C5C6"/>
<path d="M414.8 742.465L652.147 791.236L390.031 1039.79L414.8 742.465Z" fill="url(#paint2_linear_2285_1576)"/>
<path d="M652.147 791.229L829.613 900.404L390.031 1039.78L652.147 791.229Z" fill="#21AE8B"/>
<path d="M791.761 1075.89L829.613 900.41L390.031 1039.79L417.03 1075.89H791.761Z" fill="#21AE8B"/>
<path d="M117.629 770.344L142.398 1004.94L295.122 849.317L117.629 770.344Z" fill="#88C5C6"/>
<path d="M117.629 770.343L301.301 723.893L295.122 849.316L117.629 770.343Z" fill="#88C5C6"/>
<path d="M142.395 1004.94L390.03 1039.78L295.118 849.311L142.395 1004.94Z" fill="#027476"/>
<path d="M301.304 723.893L414.806 742.462L295.125 849.316L301.304 723.893Z" fill="#027476"/>
<path d="M390.037 1039.79L414.806 742.465L295.125 849.319L390.037 1039.79Z" fill="url(#paint3_linear_2285_1576)"/>
<path d="M1017.34 1075.89L1035.99 1000.3L829.613 900.41L1007.24 1075.89H1017.34Z" fill="#027476"/>
<path d="M829.613 900.41L1046.3 925.97L1035.99 1000.3L829.613 900.41Z" fill="#21AE8B"/>
<path d="M1035.75 1075.89L1035.99 1000.3L1017.34 1075.89H1035.75Z" fill="url(#paint4_linear_2285_1576)"/>
<path d="M1048.32 -50.6346L689.273 -68.2168L885.33 596.12L1048.32 142.477V-50.6346Z" fill="#027476"/>
<path d="M1048.32 142.473L885.332 596.116L1046.3 925.963L1048.32 898.216V142.473Z" fill="#06908F"/>
<path d="M-31.5508 -135.396L78.4051 391.724L231.129 366.164L-29.321 -135.396H-31.5508Z" fill="#027476"/>
<path d="M-29.3203 -135.396L231.13 366.164L563.388 180.337L-19.8372 -135.396H-29.3203Z" fill="#06908F"/>
<path d="M78.4023 391.72L163.025 670.448L231.126 366.16L78.4023 391.72Z" fill="#88C5C6"/>
<path d="M163.027 670.448L301.298 723.888L231.128 366.16L163.027 670.448Z" fill="#027476"/>
<path d="M301.303 723.888L414.804 742.457L231.133 366.16L301.303 723.888Z" fill="url(#paint5_linear_2285_1576)"/>
<path d="M414.804 742.461L563.391 180.336L231.133 366.163L414.804 742.461Z" fill="url(#paint6_linear_2285_1576)"/>
<mask id="mask0_2285_1576" style="mask-type:luminance" maskUnits="userSpaceOnUse" x="650" y="764" width="165" height="370">
<path d="M650.429 764.766C701.269 791.008 806.064 919.691 813.295 1021.61C820.526 1123.53 783.054 1137.28 742.094 1132.44C734.804 1128.99 725.357 1130.18 721.57 1115.23" fill="white"/>
</mask>
<g mask="url(#mask0_2285_1576)">
<path d="M793.487 985.524C793.487 985.524 791.181 983.903 787.169 981.94C773.022 975.042 737.616 963.92 706.073 1004.23C665.563 1056 682.779 1298.47 796.885 1213.33C910.977 1128.23 891.126 1001.36 891.126 1001.36L899.988 858.164L867.786 897.445" fill="white"/>
</g>
<path d="M662.498 766.633C714.282 794.897 817.864 927.683 821.068 1029.8C824.272 1131.91 784.719 1144.16 742.307 1137.66C734.867 1133.93 724.986 1134.74 721.678 1119.64" fill="white"/>
<path d="M517.309 1307C397.187 1307 299.809 1170.89 299.809 1003C299.809 835.105 397.187 699 517.309 699C637.431 699 734.809 835.105 734.809 1003C734.809 1170.89 637.431 1307 517.309 1307Z" fill="white"/>
<path d="M386.57 734.633C338.38 759.284 189.541 916.915 188.434 1024.19C186.607 1201.03 309.007 1140.92 300.339 1110.3C300.339 1110.3 316.538 1071.88 314.052 1060.88C311.567 1049.88 294.366 969.146 319.337 937.76" fill="white"/>
<mask id="mask1_2285_1576" style="mask-type:luminance" maskUnits="userSpaceOnUse" x="188" y="734" width="199" height="412">
<path d="M386.578 734.629C338.388 759.28 189.549 916.911 188.441 1024.18C186.615 1201.02 309.015 1140.91 300.347 1110.3C300.347 1110.3 316.545 1071.88 314.06 1060.88C311.575 1049.88 294.374 969.142 319.345 937.756" fill="white"/>
</mask>
<g mask="url(#mask1_2285_1576)">
<path d="M143.782 1010.4C143.782 1010.4 144.89 1010.22 146.881 1009.94C162.061 1007.77 228.471 999.738 244.685 1022.56C263.039 1048.37 316.544 1005.86 316.544 1005.86C316.544 1005.86 414.392 1187.31 259.97 1189.59C105.547 1191.86 100.966 1070.39 100.966 1070.39" fill="white"/>
</g>
<path d="M299.772 1003.85C276.592 998.841 221.964 991.825 188.887 1003.85M724.517 1003.85C740.805 998.841 780.523 989.193 809.09 990.696" stroke="#00DFA7" stroke-width="14.187" stroke-miterlimit="10" stroke-linecap="round" stroke-linejoin="round"/>
<path d="M247.148 872.293C265.942 879.811 315.284 903.958 325.809 922M707.603 917.399C715.12 907.375 735.418 884.321 756.467 872.293" stroke="#00DFA7" stroke-width="14.187" stroke-miterlimit="10" stroke-linecap="round" stroke-linejoin="round"/>
<path d="M314.809 951.23L530.94 1050.84H592.961L707.604 968.145" stroke="#06908F" stroke-width="14.187" stroke-miterlimit="10" stroke-linecap="round" stroke-linejoin="round"/>
<path d="M369.309 849.742L470.796 885.451L493.349 939.954M677.531 859.139L621.149 885.451L604.234 939.954" stroke="#06908F" stroke-width="14.187" stroke-miterlimit="10" stroke-linecap="round" stroke-linejoin="round"/>
<path d="M401.356 782.449C380.846 804.766 330.253 902.759 310.042 968.728M518.09 1153.52L511.817 1267.47C484.031 1263.78 470.423 1264.96 505.933 1272.21C567.897 1284.87 550.711 1320.22 542.207 1336.31H310.042C310.042 1264.53 305.476 1198.28 305.476 1103.61" stroke="#053A3B" stroke-width="14.8245" stroke-linecap="round" stroke-linejoin="round"/>
<path d="M662.498 766.633C714.282 794.897 817.864 927.683 821.068 1029.8C824.272 1131.91 784.719 1144.16 742.307 1137.66C734.867 1133.93 724.986 1134.74 721.678 1119.64" stroke="#053A3B" stroke-width="14.1892" stroke-linecap="round"/>
<path d="M648.089 782.449C668.09 813.464 748.679 976.597 725.062 1094.36C709.313 1240.22 691.303 1233.91 698.803 1255.2C701.064 1263.62 704.372 1263.23 717.127 1273.49C727.322 1281.7 727.307 1320.12 725.062 1334.84H543.527" stroke="#053A3B" stroke-width="14.8245" stroke-linecap="round"/>
<path d="M310.235 968.355C308.948 977.841 303.439 998.686 303.678 1005.66C304.621 1032.51 335.476 1052.63 312.122 1096.18C305.699 1106.36 291.642 1123.98 280.728 1095.49L281.941 1066.59" stroke="#053A3B" stroke-width="14.8245" stroke-linecap="round"/>
<path d="M386.57 734.629C338.38 759.28 189.541 916.911 188.434 1024.18C186.607 1201.02 309.007 1140.91 300.339 1110.3" stroke="#053A3B" stroke-width="14.8245" stroke-linecap="round"/>
<path d="M831.384 389.56C831.344 389.36 831.25 389.256 831.309 389.061C832.879 382.498 876.9 198.334 821.64 113.748C821.314 113.287 820.825 113.115 820.318 113.289C810.246 117.618 706.311 163.383 675.668 216.125C675.34 216.704 674.635 216.869 674.051 216.594C667.4 213.159 627.338 195.714 503.044 200.149C372.783 205.441 339.704 224.93 333.809 229.358C333.24 229.777 332.349 229.685 331.931 229.071C297.422 178.9 190.646 141.266 180.267 137.705C179.728 137.531 179.269 137.757 178.996 138.239C130.101 226.774 187.491 407.107 189.515 413.493C189.554 413.693 189.55 413.792 189.49 413.988C148.525 579.672 186.341 658.58 186.752 659.342C186.752 659.342 186.752 659.342 186.749 659.391C240.819 752.936 377.913 785.611 462.39 796.98C510.019 803.389 558.375 801.165 605.169 790.248C684.354 771.746 806.075 728.753 851.881 634.228C851.991 634.035 852.048 633.889 852.107 633.694C854.147 628.689 882.978 547.182 831.384 389.56Z" fill="white"/>
<path d="M173.852 527.401C242.763 508.607 424.564 474.026 562.888 471.019C701.213 468.012 812.217 492.971 849.805 505.5" stroke="#06908F" stroke-width="14.187" stroke-miterlimit="10" stroke-linecap="round" stroke-linejoin="round"/>
<path d="M233.995 336.664C227.73 413.093 233.997 614.816 282.861 701.269" stroke="#06908F" stroke-width="14.187" stroke-miterlimit="10" stroke-linecap="round" stroke-linejoin="round"/>
<path d="M500.809 201C536.766 239.055 582.563 395.167 569.544 555" stroke="#06908F" stroke-width="14.187" stroke-miterlimit="10" stroke-linecap="round" stroke-linejoin="round"/>
<path d="M233.809 711C340.349 687.132 605.107 648.063 811.809 682.735" stroke="#06908F" stroke-width="14.187" stroke-miterlimit="10" stroke-linecap="round" stroke-linejoin="round"/>
<path d="M782.777 329.145C809.089 487.015 814.727 569.708 767.742 674.955" stroke="#06908F" stroke-width="14.187" stroke-miterlimit="10" stroke-linecap="round" stroke-linejoin="round"/>
<path d="M269.702 178.794L243.391 208.865M155.059 244.573H190.767M726.398 160L758.348 195.709M812.85 222.02H837.283" stroke="#06908F" stroke-width="14.187" stroke-miterlimit="10" stroke-linecap="round" stroke-linejoin="round"/>
<path d="M237.75 336.663C342.683 307.846 596.528 264.682 772.441 322.568" stroke="#06908F" stroke-width="14.187" stroke-miterlimit="10" stroke-linecap="round" stroke-linejoin="round"/>
<path d="M455.761 678.715C459.52 703.148 455.761 761.409 442.605 789.6M666.255 669.318C666.881 691.245 665.127 742.239 653.099 770.806" stroke="#06908F" stroke-width="14.187" stroke-miterlimit="10" stroke-linecap="round" stroke-linejoin="round"/>
<path d="M828.668 389.765C828.578 389.563 828.534 389.462 828.593 389.266C830.161 382.705 871.96 207.506 822.761 120.442C821.343 117.899 813.346 115.44 809.882 117.009C782.981 129.301 699.741 170.167 672.912 216.383C672.585 216.962 671.879 217.127 671.295 216.851C664.642 213.416 624.564 195.965 500.241 200.366C369.949 205.622 336.867 225.099 330.972 229.523C330.403 229.942 329.511 229.85 329.093 229.236C302.184 190.126 231.324 158.636 196.489 144.95C189.796 142.305 181.474 144.435 178.296 146.265C175.168 148.098 169.035 153.304 167.118 158.858C135.247 251.83 184.669 407.142 186.693 413.577C186.733 413.777 186.728 413.876 186.666 414.12C145.737 579.754 183.585 658.653 183.995 659.415C183.995 659.415 183.995 659.415 183.993 659.465C238.102 753 375.239 785.704 459.738 797.141C507.381 803.562 555.748 801.35 602.551 790.448C681.648 772.017 803.033 729.197 849.008 635.013C849.229 634.578 849.506 633.997 849.63 633.507C852.789 624.991 879.055 543.688 828.668 389.765Z" stroke="#053A3B" stroke-width="14.187" stroke-miterlimit="10" stroke-linecap="round" stroke-linejoin="round"/>
<path d="M808.115 152.841C807.913 151.89 806.786 151.54 806.154 152.253C798.171 161.778 759.786 207.595 734.979 234.397C725.569 244.597 725.279 261.516 734.364 271.947L782.984 327.913C783.642 328.687 786.461 329.018 787.242 328.312C797.023 319.664 832.902 278.235 808.115 152.841Z" fill="#06908F" stroke="#06908F" stroke-width="14.187" stroke-miterlimit="10" stroke-linecap="round" stroke-linejoin="round"/>
<path d="M242.264 340.554C243.133 341.091 245.863 340.229 246.354 339.361L289.179 265.424C293.153 258.531 291.126 249.225 284.584 244.658C256.69 225.069 201.046 179.955 190.378 171.281C189.66 170.703 188.586 171.296 188.589 172.237C188.034 300.064 231.096 333.936 242.264 340.554Z" fill="#06908F" stroke="#06908F" stroke-width="14.187" stroke-miterlimit="10" stroke-linecap="round" stroke-linejoin="round"/>
<circle cx="267.82" cy="367.672" r="15.0352" fill="#00DFA7" stroke="#06908F" stroke-width="14.187" stroke-miterlimit="10" stroke-linecap="round" stroke-linejoin="round"/>
<circle cx="748.945" cy="352.637" r="15.0352" fill="#00DFA7" stroke="#06908F" stroke-width="14.187" stroke-miterlimit="10" stroke-linecap="round" stroke-linejoin="round"/>
<circle cx="420.992" cy="714.422" r="15.0352" fill="#00DFA7" stroke="#06908F" stroke-width="14.187" stroke-miterlimit="10" stroke-linecap="round" stroke-linejoin="round"/>
<circle cx="697.266" cy="705.025" r="15.0352" fill="#00DFA7" stroke="#06908F" stroke-width="14.187" stroke-miterlimit="10" stroke-linecap="round" stroke-linejoin="round"/>
<circle cx="257.484" cy="909.879" r="15.0352" fill="#00DFA7" stroke="#06908F" stroke-width="14.187" stroke-miterlimit="10" stroke-linecap="round" stroke-linejoin="round"/>
<circle cx="749.887" cy="915.52" r="15.0352" fill="#00DFA7" stroke="#06908F" stroke-width="14.187" stroke-miterlimit="10" stroke-linecap="round" stroke-linejoin="round"/>
<path d="M710.046 411.183C709.8 409.057 708.606 407.155 706.798 406.009C704.991 404.863 702.762 404.594 700.733 405.278L614.733 434.278C611.317 435.43 609.309 438.961 610.064 442.486C612.226 452.575 617.654 467.329 627.232 478.919C636.995 490.733 651.668 499.804 671.358 495.962C691.608 492.011 701.826 475.33 706.617 458.687C711.435 441.95 711.451 423.303 710.046 411.183ZM407.824 405.145C405.695 404.579 403.423 405.033 401.677 406.376C399.93 407.719 398.906 409.797 398.906 412C398.906 423.825 400.453 441.097 407.063 457.194C413.732 473.437 425.784 488.928 446.812 495.748C464.367 501.441 480.554 493.252 492.838 482.332C505.246 471.301 515.235 456.217 521.326 444.209C522.294 442.3 522.349 440.057 521.475 438.103C520.601 436.15 518.892 434.695 516.824 434.145L407.824 405.145Z" fill="#00DFA7" stroke="#053A3B" stroke-width="14.187" stroke-miterlimit="10" stroke-linecap="round" stroke-linejoin="round"/>
<path d="M576.197 529.325C578.05 526.886 580.003 524.671 582.092 522.682C583.906 521.047 585.97 519.571 588.289 518.179C590.605 516.825 593.035 516.172 595.614 516.259C599.258 516.434 602.285 517.166 604.766 518.494C607.248 519.823 609.229 521.567 610.751 523.655C612.271 525.78 613.333 528.213 613.976 530.919C614.618 533.662 614.887 536.46 614.821 539.351C614.754 542.243 614.359 545.046 613.601 547.721C612.844 550.396 611.911 552.88 610.726 555.242C609.543 557.567 608.256 559.74 606.795 561.722C605.37 563.706 603.915 565.542 602.435 567.156C600.175 569.613 597.849 571.92 595.383 574.073C592.916 576.227 590.575 578.093 588.323 579.634C586.069 581.212 584.017 582.432 582.163 583.369C580.31 584.306 578.848 584.786 577.775 584.844C576.626 584.936 575.093 584.606 573.251 583.784C571.407 583 569.396 581.877 567.176 580.488C564.956 579.099 562.64 577.412 560.15 575.497C557.662 573.545 555.253 571.487 552.813 569.318C551.257 567.924 549.528 566.302 547.736 564.457C545.907 562.61 544.198 560.586 542.573 558.346C540.948 556.106 539.515 553.692 538.315 551.069C537.114 548.446 536.403 545.627 536.144 542.61C535.922 539.594 536.132 536.783 536.779 534.102C537.425 531.458 538.501 529.054 539.935 526.888C541.367 524.758 543.191 522.903 545.329 521.43C547.506 519.922 549.957 518.831 552.72 518.157C554.102 517.821 555.51 517.705 556.903 517.882C558.298 518.022 559.685 518.345 561.066 518.778C562.41 519.209 563.747 519.786 564.967 520.504C566.223 521.224 567.406 521.941 568.548 522.728C571.227 524.543 573.776 526.754 576.197 529.325Z" fill="#06908F" stroke="#053A3B" stroke-width="14" stroke-miterlimit="10" stroke-linecap="round" stroke-linejoin="round"/>
<rect x="506.848" y="880" width="83.8462" height="20.7692" fill="#038383"/>
<path fill-rule="evenodd" clip-rule="evenodd" d="M548 938.459C578.376 938.459 603 932.776 603 925.767C603 918.757 578.376 913.074 548 913.074C517.624 913.074 493 918.757 493 925.767C493 932.776 517.624 938.459 548 938.459ZM548.386 933.844C576.425 933.844 599.156 929.712 599.156 924.614C599.156 919.516 576.425 915.383 548.386 915.383C520.347 915.383 497.617 919.516 497.617 924.614C497.617 929.712 520.347 933.844 548.386 933.844Z" fill="#038383"/>
<path fill-rule="evenodd" clip-rule="evenodd" d="M537.613 933.982L537.613 980.004H559.152L559.152 933.948C555.736 934.132 552.141 934.232 548.383 934.232C544.566 934.232 540.977 934.145 537.613 933.982ZM537.613 929.793C541.084 929.929 544.687 930.001 548.383 930.001C552.078 930.001 555.681 929.929 559.152 929.793L559.152 896.158H537.613L537.613 929.793Z" fill="#038383"/>
<path d="M579 587V612M282 691L579 617L768 660" stroke="#053A3B" stroke-width="14" stroke-miterlimit="10" stroke-linecap="round" stroke-linejoin="round"/>
</g>
<defs>
<linearGradient id="paint0_linear_2285_1576" x1="-115.125" y1="470.244" x2="1048.31" y2="470.244" gradientUnits="userSpaceOnUse">
<stop stop-color="#101010"/>
<stop offset="1" stop-color="#484848"/>
</linearGradient>
<linearGradient id="paint1_linear_2285_1576" x1="382.897" y1="220.131" x2="819.108" y2="412.163" gradientUnits="userSpaceOnUse">
<stop stop-color="#101010"/>
<stop offset="1" stop-color="#484848"/>
</linearGradient>
<linearGradient id="paint2_linear_2285_1576" x1="368.892" y1="763.202" x2="636.633" y2="1030.68" gradientUnits="userSpaceOnUse">
<stop stop-color="#0A0A0A"/>
<stop offset="1" stop-color="#0A0A0A"/>
</linearGradient>
<linearGradient id="paint3_linear_2285_1576" x1="314.441" y1="707.127" x2="524.382" y2="802.901" gradientUnits="userSpaceOnUse">
<stop stop-color="#070707"/>
<stop offset="1" stop-color="#070707"/>
</linearGradient>
<linearGradient id="paint4_linear_2285_1576" x1="1020.49" y1="871.9" x2="1061.71" y2="873.431" gradientUnits="userSpaceOnUse">
<stop stop-color="#070707"/>
<stop offset="1" stop-color="#060606"/>
</linearGradient>
<linearGradient id="paint5_linear_2285_1576" x1="199.223" y1="423.852" x2="499.261" y2="589.846" gradientUnits="userSpaceOnUse">
<stop stop-color="#0A0A0A"/>
<stop offset="1" stop-color="#5C5C5C"/>
</linearGradient>
<linearGradient id="paint6_linear_2285_1576" x1="269.347" y1="133.273" x2="761.494" y2="462.993" gradientUnits="userSpaceOnUse">
<stop stop-color="#2A2A2A"/>
<stop offset="1" stop-color="#AAAAAA"/>
</linearGradient>
<clipPath id="clip0_2285_1576">
<rect width="1024" height="1024" fill="white"/>
</clipPath>
</defs>
</svg>
