<svg width="1024" height="1024" viewBox="0 0 1024 1024" fill="none" xmlns="http://www.w3.org/2000/svg">
<g clip-path="url(#clip0_2285_1697)">
<path d="M1048.32 -135.396H-115.125V1075.88H1048.32V-135.396Z" fill="url(#paint0_linear_2285_1697)"/>
<path d="M-115.125 630.801L163.029 670.448L26.8263 459.061L-115.125 596.01V630.801Z" fill="#7A52E6"/>
<path d="M-115.125 630.805V643.451L117.628 770.342L163.029 670.451L-115.125 630.805Z" fill="#EAD6FF"/>
<path d="M117.629 770.34L301.301 723.89L163.03 670.449L117.629 770.34Z" fill="#7F39C5"/>
<path d="M-33.7529 1075.88L142.397 1004.94L-115.125 667.488V1075.88H-33.7529Z" fill="#EAD6FF"/>
<path d="M101.454 1075.88L142.396 1004.94L-33.7539 1075.88H101.454Z" fill="#7E40E5"/>
<path d="M-115.125 667.496L142.397 1004.95L117.628 770.348L-115.125 643.457V667.496Z" fill="#7A52E6"/>
<path d="M414.801 742.461L652.147 791.232L563.388 180.336L414.801 742.461Z" fill="url(#paint1_linear_2285_1697)"/>
<path d="M26.8242 459.065L163.027 670.452L78.4038 391.725L26.8242 459.065Z" fill="#7F39C5"/>
<path d="M-115.125 434.809V596.01L26.8263 459.061L-115.125 434.809Z" fill="#B89DFF"/>
<path d="M563.391 180.336L652.15 791.232L885.333 596.12L563.391 180.336Z" fill="#72489C"/>
<path d="M563.391 180.336L689.277 -68.2168L885.333 596.12L563.391 180.336Z" fill="#E9D4FF"/>
<path d="M652.145 791.231L885.327 596.119L792.457 781.947L652.145 791.231Z" fill="#B89DFF"/>
<path d="M885.331 596.119L1046.3 925.966L792.461 781.947L885.331 596.119Z" fill="#EAD6FF"/>
<path d="M652.145 791.228L792.457 781.943L829.611 900.403L652.145 791.228Z" fill="#AE5CFF"/>
<path d="M858.358 1075.89L829.614 900.41L791.762 1075.89H858.358Z" fill="#893CE3"/>
<path d="M792.461 781.943L1046.3 925.963L829.614 900.403L792.461 781.943Z" fill="#CE9DFF"/>
<path d="M1007.24 1075.89L829.613 900.41L858.358 1075.89H1007.24Z" fill="#B89DFF"/>
<path d="M90.8711 -135.396L563.388 180.337L689.275 -68.2158L352.664 -135.396H90.8711Z" fill="#CE9DFF"/>
<path d="M-42.8867 -135.396L-115.125 -83.05V434.812L26.8263 459.065L-32.329 -135.396H-42.8867Z" fill="#AE5CFF"/>
<path d="M-19.8359 -135.396L563.389 180.337L90.8721 -135.396H-19.8359Z" fill="#6D08D3"/>
<path d="M-32.3281 -135.396L26.8272 459.065L78.4068 391.724L-31.5491 -135.396H-32.3281Z" fill="#CE9DFF"/>
<path d="M302.103 1075.88L390.03 1039.79L142.394 1004.94L101.453 1075.88H302.103Z" fill="#B89DFF"/>
<path d="M414.8 742.465L652.147 791.236L390.031 1039.79L414.8 742.465Z" fill="url(#paint2_linear_2285_1697)"/>
<path d="M652.147 791.229L829.613 900.404L390.031 1039.78L652.147 791.229Z" fill="#E9D4FF"/>
<path d="M791.761 1075.89L829.613 900.41L390.031 1039.79L417.03 1075.89H791.761Z" fill="#B89DFF"/>
<path d="M117.629 770.344L142.398 1004.94L295.122 849.317L117.629 770.344Z" fill="#B89DFF"/>
<path d="M117.629 770.343L301.301 723.893L295.122 849.316L117.629 770.343Z" fill="#B89DFF"/>
<path d="M142.395 1004.94L390.03 1039.78L295.118 849.311L142.395 1004.94Z" fill="#7A52E6"/>
<path d="M301.304 723.893L414.806 742.462L295.125 849.316L301.304 723.893Z" fill="#7F39C5"/>
<path d="M390.037 1039.79L414.806 742.465L295.125 849.319L390.037 1039.79Z" fill="url(#paint3_linear_2285_1697)"/>
<path d="M1017.34 1075.89L1035.99 1000.3L829.613 900.41L1007.24 1075.89H1017.34Z" fill="#7F39C5"/>
<path d="M829.613 900.41L1046.3 925.97L1035.99 1000.3L829.613 900.41Z" fill="#7A52E6"/>
<path d="M1035.75 1075.89L1035.99 1000.3L1017.34 1075.89H1035.75Z" fill="url(#paint4_linear_2285_1697)"/>
<path d="M1048.32 -50.6346L689.273 -68.2168L885.33 596.12L1048.32 142.477V-50.6346Z" fill="#734FD4"/>
<path d="M1048.32 142.473L885.332 596.116L1046.3 925.963L1048.32 898.216V142.473Z" fill="#B89DFF"/>
<path d="M-31.5508 -135.396L78.4051 391.724L231.129 366.164L-29.321 -135.396H-31.5508Z" fill="#E9D4FF"/>
<path d="M-29.3203 -135.396L231.13 366.164L563.388 180.337L-19.8372 -135.396H-29.3203Z" fill="#7A52E6"/>
<path d="M78.4023 391.72L163.025 670.448L231.126 366.16L78.4023 391.72Z" fill="#B89DFF"/>
<path d="M163.027 670.448L301.298 723.888L231.128 366.16L163.027 670.448Z" fill="#7A52E6"/>
<path d="M301.303 723.888L414.804 742.457L231.133 366.16L301.303 723.888Z" fill="url(#paint5_linear_2285_1697)"/>
<path d="M414.804 742.461L563.391 180.336L231.133 366.163L414.804 742.461Z" fill="url(#paint6_linear_2285_1697)"/>
<mask id="mask0_2285_1697" style="mask-type:luminance" maskUnits="userSpaceOnUse" x="648" y="764" width="165" height="370">
<path d="M648.429 764.766C699.269 791.008 804.064 919.691 811.295 1021.61C818.526 1123.53 781.054 1137.28 740.094 1132.44C732.804 1128.99 723.357 1130.18 719.57 1115.23" fill="white"/>
</mask>
<g mask="url(#mask0_2285_1697)">
<path d="M791.487 985.524C791.487 985.524 789.181 983.903 785.169 981.94C771.022 975.042 735.616 963.92 704.073 1004.23C663.563 1056 680.779 1298.47 794.885 1213.33C908.977 1128.23 889.126 1001.36 889.126 1001.36L897.988 858.164L865.786 897.445" fill="white"/>
</g>
<path d="M660.498 766.633C712.282 794.897 815.864 927.683 819.068 1029.8C822.272 1131.91 782.719 1144.16 740.307 1137.66C732.867 1133.93 722.986 1134.74 719.678 1119.64" fill="white"/>
<path d="M515.309 1307C395.187 1307 297.809 1170.89 297.809 1003C297.809 835.105 395.187 699 515.309 699C635.431 699 732.809 835.105 732.809 1003C732.809 1170.89 635.431 1307 515.309 1307Z" fill="white"/>
<path d="M384.57 734.631C336.38 759.282 187.541 916.913 186.434 1024.19C184.607 1201.03 307.007 1140.91 298.339 1110.3C298.339 1110.3 314.538 1071.88 312.052 1060.88C309.567 1049.88 292.366 969.144 317.337 937.758" fill="white"/>
<mask id="mask1_2285_1697" style="mask-type:luminance" maskUnits="userSpaceOnUse" x="186" y="734" width="199" height="412">
<path d="M384.578 734.629C336.388 759.28 187.549 916.911 186.441 1024.18C184.615 1201.02 307.015 1140.91 298.347 1110.3C298.347 1110.3 314.545 1071.88 312.06 1060.88C309.575 1049.88 292.374 969.142 317.345 937.756" fill="white"/>
</mask>
<g mask="url(#mask1_2285_1697)">
<path d="M141.782 1010.4C141.782 1010.4 142.89 1010.22 144.881 1009.94C160.061 1007.77 226.471 999.738 242.685 1022.56C261.039 1048.37 314.544 1005.86 314.544 1005.86C314.544 1005.86 412.392 1187.31 257.97 1189.59C103.547 1191.86 98.9662 1070.39 98.9662 1070.39" fill="white"/>
</g>
<path d="M297.772 1003.85C274.592 998.841 219.964 991.825 186.887 1003.85M722.517 1003.85C738.805 998.841 778.523 989.193 807.09 990.696" stroke="#7309DD" stroke-width="14.187" stroke-miterlimit="10" stroke-linecap="round" stroke-linejoin="round"/>
<path d="M245.148 872.293C263.942 879.811 313.284 903.958 323.809 922M705.603 917.399C713.12 907.375 733.418 884.321 754.467 872.293" stroke="#7309DD" stroke-width="14.187" stroke-miterlimit="10" stroke-linecap="round" stroke-linejoin="round"/>
<path d="M312.809 951.23L528.94 1050.84H590.961L705.604 968.145" stroke="#7A52E6" stroke-width="14.187" stroke-miterlimit="10" stroke-linecap="round" stroke-linejoin="round"/>
<path d="M367.309 849.742L468.796 885.451L491.349 939.954M675.531 859.139L619.149 885.451L602.234 939.954" stroke="#7A52E6" stroke-width="14.187" stroke-miterlimit="10" stroke-linecap="round" stroke-linejoin="round"/>
<path d="M399.356 782.449C378.846 804.766 328.253 902.759 308.042 968.728M516.09 1153.52L509.817 1267.47C482.031 1263.78 468.423 1264.96 503.933 1272.21C565.897 1284.87 548.711 1320.22 540.207 1336.31H308.042C308.042 1264.53 303.476 1198.28 303.476 1103.61" stroke="#7309DD" stroke-width="14.8245" stroke-linecap="round" stroke-linejoin="round"/>
<path d="M660.498 766.633C712.282 794.897 815.864 927.683 819.068 1029.8C822.272 1131.91 782.719 1144.16 740.307 1137.66C732.867 1133.93 722.986 1134.74 719.678 1119.64" stroke="#7309DD" stroke-width="14.1892" stroke-linecap="round"/>
<path d="M646.089 782.449C666.09 813.464 746.679 976.597 723.062 1094.36C707.313 1240.22 689.303 1233.91 696.803 1255.2C699.064 1263.62 702.372 1263.23 715.127 1273.49C725.322 1281.7 725.307 1320.12 723.062 1334.84H541.527" stroke="#7309DD" stroke-width="14.8245" stroke-linecap="round"/>
<path d="M308.235 968.355C306.948 977.841 301.439 998.686 301.678 1005.66C302.621 1032.51 333.476 1052.63 310.122 1096.18C303.699 1106.36 289.642 1123.98 278.728 1095.49L279.941 1066.59" stroke="#7309DD" stroke-width="14.8245" stroke-linecap="round"/>
<path d="M384.57 734.629C336.38 759.28 187.541 916.911 186.434 1024.18C184.607 1201.02 307.007 1140.91 298.339 1110.3" stroke="#7309DD" stroke-width="14.8245" stroke-linecap="round"/>
<path d="M829.384 389.559C829.344 389.359 829.25 389.255 829.309 389.06C830.879 382.497 874.9 198.333 819.64 113.747C819.314 113.286 818.825 113.114 818.318 113.288C808.246 117.618 704.311 163.382 673.668 216.124C673.34 216.703 672.635 216.868 672.051 216.593C665.4 213.158 625.338 195.713 501.044 200.148C370.783 205.44 337.704 224.93 331.809 229.357C331.24 229.776 330.349 229.684 329.931 229.07C295.422 178.899 188.646 141.265 178.267 137.704C177.728 137.53 177.269 137.756 176.996 138.238C128.101 226.773 185.491 407.106 187.515 413.492C187.554 413.692 187.55 413.791 187.49 413.987C146.525 579.671 184.341 658.579 184.752 659.341C184.752 659.341 184.752 659.341 184.749 659.39C238.819 752.935 375.913 785.61 460.39 796.979C508.019 803.388 556.375 801.164 603.169 790.247C682.354 771.746 804.075 728.752 849.881 634.227C849.991 634.034 850.048 633.888 850.107 633.693C852.147 628.688 880.978 547.181 829.384 389.559Z" fill="white"/>
<path d="M250.809 591C321.225 568.827 607.604 530.658 789.809 564.295" stroke="#7309DD" stroke-width="14.187" stroke-miterlimit="10" stroke-linecap="round" stroke-linejoin="round"/>
<path d="M171.852 527.401C240.763 508.607 422.564 474.026 560.888 471.019C699.213 468.012 810.217 492.971 847.805 505.5" stroke="#7309DD" stroke-width="14.187" stroke-miterlimit="10" stroke-linecap="round" stroke-linejoin="round"/>
<path d="M231.995 336.664C225.73 413.093 231.997 614.816 280.861 701.269" stroke="#7309DD" stroke-width="14.187" stroke-miterlimit="10" stroke-linecap="round" stroke-linejoin="round"/>
<path d="M498.809 201C534.766 239.055 580.563 395.167 567.544 555" stroke="#7309DD" stroke-width="14.187" stroke-miterlimit="10" stroke-linecap="round" stroke-linejoin="round"/>
<path d="M231.809 711C338.349 687.132 603.107 648.063 809.809 682.735" stroke="#7309DD" stroke-width="14.187" stroke-miterlimit="10" stroke-linecap="round" stroke-linejoin="round"/>
<path d="M780.777 329.145C807.089 487.015 812.727 569.708 765.742 674.955" stroke="#7309DD" stroke-width="14.187" stroke-miterlimit="10" stroke-linecap="round" stroke-linejoin="round"/>
<path d="M267.702 178.794L241.391 208.865M153.059 244.573H188.767M728.5 165.5L756.348 195.709M810.85 222.02H835.283" stroke="#7309DD" stroke-width="14.187" stroke-miterlimit="10" stroke-linecap="round" stroke-linejoin="round"/>
<path d="M235.75 336.663C340.683 307.846 594.528 264.682 770.441 322.568" stroke="#7309DD" stroke-width="14.187" stroke-miterlimit="10" stroke-linecap="round" stroke-linejoin="round"/>
<path d="M453.761 678.715C457.52 703.148 453.761 761.409 440.605 789.6M664.255 669.318C664.881 691.245 663.127 742.239 651.099 770.806" stroke="#7309DD" stroke-width="14.187" stroke-miterlimit="10" stroke-linecap="round" stroke-linejoin="round"/>
<path d="M826.668 389.765C826.578 389.563 826.534 389.462 826.593 389.266C828.161 382.705 869.96 207.506 820.761 120.442C819.343 117.899 811.346 115.44 807.882 117.009C780.981 129.301 697.741 170.167 670.912 216.383C670.585 216.962 669.879 217.127 669.295 216.851C662.642 213.416 622.564 195.965 498.241 200.366C367.949 205.622 334.867 225.099 328.972 229.523C328.403 229.942 327.511 229.85 327.093 229.236C300.184 190.126 229.324 158.636 194.489 144.95C187.796 142.305 179.474 144.435 176.296 146.265C173.168 148.098 167.035 153.304 165.118 158.858C133.247 251.83 182.669 407.142 184.693 413.577C184.733 413.777 184.728 413.876 184.666 414.12C143.737 579.754 181.585 658.653 181.995 659.415C181.995 659.415 181.995 659.415 181.993 659.465C236.102 753 373.239 785.704 457.738 797.141C505.381 803.562 553.748 801.35 600.551 790.448C679.648 772.017 801.033 729.197 847.008 635.013C847.229 634.578 847.506 633.997 847.63 633.507C850.789 624.991 877.055 543.688 826.668 389.765Z" stroke="#7A52E6" stroke-width="14.187" stroke-miterlimit="10" stroke-linecap="round" stroke-linejoin="round"/>
<path d="M806.115 152.841C805.913 151.89 804.786 151.54 804.154 152.253C796.171 161.778 757.786 207.595 732.979 234.397C723.569 244.597 723.279 261.516 732.364 271.947L780.984 327.913C781.642 328.687 784.461 329.018 785.242 328.312C795.023 319.664 830.902 278.235 806.115 152.841Z" fill="#7A52E6" stroke="#7A52E6" stroke-width="14.187" stroke-miterlimit="10" stroke-linecap="round" stroke-linejoin="round"/>
<path d="M240.264 340.554C241.133 341.091 243.863 340.229 244.354 339.361L287.179 265.424C291.153 258.531 289.126 249.225 282.584 244.658C254.69 225.069 199.046 179.955 188.378 171.281C187.66 170.703 186.586 171.296 186.589 172.237C186.034 300.064 229.096 333.936 240.264 340.554Z" fill="#7A52E6" stroke="#7A52E6" stroke-width="14.187" stroke-miterlimit="10" stroke-linecap="round" stroke-linejoin="round"/>
<circle cx="265.82" cy="367.672" r="15.0352" fill="#9AF452" stroke="#744CEB" stroke-width="14.187" stroke-miterlimit="10" stroke-linecap="round" stroke-linejoin="round"/>
<circle cx="746.945" cy="352.637" r="15.0352" fill="#9AF452" stroke="#744CEB" stroke-width="14.187" stroke-miterlimit="10" stroke-linecap="round" stroke-linejoin="round"/>
<circle cx="418.992" cy="714.422" r="15.0352" fill="#9AF452" stroke="#744CEB" stroke-width="14.187" stroke-miterlimit="10" stroke-linecap="round" stroke-linejoin="round"/>
<circle cx="695.266" cy="705.025" r="15.0352" fill="#9AF452" stroke="#744CEB" stroke-width="14.187" stroke-miterlimit="10" stroke-linecap="round" stroke-linejoin="round"/>
<circle cx="255.484" cy="909.879" r="15.0352" fill="#9AF452" stroke="#744CEB" stroke-width="14.187" stroke-miterlimit="10" stroke-linecap="round" stroke-linejoin="round"/>
<circle cx="747.887" cy="915.52" r="15.0352" fill="#9AF452" stroke="#744CEB" stroke-width="14.187" stroke-miterlimit="10" stroke-linecap="round" stroke-linejoin="round"/>
<path d="M573.24 509.864C575.093 507.425 577.046 505.21 579.135 503.221C580.949 501.586 583.013 500.11 585.332 498.719C587.648 497.364 590.078 496.711 592.657 496.798C596.301 496.973 599.328 497.705 601.809 499.033C604.291 500.362 606.272 502.106 607.794 504.194C609.314 506.319 610.376 508.752 611.019 511.458C611.661 514.201 611.93 516.999 611.863 519.89C611.797 522.782 611.402 525.585 610.644 528.26C609.887 530.935 608.954 533.419 607.769 535.781C606.586 538.106 605.299 540.279 603.838 542.261C602.413 544.245 600.958 546.081 599.478 547.695C597.218 550.152 594.892 552.459 592.426 554.612C589.959 556.766 587.618 558.632 585.366 560.173C583.112 561.751 581.06 562.971 579.206 563.908C577.353 564.845 575.891 565.325 574.818 565.383C573.669 565.475 572.136 565.145 570.294 564.323C568.45 563.539 566.439 562.416 564.219 561.027C561.999 559.638 559.682 557.951 557.193 556.036C554.705 554.084 552.296 552.026 549.856 549.857C548.3 548.463 546.571 546.841 544.779 544.996C542.95 543.149 541.241 541.125 539.616 538.885C537.991 536.645 536.558 534.231 535.358 531.608C534.157 528.985 533.446 526.166 533.187 523.149C532.965 520.133 533.175 517.322 533.822 514.641C534.468 511.997 535.544 509.593 536.978 507.427C538.41 505.297 540.234 503.442 542.372 501.969C544.549 500.462 547 499.37 549.763 498.696C551.145 498.36 552.553 498.244 553.946 498.421C555.341 498.561 556.728 498.884 558.109 499.317C559.453 499.748 560.79 500.325 562.01 501.043C563.266 501.763 564.449 502.48 565.591 503.267C568.27 505.082 570.819 507.293 573.24 509.864Z" fill="#09FFFF" stroke="#7309DD" stroke-width="14" stroke-miterlimit="10" stroke-linecap="round" stroke-linejoin="round"/>
<path d="M547.508 884C561.771 884 574.757 889.491 584.478 898.475C585.197 899.135 585.231 900.26 584.528 900.937L577.219 908.119L568.438 916.774L561.543 923.567C560.925 924.168 559.969 924.21 559.292 923.669C555.866 920.928 551.484 919.371 546.729 919.557C537.812 919.921 530.224 926.613 528.794 935.42C528.236 938.846 528.633 942.171 529.742 945.123C529.97 945.741 529.809 946.435 529.344 946.9L523.388 952.771C522.585 953.566 521.222 953.372 520.706 952.365C518.312 947.763 517.069 942.492 517.365 936.883C518.16 921.867 530.173 909.566 545.173 908.407C549.343 908.086 553.32 908.686 557.025 909.862C558.21 910.234 558.988 909.989 559.309 909.837C559.411 909.786 559.495 909.718 559.572 909.634L565.832 902.544C566.585 901.698 566.306 900.362 565.282 899.879C557.431 896.242 548.269 894.947 538.726 896.868C522.145 900.218 509.082 913.348 505.834 929.938C503.507 941.815 506.147 953.067 512.069 961.967C512.526 962.652 512.449 963.558 511.866 964.133L505.622 970.275C504.878 971.011 503.651 970.892 503.042 970.038C496.714 961.121 493 950.242 493 938.508C493 908.415 517.415 884 547.508 884Z" fill="#7A52E6"/>
<path d="M533.643 953.576L533.702 953.516C534.252 952.949 535.14 952.899 535.758 953.381L535.766 953.389C539.285 956.164 543.82 957.729 548.744 957.416C558.676 956.79 566.527 948.313 566.45 938.364C566.434 936.393 566.12 934.515 565.554 932.739C565.368 932.155 565.537 931.512 565.968 931.072L571.949 924.947C572.762 924.118 574.166 924.321 574.674 925.361C576.763 929.685 577.863 934.583 577.651 939.735C577.008 955.606 563.811 968.457 547.932 968.668C540.969 968.761 539.497 967.408 537.357 966.832C536.764 966.672 536.13 966.849 535.707 967.289L528.956 974.269C528.152 975.106 528.397 976.485 529.446 976.984C534.632 979.412 540.377 980.834 546.468 980.986C570.164 981.561 590.011 962.205 590.011 938.5C590.011 929.964 587.49 922.028 583.184 915.396C582.744 914.727 582.82 913.847 583.379 913.272L589.521 906.969C590.265 906.208 591.517 906.318 592.126 907.189C601.246 920.184 604.859 937.349 599.495 955.301C594.428 972.272 580.976 985.639 563.972 990.588C543.718 996.493 524.48 991.045 511.173 979.099C510.454 978.448 510.403 977.34 511.08 976.646L533.643 953.576Z" fill="#7A52E6"/>
<path d="M250 591.606L328.363 655.625C341.163 666.082 360.27 662.687 368.684 648.461L396.8 600.925C405.772 585.756 426.636 583.11 439.111 595.558L479.672 636.032C491.961 648.295 512.463 645.94 521.651 631.211L549.033 587.32C559.543 570.473 584.031 570.353 594.706 587.096L618.635 624.624C629.195 641.186 653.345 641.288 664.044 624.814L679.509 601.003C690.651 583.848 716.081 584.831 725.864 602.796L762.191 669.5" stroke="#7309DD" stroke-width="14.19" stroke-linecap="round"/>
<path d="M480.027 503.911L480.004 503.898L479.98 503.886L450.013 488.16C448.426 487.248 446.53 486.79 444.611 486.79C442.799 486.79 440.973 487.265 439.777 487.743L439.524 487.844L439.284 487.972L409.365 503.9L409.279 503.945L409.195 503.994C408.23 504.557 407.324 504.802 406.058 504.802C404.009 504.802 401.915 503.849 400.417 502.163C399.139 500.726 398.563 498.724 398.93 496.498C398.93 496.493 398.931 496.488 398.932 496.482L404.732 463.175L404.745 463.1L404.755 463.024C405.288 459.298 403.946 455.665 401.406 453.125L401.378 453.097L401.35 453.07L377.236 429.7L377.224 429.688L377.212 429.677C375.174 427.728 374.502 424.983 375.374 422.368L375.374 422.367C376.265 419.694 378.441 417.85 381.221 417.392L414.505 412.488C414.509 412.487 414.513 412.487 414.517 412.486C418.095 411.971 421.502 409.711 423.182 406.351L423.191 406.333L423.2 406.315L438.075 375.969C439.304 373.525 441.723 372.05 444.462 372.05C447.201 372.05 449.62 373.525 450.849 375.969L465.724 406.315L465.766 406.401L465.811 406.485C467.625 409.854 470.802 411.967 474.406 412.486C474.41 412.487 474.415 412.487 474.419 412.488L507.703 417.392C510.502 417.854 512.677 419.716 513.559 422.244C514.421 424.861 513.742 427.634 511.796 429.591C511.791 429.596 511.786 429.601 511.781 429.606L487.908 453.034C484.945 455.778 483.971 459.557 484.466 463.024L484.476 463.09L484.487 463.157L490.141 496.333C490.141 496.336 490.141 496.338 490.142 496.341C490.511 498.57 489.935 500.575 488.656 502.014L488.559 502.123L488.469 502.238C487.193 503.854 485.22 504.802 483.164 504.802C482.288 504.802 481.31 504.602 480.027 503.911Z" fill="white"/>
<path d="M480.027 503.911L480.004 503.898L479.98 503.886L450.013 488.16C448.426 487.248 446.53 486.79 444.611 486.79C442.799 486.79 440.973 487.265 439.777 487.743L439.524 487.844L439.284 487.972L409.365 503.9L409.279 503.945L409.195 503.994C408.23 504.557 407.324 504.802 406.058 504.802C404.009 504.802 401.915 503.849 400.417 502.163C399.139 500.726 398.563 498.724 398.93 496.498C398.93 496.493 398.931 496.488 398.932 496.482L404.732 463.175L404.745 463.1L404.755 463.024C405.288 459.298 403.946 455.665 401.406 453.125L401.378 453.097L401.35 453.07L377.236 429.7L377.224 429.688L377.212 429.677C375.174 427.728 374.502 424.983 375.374 422.368L375.374 422.367C376.265 419.694 378.441 417.85 381.221 417.392L414.505 412.488C414.509 412.487 414.513 412.487 414.517 412.486C418.095 411.971 421.502 409.711 423.182 406.351L423.191 406.333L423.2 406.315L438.075 375.969C439.304 373.525 441.723 372.05 444.462 372.05C447.201 372.05 449.62 373.525 450.849 375.969L465.724 406.315L465.766 406.401L465.811 406.485C467.625 409.854 470.802 411.967 474.406 412.486C474.41 412.487 474.415 412.487 474.419 412.488L507.703 417.392C510.502 417.854 512.677 419.716 513.559 422.244C514.421 424.861 513.742 427.634 511.796 429.591C511.791 429.596 511.786 429.601 511.781 429.606L487.908 453.034C484.945 455.778 483.971 459.557 484.466 463.024L484.476 463.09L484.487 463.157L490.141 496.333C490.141 496.336 490.141 496.338 490.142 496.341C490.511 498.57 489.935 500.575 488.656 502.014L488.559 502.123L488.469 502.238C487.193 503.854 485.22 504.802 483.164 504.802C482.288 504.802 481.31 504.602 480.027 503.911Z" fill="white"/>
<path d="M480.027 503.911L480.004 503.898L479.98 503.886L450.013 488.16C448.426 487.248 446.53 486.79 444.611 486.79C442.799 486.79 440.973 487.265 439.777 487.743L439.524 487.844L439.284 487.972L409.365 503.9L409.279 503.945L409.195 503.994C408.23 504.557 407.324 504.802 406.058 504.802C404.009 504.802 401.915 503.849 400.417 502.163C399.139 500.726 398.563 498.724 398.93 496.498C398.93 496.493 398.931 496.488 398.932 496.482L404.732 463.175L404.745 463.1L404.755 463.024C405.288 459.298 403.946 455.665 401.406 453.125L401.378 453.097L401.35 453.07L377.236 429.7L377.224 429.688L377.212 429.677C375.174 427.728 374.502 424.983 375.374 422.368L375.374 422.367C376.265 419.694 378.441 417.85 381.221 417.392L414.505 412.488C414.509 412.487 414.513 412.487 414.517 412.486C418.095 411.971 421.502 409.711 423.182 406.351L423.191 406.333L423.2 406.315L438.075 375.969C439.304 373.525 441.723 372.05 444.462 372.05C447.201 372.05 449.62 373.525 450.849 375.969L465.724 406.315L465.766 406.401L465.811 406.485C467.625 409.854 470.802 411.967 474.406 412.486C474.41 412.487 474.415 412.487 474.419 412.488L507.703 417.392C510.502 417.854 512.677 419.716 513.559 422.244C514.421 424.861 513.742 427.634 511.796 429.591C511.791 429.596 511.786 429.601 511.781 429.606L487.908 453.034C484.945 455.778 483.971 459.557 484.466 463.024L484.476 463.09L484.487 463.157L490.141 496.333C490.141 496.336 490.141 496.338 490.142 496.341C490.511 498.57 489.935 500.575 488.656 502.014L488.559 502.123L488.469 502.238C487.193 503.854 485.22 504.802 483.164 504.802C482.288 504.802 481.31 504.602 480.027 503.911Z" stroke="#7309DD" stroke-width="10"/>
<path d="M461.514 467.748L461.497 467.739L461.481 467.73L447.622 460.458C446.691 459.928 445.613 459.678 444.551 459.678C443.53 459.678 442.534 459.939 441.873 460.204L441.696 460.275L441.528 460.364L427.673 467.74L427.612 467.772L427.554 467.806C427.302 467.953 427.091 468.019 426.698 468.019C426.11 468.019 425.456 467.739 424.971 467.194C424.64 466.822 424.449 466.266 424.565 465.555L427.251 450.13L427.26 450.077L427.267 450.024C427.569 447.91 426.807 445.86 425.381 444.435L425.362 444.415L425.342 444.396L414.175 433.574L414.167 433.566L414.159 433.558C413.543 432.969 413.355 432.177 413.612 431.404L413.612 431.404C413.884 430.589 414.527 430.039 415.38 429.895L430.786 427.625C432.797 427.335 434.723 426.071 435.687 424.142L435.694 424.129L435.7 424.117L442.585 410.07C442.952 409.346 443.658 408.912 444.482 408.912C445.307 408.912 446.013 409.346 446.379 410.07L453.265 424.117L453.294 424.177L453.326 424.236C454.349 426.136 456.149 427.333 458.178 427.625C458.181 427.626 458.184 427.626 458.188 427.627L473.585 429.895C474.451 430.041 475.094 430.604 475.358 431.352C475.61 432.127 475.416 432.941 474.829 433.534L463.784 444.374C462.1 445.941 461.559 448.091 461.835 450.024L461.842 450.071L461.85 450.117L464.467 465.476C464.467 465.478 464.468 465.48 464.468 465.482C464.585 466.195 464.394 466.752 464.063 467.125L463.995 467.202L463.932 467.282C463.567 467.743 462.998 468.019 462.405 468.019C462.215 468.019 461.953 467.984 461.514 467.748Z" fill="white"/>
<path d="M461.514 467.748L461.497 467.739L461.481 467.73L447.622 460.458C446.691 459.928 445.613 459.678 444.551 459.678C443.53 459.678 442.534 459.939 441.873 460.204L441.696 460.275L441.528 460.364L427.673 467.74L427.612 467.772L427.554 467.806C427.302 467.953 427.091 468.019 426.698 468.019C426.11 468.019 425.456 467.739 424.971 467.194C424.64 466.822 424.449 466.266 424.565 465.555L427.251 450.13L427.26 450.077L427.267 450.024C427.569 447.91 426.807 445.86 425.381 444.435L425.362 444.415L425.342 444.396L414.175 433.574L414.167 433.566L414.159 433.558C413.543 432.969 413.355 432.177 413.612 431.404L413.612 431.404C413.884 430.589 414.527 430.039 415.38 429.895L430.786 427.625C432.797 427.335 434.723 426.071 435.687 424.142L435.694 424.129L435.7 424.117L442.585 410.07C442.952 409.346 443.658 408.912 444.482 408.912C445.307 408.912 446.013 409.346 446.379 410.07L453.265 424.117L453.294 424.177L453.326 424.236C454.349 426.136 456.149 427.333 458.178 427.625C458.181 427.626 458.184 427.626 458.188 427.627L473.585 429.895C474.451 430.041 475.094 430.604 475.358 431.352C475.61 432.127 475.416 432.941 474.829 433.534L463.784 444.374C462.1 445.941 461.559 448.091 461.835 450.024L461.842 450.071L461.85 450.117L464.467 465.476C464.467 465.478 464.468 465.48 464.468 465.482C464.585 466.195 464.394 466.752 464.063 467.125L463.995 467.202L463.932 467.282C463.567 467.743 462.998 468.019 462.405 468.019C462.215 468.019 461.953 467.984 461.514 467.748Z" fill="white"/>
<path d="M461.514 467.748L461.497 467.739L461.481 467.73L447.622 460.458C446.691 459.928 445.613 459.678 444.551 459.678C443.53 459.678 442.534 459.939 441.873 460.204L441.696 460.275L441.528 460.364L427.673 467.74L427.612 467.772L427.554 467.806C427.302 467.953 427.091 468.019 426.698 468.019C426.11 468.019 425.456 467.739 424.971 467.194C424.64 466.822 424.449 466.266 424.565 465.555L427.251 450.13L427.26 450.077L427.267 450.024C427.569 447.91 426.807 445.86 425.381 444.435L425.362 444.415L425.342 444.396L414.175 433.574L414.167 433.566L414.159 433.558C413.543 432.969 413.355 432.177 413.612 431.404L413.612 431.404C413.884 430.589 414.527 430.039 415.38 429.895L430.786 427.625C432.797 427.335 434.723 426.071 435.687 424.142L435.694 424.129L435.7 424.117L442.585 410.07C442.952 409.346 443.658 408.912 444.482 408.912C445.307 408.912 446.013 409.346 446.379 410.07L453.265 424.117L453.294 424.177L453.326 424.236C454.349 426.136 456.149 427.333 458.178 427.625C458.181 427.626 458.184 427.626 458.188 427.627L473.585 429.895C474.451 430.041 475.094 430.604 475.358 431.352C475.61 432.127 475.416 432.941 474.829 433.534L463.784 444.374C462.1 445.941 461.559 448.091 461.835 450.024L461.842 450.071L461.85 450.117L464.467 465.476C464.467 465.478 464.468 465.48 464.468 465.482C464.585 466.195 464.394 466.752 464.063 467.125L463.995 467.202L463.932 467.282C463.567 467.743 462.998 468.019 462.405 468.019C462.215 468.019 461.953 467.984 461.514 467.748Z" stroke="#7309DD" stroke-width="7"/>
<path d="M700.734 496.209C699.175 496.209 697.617 495.819 695.929 494.91L669.694 481.143C669.045 480.754 668.136 480.494 667.097 480.494C666.188 480.494 665.149 480.754 664.499 481.014L638.395 494.91C636.836 495.819 635.278 496.209 633.46 496.209C630.343 496.209 627.356 494.78 625.277 492.442C623.199 490.105 622.42 486.988 622.94 483.871L628.005 454.779C628.265 452.961 627.615 451.143 626.316 449.844L605.277 429.454C602.29 426.597 601.251 422.441 602.55 418.544C603.848 414.648 607.095 411.921 611.121 411.271L640.213 406.986C642.031 406.726 643.719 405.557 644.499 403.999L657.486 377.504C659.304 373.868 662.941 371.66 666.967 371.66C670.993 371.66 674.629 373.868 676.447 377.504L689.435 403.999C690.344 405.687 691.902 406.726 693.721 406.986L722.812 411.272C726.838 411.921 730.085 414.648 731.384 418.415C732.683 422.311 731.644 426.467 728.787 429.324L707.877 449.844C706.448 451.143 705.929 452.961 706.188 454.779L711.124 483.741C711.643 486.858 710.864 489.975 708.786 492.312C706.838 494.78 703.851 496.209 700.734 496.209Z" fill="#41FDA0" stroke="#7309DD" stroke-width="14"/>
</g>
<defs>
<linearGradient id="paint0_linear_2285_1697" x1="-115.125" y1="470.244" x2="1048.31" y2="470.244" gradientUnits="userSpaceOnUse">
<stop stop-color="#101010"/>
<stop offset="1" stop-color="#484848"/>
</linearGradient>
<linearGradient id="paint1_linear_2285_1697" x1="382.897" y1="220.131" x2="819.108" y2="412.163" gradientUnits="userSpaceOnUse">
<stop stop-color="#101010"/>
<stop offset="1" stop-color="#484848"/>
</linearGradient>
<linearGradient id="paint2_linear_2285_1697" x1="368.892" y1="763.202" x2="636.633" y2="1030.68" gradientUnits="userSpaceOnUse">
<stop stop-color="#0A0A0A"/>
<stop offset="1" stop-color="#0A0A0A"/>
</linearGradient>
<linearGradient id="paint3_linear_2285_1697" x1="314.441" y1="707.127" x2="524.382" y2="802.901" gradientUnits="userSpaceOnUse">
<stop stop-color="#070707"/>
<stop offset="1" stop-color="#070707"/>
</linearGradient>
<linearGradient id="paint4_linear_2285_1697" x1="1020.49" y1="871.9" x2="1061.71" y2="873.431" gradientUnits="userSpaceOnUse">
<stop stop-color="#070707"/>
<stop offset="1" stop-color="#060606"/>
</linearGradient>
<linearGradient id="paint5_linear_2285_1697" x1="199.223" y1="423.852" x2="499.261" y2="589.846" gradientUnits="userSpaceOnUse">
<stop stop-color="#0A0A0A"/>
<stop offset="1" stop-color="#5C5C5C"/>
</linearGradient>
<linearGradient id="paint6_linear_2285_1697" x1="269.347" y1="133.273" x2="761.494" y2="462.993" gradientUnits="userSpaceOnUse">
<stop stop-color="#2A2A2A"/>
<stop offset="1" stop-color="#AAAAAA"/>
</linearGradient>
<clipPath id="clip0_2285_1697">
<rect width="1024" height="1024" fill="white"/>
</clipPath>
</defs>
</svg>
