<svg width="1024" height="1024" viewBox="0 0 1024 1024" fill="none" xmlns="http://www.w3.org/2000/svg">
<g clip-path="url(#clip0_2285_1818)">
<rect width="1024" height="1024" fill="#1019EE"/>
<path d="M-115.125 630.801L163.029 670.448L26.8263 459.061L-115.125 596.01V630.801Z" fill="#7CC8FF"/>
<path d="M-115.125 630.805V643.451L117.628 770.342L163.029 670.451L-115.125 630.805Z" fill="#2198FC"/>
<path d="M117.629 770.34L301.301 723.89L163.03 670.449L117.629 770.34Z" fill="#3F86F2"/>
<path d="M-33.7529 1075.88L142.397 1004.94L-115.125 667.488V1075.88H-33.7529Z" fill="#3F86F2"/>
<path d="M101.454 1075.88L142.396 1004.94L-33.7539 1075.88H101.454Z" fill="#4051E5"/>
<path d="M-115.125 667.496L142.397 1004.95L117.628 770.348L-115.125 643.457V667.496Z" fill="#BCD7FF"/>
<path d="M26.8242 459.065L163.027 670.452L78.4038 391.725L26.8242 459.065Z" fill="#4C5BDD"/>
<path d="M-115.125 434.809V596.01L26.8263 459.061L-115.125 434.809Z" fill="#3758F5"/>
<path d="M563.391 180.336L652.15 791.232L885.333 596.12L563.391 180.336Z" fill="#2198FC"/>
<path d="M563.391 180.336L689.277 -68.2168L885.333 596.12L563.391 180.336Z" fill="#2198FC"/>
<path d="M652.145 791.231L885.327 596.119L792.457 781.947L652.145 791.231Z" fill="#3758F5"/>
<path d="M885.331 596.119L1046.3 925.966L792.461 781.947L885.331 596.119Z" fill="#BCD7FF"/>
<path d="M652.145 791.228L792.457 781.943L829.611 900.403L652.145 791.228Z" fill="#73B9F9"/>
<path d="M858.358 1075.89L829.614 900.41L791.762 1075.89H858.358Z" fill="#3C93E3"/>
<path d="M792.461 781.943L1046.3 925.963L829.614 900.403L792.461 781.943Z" fill="#2198FC"/>
<path d="M1007.24 1075.89L829.613 900.41L858.358 1075.89H1007.24Z" fill="#3758F5"/>
<path d="M90.8711 -135.396L563.388 180.337L689.275 -68.2158L352.664 -135.396H90.8711Z" fill="#3758F5"/>
<path d="M-42.8867 -135.396L-115.125 -83.05V434.812L26.8263 459.065L-32.329 -135.396H-42.8867Z" fill="#73B9F9"/>
<path d="M-19.8359 -135.396L563.389 180.337L90.8721 -135.396H-19.8359Z" fill="#2198FC"/>
<path d="M-32.3281 -135.396L26.8272 459.065L78.4068 391.724L-31.5491 -135.396H-32.3281Z" fill="#2198FC"/>
<path d="M302.103 1075.88L390.03 1039.79L142.394 1004.94L101.453 1075.88H302.103Z" fill="#8FB3FF"/>
<path d="M414.8 742.465L652.147 791.236L390.031 1039.79L414.8 742.465Z" fill="#3758F5"/>
<path d="M652.147 791.229L829.613 900.404L390.031 1039.78L652.147 791.229Z" fill="#3F86F2"/>
<path d="M791.761 1075.89L829.613 900.41L390.031 1039.79L417.03 1075.89H791.761Z" fill="#BCD7FF"/>
<path d="M117.629 770.344L142.398 1004.94L295.122 849.317L117.629 770.344Z" fill="#3758F5"/>
<path d="M117.629 770.343L301.301 723.893L295.122 849.316L117.629 770.343Z" fill="#8FB3FF"/>
<path d="M142.395 1004.94L390.03 1039.78L295.118 849.311L142.395 1004.94Z" fill="#7CC8FF"/>
<path d="M301.304 723.893L414.806 742.462L295.125 849.316L301.304 723.893Z" fill="#73B9F9"/>
<path d="M390.037 1039.79L414.806 742.465L295.125 849.319L390.037 1039.79Z" fill="#3CA6FF"/>
<path d="M1017.34 1075.89L1035.99 1000.3L829.613 900.41L1007.24 1075.89H1017.34Z" fill="#73B9F9"/>
<path d="M829.613 900.41L1046.3 925.97L1035.99 1000.3L829.613 900.41Z" fill="#3F86F2"/>
<path d="M1035.75 1075.89L1035.99 1000.3L1017.34 1075.89H1035.75Z" fill="url(#paint0_linear_2285_1818)"/>
<path d="M1048.32 -50.6346L689.273 -68.2168L885.33 596.12L1048.32 142.477V-50.6346Z" fill="#3758F5"/>
<path d="M1048.32 142.473L885.332 596.116L1046.3 925.963L1048.32 898.216V142.473Z" fill="#3F86F2"/>
<path d="M-31.5508 -135.396L78.4051 391.724L231.129 366.164L-29.321 -135.396H-31.5508Z" fill="#73B9F9"/>
<path d="M-29.3203 -135.396L231.13 366.164L563.388 180.337L-19.8372 -135.396H-29.3203Z" fill="#7CC8FF"/>
<path d="M78.4023 391.72L163.025 670.448L231.126 366.16L78.4023 391.72Z" fill="#3758F5"/>
<path d="M163.027 670.448L301.298 723.888L231.128 366.16L163.027 670.448Z" fill="#BCD7FF"/>
<path d="M301.303 723.888L414.804 742.457L231.133 366.16L301.303 723.888Z" fill="#3F86F2"/>
<path d="M414.804 742.461L563.391 180.336L231.133 366.163L414.804 742.461Z" fill="url(#paint1_linear_2285_1818)"/>
<path d="M675.498 793.035C727.282 821.299 830.864 954.086 834.068 1056.2C837.272 1158.31 797.719 1170.56 755.307 1164.07C747.867 1160.34 737.986 1161.14 734.678 1146.05" fill="white"/>
<path d="M675.498 793.035C727.282 821.299 830.864 954.086 834.068 1056.2C837.272 1158.31 797.719 1170.56 755.307 1164.07C747.867 1160.34 737.986 1161.14 734.678 1146.05" stroke="#012DFF" stroke-width="14.1892" stroke-linecap="round"/>
<mask id="mask0_2285_1818" style="mask-type:luminance" maskUnits="userSpaceOnUse" x="663" y="791" width="165" height="369">
<path d="M663.429 791.168C714.269 817.41 819.064 946.093 826.295 1048.01C833.526 1149.93 796.054 1163.69 755.094 1158.84C747.804 1155.39 738.357 1156.58 734.57 1141.64" fill="white"/>
</mask>
<g mask="url(#mask0_2285_1818)">
<path d="M806.487 1011.93C806.487 1011.93 804.181 1010.31 800.169 1008.34C786.022 1001.44 750.616 990.323 719.073 1030.63C678.563 1082.4 695.779 1324.87 809.885 1239.73C923.977 1154.63 904.126 1027.76 904.126 1027.76L912.988 884.566L880.786 923.848" fill="white"/>
</g>
<path d="M530.309 1333.4C410.187 1333.4 312.809 1197.3 312.809 1029.4C312.809 861.508 410.187 725.402 530.309 725.402C650.431 725.402 747.809 861.508 747.809 1029.4C747.809 1197.3 650.431 1333.4 530.309 1333.4Z" fill="white"/>
<path d="M399.574 761.031C351.384 785.682 202.545 943.313 201.437 1050.59C199.611 1227.43 322.011 1167.31 313.343 1136.7C313.343 1136.7 329.541 1098.28 327.056 1087.28C324.571 1076.28 307.37 995.545 332.341 964.158" fill="white"/>
<path d="M399.574 761.031C351.384 785.682 202.545 943.313 201.437 1050.59C199.611 1227.43 322.011 1167.31 313.343 1136.7" stroke="#012DFF" stroke-width="14.8245" stroke-linecap="round"/>
<path d="M661.089 808.852C681.09 839.866 761.679 1003 738.062 1120.76C722.313 1266.62 704.303 1260.32 711.803 1281.61C714.064 1290.02 717.372 1289.63 730.127 1299.89C740.322 1308.1 740.307 1346.52 738.062 1361.24H556.527" fill="white"/>
<path d="M661.089 808.852C681.09 839.866 761.679 1003 738.062 1120.76C722.313 1266.62 704.303 1260.32 711.803 1281.61C714.064 1290.02 717.372 1289.63 730.127 1299.89C740.322 1308.1 740.307 1346.52 738.062 1361.24H556.527" stroke="#012DFF" stroke-width="14.8245" stroke-linecap="round"/>
<path d="M414.356 808.852C393.846 831.168 343.253 929.161 323.042 995.13L414.356 808.852ZM531.09 1179.92L524.817 1293.87C497.031 1290.19 483.423 1291.36 518.933 1298.62C580.897 1311.27 563.711 1346.63 555.207 1362.71H323.042C323.042 1290.93 318.476 1224.68 318.476 1130.01" fill="white"/>
<path d="M414.356 808.852C393.846 831.168 343.253 929.161 323.042 995.13M531.09 1179.93L524.817 1293.87C497.031 1290.19 483.423 1291.36 518.933 1298.62C580.897 1311.27 563.711 1346.63 555.207 1362.71H323.042C323.042 1290.93 318.476 1224.68 318.476 1130.01" stroke="#012DFF" stroke-width="14.8245" stroke-linecap="round" stroke-linejoin="round"/>
<path d="M323.239 994.758C321.952 1004.24 316.442 1025.09 316.682 1032.06C317.625 1058.91 348.48 1079.03 325.125 1122.58C318.703 1132.76 304.646 1150.38 293.732 1121.89L294.945 1092.99" stroke="#012DFF" stroke-width="14.8245" stroke-linecap="round"/>
<path d="M844.388 415.961C844.348 415.761 844.254 415.658 844.313 415.462C845.883 408.899 889.903 224.735 834.644 140.149C834.318 139.688 833.829 139.517 833.322 139.691C823.249 144.02 719.314 189.785 688.672 242.527C688.344 243.105 687.639 243.27 687.055 242.995C680.404 239.561 640.342 222.116 516.048 226.55C385.787 231.842 352.708 251.332 346.813 255.759C346.244 256.178 345.353 256.086 344.935 255.472C310.426 205.301 203.65 167.667 193.271 164.106C192.732 163.932 192.272 164.158 192 164.641C143.105 253.175 200.495 433.509 202.518 439.895C202.558 440.095 202.553 440.194 202.494 440.389C161.529 606.073 199.345 684.981 199.756 685.743C199.756 685.743 199.756 685.743 199.753 685.793C253.823 779.337 390.917 812.012 475.394 823.381C523.023 829.791 571.379 827.566 618.173 816.649C697.358 798.148 819.079 755.155 864.885 660.63C864.994 660.437 865.052 660.291 865.111 660.095C867.151 655.09 895.982 573.583 844.388 415.961Z" fill="white"/>
<path d="M821.119 179.245C820.917 178.295 819.79 177.944 819.158 178.657C811.175 188.182 772.79 233.999 747.983 260.801C738.573 271.002 738.283 287.921 747.368 298.351L795.987 354.318C796.646 355.091 799.465 355.423 800.246 354.717C810.027 346.069 845.906 304.639 821.119 179.245Z" fill="#012DFF" stroke="#012DFF" stroke-width="14.187" stroke-miterlimit="10" stroke-linecap="round" stroke-linejoin="round"/>
<path d="M255.268 366.957C256.137 367.493 258.867 366.631 259.358 365.763L302.183 291.826C306.157 284.933 304.13 275.627 297.588 271.06C269.694 251.471 214.05 206.358 203.382 197.684C202.664 197.105 201.59 197.698 201.593 198.639C201.037 326.466 244.099 360.339 255.268 366.957Z" fill="#012DFF" stroke="#012DFF" stroke-width="14.187" stroke-miterlimit="10" stroke-linecap="round" stroke-linejoin="round"/>
<path d="M841.668 416.167C841.578 415.964 841.534 415.863 841.593 415.668C843.161 409.107 884.96 233.907 835.761 146.844C834.343 144.301 826.346 141.841 822.882 143.41C795.981 155.702 712.741 196.568 685.912 242.785C685.585 243.363 684.879 243.528 684.295 243.253C677.642 239.817 637.564 222.366 513.241 226.767C382.949 232.024 349.867 251.5 343.972 255.925C343.403 256.343 342.511 256.252 342.093 255.638C315.184 216.527 244.324 185.038 209.489 171.351C202.796 168.706 194.474 170.837 191.296 172.667C188.168 174.499 182.035 179.705 180.118 185.259C148.247 278.231 197.669 433.544 199.693 439.978C199.733 440.178 199.728 440.277 199.666 440.522C158.737 606.156 196.585 685.054 196.995 685.817C196.995 685.817 196.995 685.817 196.993 685.866C251.102 779.402 388.239 812.105 472.738 823.543C520.381 829.963 568.748 827.752 615.551 816.85C694.648 798.418 816.033 755.599 862.008 661.414C862.229 660.979 862.506 660.398 862.63 659.909C865.789 651.392 892.055 570.089 841.668 416.167Z" stroke="#012DFF" stroke-width="14.187" stroke-miterlimit="10" stroke-linecap="round" stroke-linejoin="round"/>
<path d="M186.855 553.799C255.767 535.005 437.568 500.424 575.892 497.417C714.216 494.41 825.22 519.369 862.809 531.898" stroke="#012DFF" stroke-width="14.187" stroke-miterlimit="10" stroke-linecap="round" stroke-linejoin="round"/>
<path d="M246.995 363.064C240.73 439.494 246.997 641.216 295.861 727.669" stroke="#012DFF" stroke-width="14.187" stroke-miterlimit="10" stroke-linecap="round" stroke-linejoin="round"/>
<path d="M312.776 1030.25C289.596 1025.24 234.968 1018.22 201.891 1030.25M737.521 1030.25C753.809 1025.24 793.527 1015.59 822.094 1017.09" stroke="#012DFF" stroke-width="14.187" stroke-miterlimit="10" stroke-linecap="round" stroke-linejoin="round"/>
<path d="M513.809 227.402C549.766 265.458 595.563 421.569 582.544 581.402" stroke="#012DFF" stroke-width="14.187" stroke-miterlimit="10" stroke-linecap="round" stroke-linejoin="round"/>
<path d="M246.809 737.402C353.349 713.534 618.107 674.465 824.809 709.137" stroke="#012DFF" stroke-width="14.187" stroke-miterlimit="10" stroke-linecap="round" stroke-linejoin="round"/>
<path d="M795.779 355.549C822.09 513.419 827.729 596.113 780.744 701.359M260.148 898.697C278.942 906.214 328.284 930.362 338.809 948.404M720.603 943.803C728.12 933.779 748.418 910.725 769.467 898.697" stroke="#012DFF" stroke-width="14.187" stroke-miterlimit="10" stroke-linecap="round" stroke-linejoin="round"/>
<path d="M282.702 205.196L256.391 235.267M168.059 270.976H203.767M739.398 186.402L771.348 222.111M825.85 248.423H850.283" stroke="#012DFF" stroke-width="14.187" stroke-miterlimit="10" stroke-linecap="round" stroke-linejoin="round"/>
<path d="M250.754 363.065C355.687 334.248 609.532 291.084 785.445 348.97" stroke="#012DFF" stroke-width="14.187" stroke-miterlimit="10" stroke-linecap="round" stroke-linejoin="round"/>
<path d="M382.312 876.145L483.8 911.853L520.5 971.5M690.535 885.542L634.153 911.853L604 971.5" stroke="#012DFF" stroke-width="14.187" stroke-miterlimit="10" stroke-linecap="round" stroke-linejoin="round"/>
<path d="M327.809 977.633L543.94 1077.24H605.961L720.604 994.547" stroke="#012DFF" stroke-width="14.187" stroke-miterlimit="10" stroke-linecap="round" stroke-linejoin="round"/>
<path d="M468.765 705.118C472.524 729.55 468.765 787.812 455.609 816.003M679.259 695.721C679.885 717.647 678.131 768.642 666.103 797.209" stroke="#012DFF" stroke-width="14.187" stroke-miterlimit="10" stroke-linecap="round" stroke-linejoin="round"/>
<circle cx="280.82" cy="394.074" r="15.0352" fill="#012DFF" stroke="#012DFF" stroke-width="14.187" stroke-miterlimit="10" stroke-linecap="round" stroke-linejoin="round"/>
<circle cx="761.945" cy="379.039" r="15.0352" fill="#012DFF" stroke="#012DFF" stroke-width="14.187" stroke-miterlimit="10" stroke-linecap="round" stroke-linejoin="round"/>
<circle cx="433.992" cy="740.824" r="15.0352" fill="#012DFF" stroke="#012DFF" stroke-width="14.187" stroke-miterlimit="10" stroke-linecap="round" stroke-linejoin="round"/>
<circle cx="710.266" cy="731.428" r="15.0352" fill="#012DFF" stroke="#012DFF" stroke-width="14.187" stroke-miterlimit="10" stroke-linecap="round" stroke-linejoin="round"/>
<circle cx="270.484" cy="936.281" r="15.0352" fill="#012DFF" stroke="#012DFF" stroke-width="14.187" stroke-miterlimit="10" stroke-linecap="round" stroke-linejoin="round"/>
<circle cx="762.887" cy="941.922" r="15.0352" fill="#012DFF" stroke="#012DFF" stroke-width="14.187" stroke-miterlimit="10" stroke-linecap="round" stroke-linejoin="round"/>
<path d="M275 674C382.333 646.667 623.2 602.001 800 650.001" stroke="#012DFF" stroke-width="14" stroke-miterlimit="10" stroke-linecap="round" stroke-linejoin="round"/>
<path d="M366 607C370 635.333 378 673.4 382 687M467 591C470 617.667 475.2 652 480 676M669 583C667.667 609.333 664.5 641 658 670M744 591C742 609 739.6 637.6 726 676M584 580C584 603.5 584 648.5 580 670" stroke="#012DFF" stroke-width="14" stroke-miterlimit="10" stroke-linecap="round" stroke-linejoin="round"/>
<path d="M408 438.913L507.704 512.466M498.569 429L417.136 522.379" stroke="#EE10CA" stroke-width="19" stroke-miterlimit="10" stroke-linecap="round" stroke-linejoin="round"/>
<path d="M638.382 434.839L718.326 505.254M712.52 432.604L642.553 505.254" stroke="#EE10CA" stroke-width="19" stroke-miterlimit="10" stroke-linecap="round" stroke-linejoin="round"/>
<path d="M585.24 549.864C587.093 547.425 589.046 545.21 591.135 543.221C592.949 541.586 595.013 540.11 597.332 538.719C599.648 537.364 602.078 536.711 604.657 536.798C608.301 536.973 611.328 537.705 613.809 539.033C616.291 540.362 618.272 542.106 619.794 544.194C621.314 546.319 622.376 548.752 623.019 551.458C623.661 554.201 623.93 556.999 623.863 559.89C623.797 562.782 623.402 565.585 622.644 568.26C621.887 570.935 620.954 573.419 619.769 575.781C618.586 578.106 617.299 580.279 615.838 582.261C614.413 584.245 612.958 586.081 611.478 587.695C609.218 590.152 606.892 592.459 604.426 594.612C601.959 596.766 599.618 598.632 597.366 600.173C595.112 601.751 593.06 602.971 591.206 603.908C589.353 604.845 587.891 605.325 586.818 605.383C585.669 605.475 584.136 605.145 582.294 604.323C580.45 603.539 578.439 602.416 576.219 601.027C573.999 599.638 571.682 597.951 569.193 596.036C566.705 594.084 564.296 592.026 561.856 589.857C560.3 588.463 558.571 586.841 556.779 584.996C554.95 583.149 553.241 581.125 551.616 578.885C549.991 576.645 548.558 574.231 547.358 571.608C546.157 568.985 545.446 566.166 545.187 563.149C544.965 560.133 545.175 557.322 545.822 554.641C546.468 551.997 547.544 549.593 548.978 547.427C550.41 545.297 552.234 543.442 554.372 541.969C556.549 540.462 559 539.37 561.763 538.696C563.145 538.36 564.553 538.244 565.946 538.421C567.341 538.561 568.728 538.884 570.109 539.317C571.453 539.748 572.79 540.325 574.01 541.043C575.266 541.763 576.449 542.48 577.591 543.267C580.27 545.082 582.819 547.293 585.24 549.864Z" fill="#EE10CA" stroke="#012DFF" stroke-width="14" stroke-miterlimit="10" stroke-linecap="round" stroke-linejoin="round"/>
<path d="M526.322 923.608C518.756 931.053 513.673 940.571 511.745 950.907C509.816 961.242 511.133 971.907 515.521 981.494C519.909 991.08 527.161 999.136 536.321 1004.6C545.48 1010.06 556.115 1012.67 566.82 1012.08C577.525 1011.5 587.797 1007.74 596.279 1001.32C604.76 994.889 611.053 986.092 614.324 976.086C617.595 966.081 617.692 955.338 614.601 945.277C611.51 935.217 607.599 928.535 599.235 921.962L563.331 956.624L526.322 923.608Z" fill="#EE10CA"/>
<path d="M530.172 916.041L561.652 854V950.784L530.172 916.041Z" fill="#EE10CA"/>
<path d="M595.586 916.041L564.106 854V950.784L595.586 916.041Z" fill="#EE10CA"/>
</g>
<defs>
<linearGradient id="paint0_linear_2285_1818" x1="1020.49" y1="871.9" x2="1061.71" y2="873.431" gradientUnits="userSpaceOnUse">
<stop stop-color="#070707"/>
<stop offset="1" stop-color="#060606"/>
</linearGradient>
<linearGradient id="paint1_linear_2285_1818" x1="269.347" y1="133.273" x2="761.494" y2="462.993" gradientUnits="userSpaceOnUse">
<stop stop-color="#2198FC"/>
<stop offset="1" stop-color="#3758F5"/>
</linearGradient>
<clipPath id="clip0_2285_1818">
<rect width="1024" height="1024" fill="white"/>
</clipPath>
</defs>
</svg>
