<svg width="26" height="26" viewBox="0 0 26 26" fill="none" xmlns="http://www.w3.org/2000/svg">
<path d="M7.85998 3.71428C7.07998 3.71428 6.41203 4.19528 6.13717 4.87685H4.95231C4.70843 4.87685 4.46693 4.92489 4.24161 5.01822C4.01629 5.11155 3.81157 5.24834 3.63911 5.42079C3.46666 5.59325 3.32986 5.79798 3.23653 6.0233C3.1432 6.24861 3.09517 6.49011 3.09517 6.73399V9.52961C3.0952 10.5392 3.42354 11.5214 4.03067 12.3281C4.63779 13.1348 5.49077 13.7221 6.46093 14.0016C6.89396 15.1068 7.61307 16.0769 8.54456 16.8126C9.47605 17.5483 10.5864 18.0231 11.7618 18.1882V19.0685H10.0737L9.93379 19.0716C8.26422 19.1422 6.91098 20.4738 6.82245 22.1755L6.79398 23.252H18.5621V22.3235C18.5621 21.4602 18.2191 20.6323 17.6087 20.0219C16.9983 19.4114 16.1704 19.0685 15.3071 19.0685H13.619V18.1889C14.7945 18.0235 15.905 17.5487 16.8365 16.8129C17.7681 16.0771 18.4873 15.1069 18.9205 14.0016C19.8905 13.722 20.7434 13.1346 21.3504 12.328C21.9574 11.5213 22.2856 10.5391 22.2856 9.52961V6.73461C22.2856 6.24207 22.09 5.7697 21.7417 5.42141C21.3934 5.07313 20.921 4.87747 20.4285 4.87747L19.2436 4.87685C19.1051 4.53342 18.867 4.23925 18.56 4.0321C18.2531 3.82495 17.8912 3.71427 17.5208 3.71428H7.85998ZM19.3786 6.73399H20.4285V9.52961C20.4285 10.4142 20.0181 11.2023 19.3767 11.7149L19.378 11.565L19.3786 6.73399ZM4.95231 6.73399H6.00284V11.565L6.00407 11.7142C5.67562 11.4526 5.41045 11.1202 5.22834 10.7419C5.04623 10.3635 4.95188 9.9489 4.95231 9.52899V6.73523V6.73399Z" fill="#6D6F76"/>
<path d="M15 15.5C14.6 11.5 9.5 10.1667 7 10H6C6 11 6.1 13.2 6.5 14C7 15 8.5 17.5 11.5 18C13.9 18.4 14.8333 16.5 15 15.5Z" fill="#FF6F43"/>
</svg>
