<svg width="28" height="28" viewBox="0 0 28 28" fill="none" xmlns="http://www.w3.org/2000/svg">
<path d="M4.2502 5.25H23.7502C24.0377 5.25 24.3135 5.36423 24.5168 5.56755C24.7201 5.77087 24.8344 6.04664 24.8344 6.33418V23.6684C24.8344 23.9559 24.7201 24.2317 24.5168 24.435C24.3135 24.6383 24.0377 24.7525 23.7502 24.7525H4.2502C3.96265 24.7525 3.68689 24.6383 3.48356 24.435C3.28024 24.2317 3.16602 23.9559 3.16602 23.6684V6.33418C3.16602 6.04664 3.28024 5.77087 3.48356 5.56755C3.68689 5.36423 3.96265 5.25 4.2502 5.25ZM17.0268 12.6082L14.3734 15.2615L12.0756 12.9637L7.47988 17.5594L9.01094 19.0904L12.0756 16.0258L14.3734 18.3236L18.5604 14.1367L20.5002 16.0842V10.6658H15.0844L17.0268 12.6082Z" fill="#6D6F76"/>
<mask id="mask0_1789_358" style="mask-type:alpha" maskUnits="userSpaceOnUse" x="3" y="5" width="22" height="20">
<path d="M4.10077 5H23.8992C24.1912 5 24.4712 5.11714 24.6776 5.32565C24.884 5.53416 25 5.81696 25 6.11183V23.8882C25 24.183 24.884 24.4658 24.6776 24.6744C24.4712 24.8829 24.1912 25 23.8992 25H4.10077C3.80883 25 3.52884 24.8829 3.32241 24.6744C3.11597 24.4658 3 24.183 3 23.8882V6.11183C3 5.81696 3.11597 5.53416 3.32241 5.32565C3.52884 5.11714 3.80883 5 4.10077 5ZM17.0729 12.5459L14.379 15.2669L12.0459 12.9104L7.37989 17.6234L8.93438 19.1935L12.0459 16.0506L14.379 18.4071L18.63 14.1134L20.5995 16.1105V10.554H15.1008L17.0729 12.5459Z" fill="#6D6F76"/>
</mask>
<g mask="url(#mask0_1789_358)">
<circle cx="23.5" cy="7.5" r="7.5" fill="#FF6F43"/>
</g>
</svg>
