<svg width="272" height="79" viewBox="0 0 272 79" fill="none" xmlns="http://www.w3.org/2000/svg">
<path d="M55.2129 44.9577C55.2129 47.9527 52.7815 50.3841 49.7865 50.3841C46.7915 50.3841 44.3601 47.9527 44.3601 44.9577C44.3601 41.9626 46.7915 39.5312 49.7865 39.5312C52.7926 39.5423 55.2129 41.9626 55.2129 44.9577Z" fill="white"/>
<path d="M43.1782 43.0835V43.0835C43.3058 42.6073 42.9899 42.0911 42.5 42.0353C41.8887 41.9656 41.2764 41.8531 40.6682 41.6901L38.8214 41.1953C31.9411 39.3517 27.858 32.2796 29.7016 25.3992V25.3992C31.5408 18.5351 38.6228 14.4373 45.4976 16.2794L47.3338 16.7714C54.1979 18.6106 58.2957 25.6926 56.4536 32.5674C56.1031 33.8757 55.5583 35.0823 54.862 36.1668C54.0097 37.4945 54.3231 39.481 55.2706 40.7427V40.7427C56.5231 42.4104 59.5643 43.9803 60.8478 42.3362C62.5539 40.1507 63.8591 37.5957 64.6201 34.7556C67.6664 23.3866 60.8988 11.6647 49.5298 8.6184L47.6937 8.12641C36.3246 5.08008 24.6028 11.8477 21.5564 23.2168L19.7286 30.0382C18.8945 33.1511 15.6948 34.9985 12.5819 34.1644V34.1644C10.3294 33.5608 8.01481 34.8972 7.41127 37.1496C6.80772 39.4021 8.14404 41.7167 10.3965 42.3202V42.3202C13.5095 43.1543 15.3568 46.3541 14.5227 49.467L10.807 63.3341C10.2035 65.5865 11.5398 67.9011 13.7923 68.5047C16.0447 69.1082 18.3593 67.7719 18.9629 65.5194L20.3588 60.3099C22.474 52.4155 30.5885 47.7307 38.4829 49.846V49.846V49.846C40.9327 50.5024 42.6761 46.4928 43.0012 43.9775C43.0397 43.6798 43.0984 43.3812 43.1782 43.0835Z" fill="white"/>
<path d="M99.9631 50.8646H94.899L90.9387 44.8023C90.2342 43.7395 89.597 43.0095 89.0248 42.6005C88.4437 42.1893 87.7683 41.9814 86.9785 41.9559H85.6614C85.1207 41.9559 84.6832 42.4065 84.6832 42.9633V50.8692H80.2854V28.0431H88.7578C91.4615 28.0431 93.5751 28.5698 95.1166 29.6349C96.6581 30.6977 97.4209 32.2826 97.4209 34.3757C97.4209 35.9514 96.9251 37.2821 95.9446 38.3703C94.964 39.4677 93.611 40.2625 91.8991 40.7731V40.8401C92.5475 41.0826 93.1466 41.4592 93.6784 41.9629C94.2124 42.4665 94.715 43.0695 95.1929 43.7719L99.9631 50.8646ZM84.6742 31.1736V36.3049C84.6742 37.6818 85.9531 38.7954 87.5282 38.7954H88.0241C89.413 38.7954 90.5461 38.4096 91.4324 37.6472C92.3186 36.8848 92.7652 35.9144 92.7652 34.7315C92.7652 33.6087 92.3747 32.7308 91.5849 32.1024C90.8041 31.4739 89.6418 31.1644 88.1094 31.1644H84.6742V31.1736Z" fill="white"/>
<path d="M121.215 50.8669H117.063V42.2531C117.063 41.5622 116.463 41.0008 115.726 41.0008H107.009C106.271 41.0008 105.672 41.5622 105.672 42.2531V50.8692H101.537V28.0431H105.672V36.3727C105.672 37.0636 106.271 37.625 107.009 37.625H115.726C116.463 37.625 117.063 37.0636 117.063 36.3727V28.0431H121.215V50.8669Z" fill="white"/>
<path d="M134.502 51.2433C131.468 51.2433 129.02 50.2144 127.155 48.1543C125.292 46.0965 124.363 43.4116 124.363 40.1042C124.363 36.5786 125.314 33.7497 127.21 31.6176C129.106 29.4878 131.655 28.4171 134.846 28.4171C137.832 28.4171 140.242 29.446 142.076 31.5061C143.909 33.5639 144.828 36.272 144.828 39.6212C144.828 43.1631 143.884 45.9919 141.997 48.0915C140.094 50.1888 137.607 51.2433 134.502 51.2433ZM134.542 47.9615C136.546 47.9615 138.129 47.2554 139.283 45.8456C140.436 44.4358 141.014 42.457 141.014 39.9208C141.014 37.3102 140.451 35.2919 139.322 33.8566C138.191 32.4212 136.648 31.7082 134.683 31.7082C132.718 31.7082 131.135 32.4537 129.942 33.9541C128.749 35.4452 128.149 37.4147 128.149 39.8627C128.149 42.3269 128.734 44.2965 129.911 45.7643C131.095 47.2229 132.639 47.9615 134.542 47.9615Z" fill="white"/>
<path d="M195.199 50.444H191.294V47.7136H191.222C190.624 48.7527 189.872 49.5399 188.971 50.0729C188.067 50.606 187.041 50.8691 185.869 50.8691C184.224 50.8691 182.874 50.3811 181.83 49.4139C180.775 48.4468 180.248 47.1355 180.248 45.4734C180.248 43.8473 180.775 42.527 181.839 41.5059C182.895 40.4848 184.486 39.8235 186.585 39.5087L191.32 38.8767V38.4965C191.32 37.2843 191.008 36.3913 190.383 35.8291C189.758 35.2668 188.899 34.9879 187.828 34.9879C186.98 34.9879 186.112 35.1408 185.238 35.4579C184.363 35.7751 183.504 36.2452 182.683 36.8772L180.949 34.4368C182.02 33.6047 183.147 32.9816 184.318 32.5835C185.49 32.1854 186.766 31.9785 188.152 31.9785C190.519 31.9785 192.28 32.5745 193.451 33.7688C194.614 34.9631 195.203 36.7512 195.203 39.1466V50.444H195.199ZM191.32 43.0961V41.5846L187.487 42.0997C186.351 42.2616 185.512 42.5698 184.95 43.0308C184.387 43.4919 184.111 44.1599 184.111 45.0371C184.111 45.8962 184.37 46.5732 184.896 47.0613C185.423 47.5494 186.112 47.8035 186.96 47.8035C188.266 47.8035 189.319 47.3604 190.124 46.4833C190.919 45.5994 191.32 44.468 191.32 43.0961Z" fill="white"/>
<path d="M244.004 42.492H233.285C232.675 42.492 232.216 43.0633 232.327 43.6794C232.533 44.8151 232.966 45.7192 233.619 46.3871C234.496 47.2822 235.727 47.7252 237.324 47.7252C237.949 47.7252 238.677 47.5903 239.51 47.3181C240.344 47.046 241.168 46.612 241.992 46.007L243.735 48.564C242.651 49.3691 241.548 49.9471 240.44 50.3181C239.329 50.6892 238.107 50.8691 236.779 50.8691C234.098 50.8691 232.008 50.064 230.516 48.4471C229.025 46.8301 228.271 44.57 228.262 41.6599C228.262 38.7769 229.034 36.4448 230.586 34.6547C232.139 32.8736 234.118 31.9785 236.536 31.9785C238.87 31.9785 240.691 32.7386 242.019 34.2566C243.346 35.7746 244.004 37.9268 244.004 40.7109V42.492ZM239.132 39.6719C239.755 39.6719 240.247 39.1075 240.158 38.4733C240.022 37.5085 239.72 36.7394 239.25 36.1659C238.601 35.3788 237.68 34.9808 236.499 34.9808C235.38 34.9808 234.426 35.4058 233.646 36.2559C233.141 36.8046 232.764 37.4748 232.513 38.2641C232.292 38.9568 232.784 39.6719 233.493 39.6719H239.132Z" fill="white"/>
<path d="M253.028 28.8301H248.981V32.7494H246.365V35.8769H247.71C248.41 35.8769 248.979 36.4396 248.979 37.1314V45.653C248.979 47.3769 249.418 48.6737 250.313 49.5456C251.208 50.4153 252.488 50.8513 254.155 50.8513V50.8691H255.81V47.7617L254.996 47.7795C254.333 47.7795 253.833 47.5837 253.509 47.2011C253.188 46.8185 253.026 46.189 253.026 45.3082V37.1336C253.026 36.4396 253.595 35.8791 254.294 35.8791H255.81V32.7494H253.026V28.8301H253.028Z" fill="white"/>
<path d="M177.1 50.0732H173.353V33.9096C173.353 33.3835 172.763 33.0702 172.319 33.3567L166.441 37.1933C165.671 37.6947 164.669 37.6947 163.908 37.1844L158.132 33.3724C157.688 33.0746 157.089 33.397 157.089 33.9252V50.0821H153.487V30.3863C153.487 28.5687 155.522 27.4831 157.045 28.4769L163.906 32.9515C164.667 33.444 165.644 33.4529 166.412 32.9605L173.548 28.4098C175.08 27.4338 177.091 28.5195 177.091 30.3281V50.0754H177.1V50.0732Z" fill="white"/>
<path fill-rule="evenodd" clip-rule="evenodd" d="M206.993 36.1028C204.682 36.1028 202.8 38.0283 202.8 40.3959V50.4563H199.139V40.3959C199.139 35.957 202.659 32.3528 206.993 32.3528H207.797V36.1028H206.993Z" fill="white"/>
<path d="M265.042 50.8088C261.44 50.8088 259.072 49.0708 258.115 46.4513L261.087 44.7134C261.717 46.3506 262.951 47.4085 265.142 47.4085C267.233 47.4085 267.963 46.5269 267.963 45.5446C267.963 44.2348 266.779 43.7311 264.16 42.9755C261.465 42.1947 258.845 41.0612 258.845 37.7113C258.845 34.3865 261.616 32.4723 264.639 32.4723C267.535 32.4723 269.752 33.9584 270.935 36.4267L268.014 38.1143C267.384 36.7793 266.427 35.8474 264.639 35.8474C263.178 35.8474 262.321 36.603 262.321 37.6105C262.321 38.6936 263.001 39.2729 265.671 40.0789C268.467 40.9605 271.439 41.8924 271.439 45.4942C271.439 48.7938 268.794 50.8088 265.042 50.8088Z" fill="white"/>
<path d="M226.688 50.8691L220.133 43.2307C219.442 42.4249 219.448 41.2399 220.148 40.4409L226.156 33.5947H221.283L216.014 40.2185C215.358 40.879 215.036 40.7292 214.885 40.3252V28.8301H210.945V50.8691H214.885V44.1137C215.152 43.267 216.066 43.9821 216.586 44.4837L221.668 50.8691H226.688Z" fill="white"/>
<path d="M190.48 39.3395C190.48 39.3395 191.478 38.9691 191.414 38.3939C191.368 37.9723 191.79 38.776 192.02 39.235C192.107 39.4123 192.028 39.6054 191.822 39.7295C191.516 39.9127 191.039 39.8832 190.795 39.6625L190.489 39.3887" fill="white"/>
</svg>
