<svg width="444" height="444" viewBox="0 0 444 444" fill="none" xmlns="http://www.w3.org/2000/svg">
<g clip-path="url(#clip0_8833_1862)">
<path d="M444 0H0V444H444V0Z" fill="#FFEEDA"/>
<path d="M333.4 262V110.6C333.2 97.9002 323.1 87.7002 310.4 87.7002H152.4C118.3 88.2002 90.8999 116.1 90.8999 150.3C90.8999 161.8 93.9999 171.7 98.6999 180.4C102.7 187.6 109 194.4 115.2 199.5C117 200.9 116.1 200.3 121.5 203.6C128.9 208.1 137.4 210.4 137.4 210.4L137.3 301C137.5 305.3 137.9 309.4 139.1 313.3C142.6 326.1 151.5 335.9 163.5 340.6C168.5 342.6 174.2 343.9 180.3 344L306.5 344.4C331.6 344.4 352 324 352 298.8C352.1 283.8 344.6 270.4 333.4 262Z" fill="#FFEEDA"/>
<path d="M336.5 299.9C336 316 322.7 329 306.4 329L219.6 328.7C226.5 320.7 230.7 310.3 230.7 298.9C230.7 281.1 220.1 268.8 220.1 268.8H306.5C323.1 268.8 336.6 282.3 336.6 298.9L336.5 299.9Z" fill="#EBC28E"/>
<path d="M123.5 186.7C113.5 177.2 106.5 165 106.5 150.4V148.9C107.3 124.1 127.7 104.1 152.5 103.4H310.5C314.6 103.6 317.9 106.5 317.9 110.7V244.4C321.5 245 323.3 245.5 326.8 246.8C329.6 247.8 333.4 250 333.4 250V110.7C333.2 97.9998 323.1 87.7998 310.4 87.7998H152.4C118.3 88.2998 90.8999 116.2 90.8999 150.4C90.8999 170.3 99.9999 187.3 114.8 199.2C115.8 200 116.8 201.1 119.4 201.1C124 201.1 127.3 197.4 127.1 193.4C127.1 190 125.6 188.8 123.5 186.7Z" fill="#101010"/>
<path d="M306.4 253.2H182.5C174.2 253.3 167.5 260 167.5 268.3V286.1C167.7 294.3 174.7 301.3 183.1 301.3H192.3V286.1H183V268.7C183 268.7 185.3 268.7 188 268.7C203.7 268.7 215.2 283.2 215.2 298.8C215.2 312.6 202.6 330.2 181.6 328.8C163 327.6 152.9 311 152.9 298.8V147.8C152.9 141 147.3 135.4 140.5 135.4H128.1V150.9H137.3V298.9C136.8 329 158.7 344.1 181.6 344.1L306.5 344.5C331.6 344.5 352 324.1 352 298.9C352.1 273.7 331.6 253.2 306.4 253.2ZM336.5 299.9C336 316 322.7 329 306.4 329L219.6 328.7C226.5 320.7 230.7 310.3 230.7 298.9C230.7 281.1 220.1 268.8 220.1 268.8H306.5C323.1 268.8 336.6 282.3 336.6 298.9L336.5 299.9Z" fill="#101010"/>
<path d="M273 153.7H179.6V138.2H273C277.2 138.2 280.7 141.6 280.7 145.9C280.8 150.2 277.4 153.7 273 153.7Z" fill="#101010"/>
<path d="M273 226.4H179.6V211H273C277.2 211 280.7 214.4 280.7 218.7C280.8 222.9 277.4 226.4 273 226.4Z" fill="#101010"/>
<path d="M289.5 190H179.6V174.5H289.4C293.6 174.5 297.1 177.9 297.1 182.2C297.3 186.5 293.8 190 289.5 190Z" fill="#101010"/>
</g>
<defs>
<clipPath id="clip0_8833_1862">
<rect width="444" height="444" rx="222" fill="white"/>
</clipPath>
</defs>
</svg>
