<svg width="223" height="42" viewBox="0 0 223 42" fill="none" xmlns="http://www.w3.org/2000/svg">
<path d="M64.933 24.5987C64.933 26.2506 64.2131 27.5927 62.7732 28.6252C61.3334 29.6576 59.3782 30.1738 56.9077 30.1738C55.4794 30.1738 54.2345 30.0518 53.173 29.8078C52.1114 29.5637 51.1174 29.254 50.191 28.8786V24.8577H50.6774C51.5961 25.571 52.6248 26.1192 53.7636 26.5021C54.9023 26.885 55.9967 27.0765 57.0467 27.0765C57.3169 27.0765 57.672 27.054 58.1121 27.0089C58.5521 26.9639 58.9111 26.8888 59.1891 26.7837C59.5288 26.6485 59.8086 26.4796 60.0286 26.2769C60.2487 26.0741 60.3587 25.7738 60.3587 25.3758C60.3587 25.0079 60.1985 24.6907 59.8781 24.4241C59.5577 24.1575 59.0887 23.9529 58.4711 23.8103C57.8226 23.6601 57.1374 23.5193 56.4155 23.3879C55.6937 23.2565 55.0162 23.0895 54.3832 22.8867C52.9317 22.4287 51.8876 21.8074 51.2506 21.0227C50.6137 20.2381 50.2952 19.2638 50.2952 18.1C50.2952 16.5382 51.0152 15.2636 52.455 14.2762C53.8948 13.2889 55.7458 12.7952 58.0079 12.7952C59.1427 12.7952 60.2641 12.9022 61.372 13.1162C62.4799 13.3302 63.4391 13.5986 64.2497 13.9215V17.7846H63.7749C63.0801 17.244 62.2289 16.7916 61.2214 16.4274C60.2139 16.0633 59.1852 15.8812 58.1352 15.8812C57.7647 15.8812 57.396 15.9056 57.0293 15.9544C56.6626 16.0032 56.3094 16.0952 55.9697 16.2303C55.6686 16.343 55.41 16.5138 55.1938 16.7428C54.9776 16.9718 54.8695 17.2327 54.8695 17.5256C54.8695 17.9686 55.0432 18.3084 55.3907 18.5449C55.7381 18.7814 56.3943 18.9973 57.3593 19.1925C57.9924 19.3201 58.6004 19.444 59.1833 19.5642C59.7662 19.6843 60.3934 19.8495 61.0651 20.0597C62.3853 20.4802 63.36 21.0527 63.9892 21.7773C64.6184 22.5019 64.933 23.4424 64.933 24.5987Z" fill="#E4AA09"/>
<path d="M81.47 16.3428H76.085V29.8696H71.6381V16.3428H66.2532V13.0991H81.47V16.3428Z" fill="#E4AA09"/>
<path d="M100.08 29.8696H95.4824L94.2896 26.4794H87.8971L86.7043 29.8696H82.2227L88.592 13.0991H93.7105L100.08 29.8696ZM93.2126 23.4047L91.0934 17.3903L88.9741 23.4047H93.2126Z" fill="#E4AA09"/>
<path d="M118.655 29.8696H113.201L108.047 23.1569L107.005 24.3845V29.8696H102.558V13.0991H107.005V20.6903L113.166 13.0991H118.319L111.579 20.8593L118.655 29.8696Z" fill="#E4AA09"/>
<path d="M133.316 29.8696H120.844V13.0991H133.316V16.3428H120.844V19.2007L132.737 19.2374V22.4811H120.844V26.6259H133.316V29.8696Z" fill="#E4AA09"/>
<path d="M150.849 24.5986C150.849 26.2505 150.129 27.5926 148.689 28.6251C147.249 29.6575 145.294 30.1737 142.823 30.1737C141.395 30.1737 140.15 30.0517 139.089 29.8077C138.027 29.5636 137.033 29.2539 136.107 28.8785V24.8576H136.593C137.512 25.5709 138.541 26.1191 139.679 26.502C140.818 26.8849 141.912 27.0764 142.962 27.0764C143.233 27.0764 143.588 27.0539 144.028 27.0088C144.468 26.9638 144.827 26.8887 145.105 26.7836C145.445 26.6484 145.724 26.4795 145.944 26.2767C146.164 26.074 146.274 25.7737 146.274 25.3757C146.274 25.0078 146.114 24.6905 145.794 24.424C145.473 24.1574 145.004 23.9528 144.387 23.8102C143.738 23.66 143.053 23.5192 142.331 23.3878C141.609 23.2564 140.932 23.0893 140.299 22.8866C138.847 22.4286 137.803 21.8072 137.166 21.0226C136.529 20.2379 136.211 19.2637 136.211 18.0999C136.211 16.5381 136.931 15.2635 138.371 14.2761C139.811 13.2887 141.662 12.7951 143.924 12.7951C145.059 12.7951 146.18 12.902 147.288 13.116C148.396 13.33 149.355 13.5985 150.166 13.9213V17.7845H149.691C148.996 17.2439 148.145 16.7915 147.137 16.4273C146.13 16.0632 145.101 15.8811 144.051 15.8811C143.68 15.8811 143.312 15.9055 142.945 15.9543C142.578 16.0031 142.225 16.0951 141.885 16.2302C141.584 16.3429 141.326 16.5137 141.11 16.7427C140.893 16.9717 140.785 17.2326 140.785 17.5255C140.785 17.9685 140.959 18.3082 141.306 18.5448C141.654 18.7813 142.31 18.9972 143.275 19.1924C143.908 19.32 144.516 19.4439 145.099 19.5641C145.682 19.6842 146.309 19.8494 146.981 20.0596C148.301 20.4801 149.276 21.0526 149.905 21.7772C150.534 22.5018 150.849 23.4422 150.849 24.5986ZM167.386 16.3429H162.001V29.8696H157.554V16.3429H152.169V13.0991H167.386V16.3429ZM186.829 21.49C186.829 24.1631 186.042 26.2861 184.467 27.8592C182.892 29.4322 180.715 30.2188 177.936 30.2188C175.164 30.2188 172.991 29.4322 171.416 27.8592C169.841 26.2861 169.053 24.1631 169.053 21.49C169.053 18.7944 169.841 16.6639 171.416 15.0983C172.991 13.5328 175.164 12.75 177.936 12.75C180.699 12.75 182.873 13.5328 184.455 15.0983C186.038 16.6639 186.829 18.7944 186.829 21.49ZM180.935 25.7361C181.367 25.2255 181.688 24.623 181.896 23.9284C182.105 23.2339 182.209 22.4173 182.209 21.4787C182.209 20.4726 182.089 19.6166 181.85 18.9108C181.61 18.205 181.298 17.6343 180.912 17.1988C180.518 16.7483 180.064 16.4217 179.551 16.219C179.038 16.0162 178.503 15.9149 177.947 15.9149C177.384 15.9149 176.853 16.0125 176.355 16.2077C175.857 16.4029 175.399 16.7258 174.983 17.1763C174.597 17.5968 174.282 18.1768 174.039 18.9164C173.796 19.656 173.674 20.5139 173.674 21.49C173.674 22.4886 173.792 23.339 174.027 24.0411C174.263 24.7431 174.573 25.3156 174.959 25.7586C175.345 26.2017 175.797 26.5283 176.314 26.7385C176.832 26.9488 177.376 27.0539 177.947 27.0539C178.518 27.0539 179.063 26.9469 179.58 26.7329C180.097 26.5189 180.549 26.1866 180.935 25.7361ZM205.902 29.8696H201.618L194.299 18.3589V29.8696H190.222V13.0991H195.538L201.826 22.7064V13.0991H205.902V29.8696ZM222.775 29.8696H210.303V13.0991H222.775V16.3429H210.303V19.2374H222.196V22.4811H210.303V26.6259H222.775V29.8696Z" fill="#E4AA09"/>
<path d="M18.3296 11.8242L16.3452 26.791" stroke="#E4AA09" stroke-width="2.04263"/>
<path d="M2.49802 25.438L9.63547 20.5808L15.5102 26.5024L28.6164 23.618L35.7596 26.3138L19.0026 39.9999L2.49802 25.438Z" fill="#E4AA09"/>
<mask id="mask0_3181_499" style="mask-type:luminance" maskUnits="userSpaceOnUse" x="2" y="20" width="34" height="20">
<path d="M2.49802 25.438L9.63547 20.5808L15.5102 26.5024L28.6164 23.618L35.7596 26.3138L19.0026 39.9999L2.49802 25.438Z" fill="white"/>
</mask>
<g mask="url(#mask0_3181_499)">
<path d="M16.3452 25.9121L19.0026 40" stroke="#FFF3D1" stroke-width="2.04263"/>
</g>
<path fill-rule="evenodd" clip-rule="evenodd" d="M18.9942 2L9.63546 9.3703L2.00537 24.8712L18.9942 40L36.0054 26.0728L27.0238 7.06879L18.9942 2Z" stroke="#E4AA09" stroke-width="2.04263"/>
<path d="M9.63547 9.37037L18.1292 11.8243L27.0238 7.06885" stroke="#E4AA09" stroke-width="2.04263"/>
</svg>
