<svg width="28" height="28" viewBox="0 0 28 28" fill="none" xmlns="http://www.w3.org/2000/svg">
<g clip-path="url(#clip0_1789_377)">
<path d="M26.2848 10.926L21.6298 5.067C21.494 4.89332 21.321 4.75225 21.1236 4.65414C20.9262 4.55603 20.7093 4.50336 20.4888 4.5H7.51081C7.29206 4.50084 7.07623 4.55025 6.87891 4.64468C6.68158 4.7391 6.5077 4.87618 6.36981 5.046L1.71481 10.926C1.5009 11.1983 1.39053 11.5378 1.40335 11.8838C1.41616 12.2299 1.55134 12.5602 1.78481 12.816L12.9218 25.01C13.0589 25.1594 13.2255 25.2786 13.411 25.3602C13.5966 25.4418 13.7971 25.4839 13.9998 25.4839C14.2025 25.4839 14.403 25.4418 14.5886 25.3602C14.7742 25.2786 14.9408 25.1594 15.0778 25.01L26.2148 12.816C26.4483 12.5602 26.5835 12.2299 26.5963 11.8838C26.6091 11.5378 26.4987 11.1983 26.2848 10.926ZM13.9998 16.211C13.3264 16.2124 12.6677 16.0139 12.1071 15.6406C11.5466 15.2673 11.1095 14.736 10.8511 14.1141C10.5928 13.4922 10.5248 12.8076 10.6558 12.147C10.7869 11.4865 11.111 10.8796 11.5872 10.4034C12.0634 9.92723 12.6703 9.60308 13.3308 9.47203C13.9914 9.34099 14.676 9.40895 15.2979 9.66731C15.9199 9.92567 16.4511 10.3628 16.8244 10.9233C17.1977 11.4838 17.3962 12.1426 17.3948 12.816C17.3948 13.2618 17.307 13.7033 17.1364 14.1152C16.9658 14.5271 16.7157 14.9014 16.4004 15.2166C16.0852 15.5319 15.7109 15.782 15.299 15.9526C14.8871 16.1232 14.4456 16.211 13.9998 16.211Z" fill="#6D6F76"/>
<mask id="mask0_1789_377" style="mask-type:alpha" maskUnits="userSpaceOnUse" x="2" y="4" width="24" height="22">
<path d="M25.7024 10.7322L21.2681 4.59402C21.1388 4.41207 20.974 4.26428 20.7859 4.16149C20.5978 4.0587 20.3912 4.00352 20.1812 4H7.81876C7.61038 4.00088 7.40479 4.05265 7.21682 4.15157C7.02886 4.25049 6.86322 4.3941 6.73187 4.57202L2.29765 10.7322C2.09388 11.0176 1.98875 11.3731 2.00096 11.7357C2.01317 12.0983 2.14193 12.4443 2.36433 12.7123L12.9731 25.4874C13.1037 25.6439 13.2624 25.7688 13.4391 25.8543C13.6159 25.9398 13.8069 25.9839 14 25.9839C14.1931 25.9839 14.3841 25.9398 14.5609 25.8543C14.7376 25.7688 14.8963 25.6439 15.0269 25.4874L25.6357 12.7123C25.8581 12.4443 25.9868 12.0983 25.999 11.7357C26.0113 11.3731 25.9061 11.0176 25.7024 10.7322Z" fill="#6D6F76"/>
</mask>
<g mask="url(#mask0_1789_377)">
<ellipse cx="14.4763" cy="25.4769" rx="8.09687" ry="7.33359" fill="#FF6F43"/>
</g>
<ellipse cx="14.0977" cy="11.8574" rx="4.5" ry="4.71445" fill="#6D6F76"/>
<path d="M15.8387 16C15.7308 16 15.6229 15.9719 15.5059 15.9062L13.6888 14.9114C13.6438 14.8832 13.5808 14.8645 13.5089 14.8645C13.4459 14.8645 13.374 14.8832 13.329 14.902L11.5209 15.9062C11.4129 15.9719 11.305 16 11.179 16C10.9631 16 10.7562 15.8968 10.6123 15.7279C10.4684 15.5589 10.4144 15.3337 10.4504 15.1085L10.8012 13.0063C10.8192 12.8749 10.7742 12.7435 10.6843 12.6496L9.22699 11.1762C9.02009 10.9698 8.94813 10.6695 9.03808 10.3879C9.12803 10.1064 9.35293 9.90928 9.63179 9.86235L11.6468 9.55266C11.7727 9.53389 11.8897 9.44942 11.9436 9.33681L12.8432 7.42231C12.9691 7.15954 13.221 7 13.4999 7C13.7787 7 14.0306 7.15954 14.1566 7.42231L15.0561 9.33681C15.1191 9.45882 15.227 9.53389 15.353 9.55266L17.368 9.86236C17.6469 9.90929 17.8718 10.1064 17.9617 10.3785C18.0517 10.6601 17.9797 10.9604 17.7818 11.1669L16.3335 12.6496C16.2345 12.7435 16.1986 12.8749 16.2166 13.0063L16.5584 15.0991C16.5944 15.3243 16.5404 15.5495 16.3965 15.7185C16.2615 15.8968 16.0546 16 15.8387 16Z" fill="#090909"/>
</g>
<defs>
<clipPath id="clip0_1789_377">
<rect width="28" height="28" fill="white"/>
</clipPath>
</defs>
</svg>
