<svg width="60" height="60" viewBox="0 0 60 60" fill="none" xmlns="http://www.w3.org/2000/svg">
<rect x="0.5" y="0.5" width="59" height="59" rx="15.5" stroke="#6D6F76"/>
<path d="M19.9688 20.2859V20.0001H19.969L19.9688 20.2859ZM19.9688 20.2859V20.5001L19.969 20.2859L19.9688 20.2859ZM35.9073 17.5648L35.9073 17.5649L35.9153 17.5634C36.3964 17.4731 36.8907 17.4812 37.3686 17.5872C37.8464 17.6932 38.2978 17.8948 38.6956 18.18C39.0934 18.4651 39.4294 18.8279 39.6832 19.2464C39.8275 19.4842 39.9435 19.7373 40.0295 20.0004C40.0092 20.0002 39.989 20.0001 39.9688 20.0001C39.9687 20.0001 39.9686 20.0001 39.9685 20.0001H21.6432L35.9073 17.5648ZM19.9689 22.5001C19.969 22.5001 19.9692 22.5001 19.9693 22.5001H39.9682C39.9683 22.5001 39.9685 22.5001 39.9686 22.5001C40.8966 22.5012 41.7862 22.8703 42.4423 23.5265C43.0986 24.1827 43.4677 25.0725 43.4688 26.0006V37.9995C43.4677 38.9276 43.0986 39.8174 42.4423 40.4737C41.7861 41.1299 40.8963 41.4991 39.9682 41.5001H19.9693C19.0412 41.4991 18.1514 41.1299 17.4952 40.4737C16.839 39.8175 16.4698 38.9278 16.4688 37.9998V26.0004C16.4698 25.0724 16.839 24.1827 17.4952 23.5265C18.1513 22.8703 19.0409 22.5012 19.9689 22.5001ZM35.6111 34.0788C36.0222 34.3535 36.5055 34.5001 37 34.5001C37.663 34.5001 38.2989 34.2367 38.7678 33.7678C39.2366 33.299 39.5 32.6631 39.5 32.0001C39.5 31.5056 39.3534 31.0223 39.0787 30.6111C38.804 30.2 38.4135 29.8796 37.9567 29.6904C37.4999 29.5012 36.9972 29.4516 36.5123 29.5481C36.0273 29.6446 35.5819 29.8827 35.2322 30.2323C34.8826 30.5819 34.6445 31.0274 34.548 31.5123C34.4516 31.9973 34.5011 32.5 34.6903 32.9568C34.8795 33.4136 35.2 33.804 35.6111 34.0788Z" fill="#6D6F76" stroke="#6D6F76"/>
<path d="M16 30.2188V24C16 22.6456 16.75 20.375 19.3531 19.8831C21.5625 19.4687 23.75 19.4688 23.75 19.4688C23.75 19.4688 25.1875 20.4688 24 20.4688C22.8125 20.4688 22.8438 22 24 22C25.1562 22 24 23.4688 24 23.4688L19.3438 28.75L16 30.2188Z" fill="#FF6F43"/>
</svg>
