<svg width="80" height="80" viewBox="0 0 80 80" fill="none" xmlns="http://www.w3.org/2000/svg">
<circle cx="40" cy="40" r="40" fill="#1B1645"/>
<g clip-path="url(#clip0_3150_346)">
<path d="M66.2636 42.4975L64.2103 34.4935C64.1515 34.2582 63.9619 34.0751 63.7264 34.0162L55.7945 32.0609C55.7356 32.0479 55.6702 32.0414 55.6113 32.0414C55.4218 32.0218 55.2256 32.0806 55.0817 32.2245L41.696 45.6102L39.9239 38.6917C39.865 38.4563 39.6754 38.2732 39.44 38.2144L32.6262 36.5338L46.0053 23.1546C46.0838 23.0762 46.1296 22.9781 46.1623 22.88C46.2211 22.7492 46.2408 22.5988 46.2015 22.4549L44.1482 14.451C44.0893 14.2156 43.8997 14.0325 43.6643 13.9736L35.7323 12.0184C35.5753 11.9792 35.4184 12.0054 35.2811 12.0707H35.2745C35.2353 12.0904 35.2026 12.1165 35.1634 12.1427C35.1307 12.1688 35.0849 12.1819 35.0588 12.2146L12.224 35.0363C12.224 35.0363 12.1848 35.1017 12.1586 35.1344C12.0148 35.3045 11.9624 35.5268 12.0278 35.7425L14.2446 43.4784C14.31 43.7007 14.48 43.8707 14.6958 43.9296L22.1243 46.0613L24.2561 53.4833C24.3215 53.7057 24.4915 53.8756 24.7072 53.9345L32.1619 56.0728L34.3002 63.5275C34.3656 63.7498 34.5356 63.9198 34.7514 63.9787L42.5199 66.2085C42.5788 66.2281 42.6442 66.2347 42.703 66.2347C42.7161 66.2347 42.7292 66.2281 42.7488 66.2281C42.7488 66.2281 42.7554 66.2281 42.7619 66.2281C42.9319 66.2281 43.102 66.1627 43.2327 66.032L66.074 43.1906C66.1525 43.1121 66.1983 43.0141 66.231 42.916C66.2898 42.7852 66.3094 42.6348 66.2702 42.4909L66.2636 42.4975ZM56.0233 51.3711L54.3558 44.8647L58.0504 41.1765L64.4 43.001L56.0298 51.3777L56.0233 51.3711ZM43.0693 64.3252L41.4017 57.8188L48.0848 51.1358L54.4343 52.9602L43.0693 64.3252ZM48.222 49.1282L46.6265 43.5699L52.3614 44.9823L48.222 49.1217V49.1282ZM53.2703 45.9501L54.7351 51.6589L49.1572 50.0567L53.2703 45.9437V45.9501ZM53.46 43.8904L46.96 42.2883L55.3106 33.9377L57.1153 40.235L53.46 43.8904ZM45.3449 43.8968L47.1497 50.1941L40.4993 56.8445L33.9995 55.2424L45.3449 43.8968ZM63.0268 35.1933L64.6942 41.6997L58.3905 39.8884L56.5856 33.6042L63.0268 35.1933ZM33.0186 54.2745L31.351 47.7681L33.7575 45.3616L40.107 47.186L33.0186 54.2745ZM33.8948 43.3541L32.2992 37.7958L38.034 39.2083L33.8948 43.3476V43.3541ZM40.4078 45.8913L34.8299 44.2892L38.943 40.1761L40.4078 45.8848V45.8913ZM32.8289 44.4265L30.4551 46.8003L23.9553 45.1982L31.0241 38.1293L32.8289 44.4265ZM25.3481 23.7824L27.1529 30.0797L20.4437 36.7888L13.9438 35.1867L25.3481 23.7824ZM35.255 13.8756L37.0598 20.1728L33.4632 23.7694L26.9633 22.1672L35.255 13.8756ZM36.0265 31.2501L34.3591 24.7502L37.9948 21.1144L44.3443 22.9323L36.0265 31.2501ZM28.2253 29.0137L26.6298 23.4554L32.3646 24.8679L28.2253 29.0072V29.0137ZM33.2736 25.8357L34.7384 31.5444L29.167 29.9423L33.2801 25.8291L33.2736 25.8357ZM28.0946 31.0147L34.4441 32.8326L23.0202 44.2565L21.3527 37.7566L28.0946 31.0147ZM42.9711 15.1442L44.6386 21.6506L38.3348 19.8393L36.5301 13.5551L42.9711 15.1442ZM13.6169 36.4749L19.3517 37.8873L15.2124 42.0267L13.6169 36.4683V36.4749ZM16.1475 42.9683L20.2606 38.8551L21.7254 44.5639L16.154 42.9618L16.1475 42.9683ZM25.4266 52.7705L23.6218 46.4864L30.0628 48.0755L31.7303 54.5818L25.4266 52.7705ZM33.6724 56.5305L39.4073 57.943L35.2681 62.0823L33.6724 56.524V56.5305ZM36.2031 63.0239L40.3162 58.9108L41.781 64.6194L36.2031 63.0174V63.0239Z" fill="url(#paint0_linear_3150_346)"/>
</g>
<defs>
<linearGradient id="paint0_linear_3150_346" x1="15.7617" y1="47.6307" x2="62.7718" y2="30.5178" gradientUnits="userSpaceOnUse">
<stop stop-color="#29BCFA"/>
<stop offset="0.43" stop-color="#6464E4"/>
<stop offset="1" stop-color="#B45AFA"/>
</linearGradient>
<clipPath id="clip0_3150_346">
<rect width="55" height="55" fill="white" transform="translate(12 12)"/>
</clipPath>
</defs>
</svg>
