<svg width="24" height="24" viewBox="0 0 24 24" fill="none" xmlns="http://www.w3.org/2000/svg">
<circle cx="11.6877" cy="11.6877" r="11.6574" fill="#331005" stroke="#F07D59" stroke-width="0.0607156"/>
<g clip-path="url(#clip0_3003_605)">
<path d="M21.9791 1.45728H1.45728V21.9791H21.9791V1.45728Z" fill="#240D0D"/>
<path d="M15.2331 13.0811C15.2331 13.6362 14.7825 14.0868 14.2274 14.0868C13.6723 14.0868 13.2217 13.6362 13.2217 13.0811C13.2217 12.5261 13.6723 12.0754 14.2274 12.0754C14.7845 12.0775 15.2331 12.5261 15.2331 13.0811Z" fill="#E0C091"/>
<path d="M13.0027 12.7339C13.0264 12.6456 12.9678 12.5499 12.877 12.5396C12.7637 12.5267 12.6503 12.5058 12.5375 12.4756L12.1953 12.3839C10.9201 12.0422 10.1634 10.7315 10.5051 9.45637C10.8459 8.18421 12.1585 7.42475 13.4326 7.76615L13.7729 7.85733C15.0451 8.19821 15.8045 9.51074 15.4631 10.7849C15.3981 11.0273 15.2972 11.251 15.1681 11.452C15.0102 11.698 15.0683 12.0662 15.2439 12.3C15.476 12.6091 16.0396 12.9001 16.2775 12.5954C16.5937 12.1903 16.8356 11.7168 16.9766 11.1904C17.5412 9.08335 16.287 6.9109 14.1799 6.34631L13.8396 6.25512C11.7325 5.69054 9.56007 6.9448 8.99548 9.05188L8.65672 10.3161C8.50214 10.8931 7.90912 11.2354 7.33218 11.0809C6.91472 10.969 6.48575 11.2167 6.3739 11.6341C6.26204 12.0516 6.5097 12.4805 6.92716 12.5924C7.5041 12.747 7.84648 13.34 7.69189 13.9169L7.00325 16.487C6.89139 16.9044 7.13906 17.3334 7.55651 17.4453C7.97397 17.5571 8.40294 17.3095 8.5148 16.892L8.77351 15.9265C9.16554 14.4634 10.6694 13.5951 12.1325 13.9872C12.5866 14.1088 12.9097 13.3657 12.9699 12.8996C12.9771 12.8444 12.9879 12.789 13.0027 12.7339Z" fill="#EC724A"/>
</g>
<defs>
<clipPath id="clip0_3003_605">
<rect x="1.45728" y="1.45728" width="20.5219" height="20.5219" rx="10.2609" fill="white"/>
</clipPath>
</defs>
</svg>
