<svg width="64" height="64" viewBox="0 0 64 64" fill="none" xmlns="http://www.w3.org/2000/svg">
<g clip-path="url(#clip0_2462_331)">
<path d="M32 64C49.6731 64 64 49.6731 64 32C64 14.3269 49.6731 0 32 0C14.3269 0 0 14.3269 0 32C0 49.6731 14.3269 64 32 64Z" fill="#00A3FF"/>
<path fill-rule="evenodd" clip-rule="evenodd" d="M32.0148 9.375L43.2398 26.9042L32.0142 33.4308L20.79 26.904L32.0148 9.375ZM24.2262 26.0751L32.0148 13.9121L39.8035 26.0751L32.0143 30.6038L24.2262 26.0751Z" fill="white"/>
<path d="M31.9983 37.2838L18.9771 29.7121L18.6215 30.2674C14.611 36.5303 15.5066 44.7325 20.7749 49.9873C26.9743 56.171 37.0257 56.171 43.2251 49.9873C48.4934 44.7325 49.389 36.5303 45.3785 30.2674L45.0229 29.7119L31.9983 37.2838Z" fill="white"/>
</g>
<defs>
<clipPath id="clip0_2462_331">
<rect width="64" height="64" fill="white"/>
</clipPath>
</defs>
</svg>
